<svg width="1024" height="295" viewBox="0 0 1024 295" version="1.1" xmlns="http://www.w3.org/2000/svg" xmlns:xlink="http://www.w3.org/1999/xlink">
<title>Canvas</title>
<desc>Created using Figma</desc>
<g id="Canvas" transform="translate(454 -5115)">
<g id="Vector">
<use xlink:href="#path0_fill" transform="translate(-438.35 5115.69)" fill="#C5D799"/>
</g>
<g id="Vector">
<use xlink:href="#path1_fill" transform="translate(-536.543 5201.02)" fill="#AFCB95"/>
</g>
<g id="Vector">
<use xlink:href="#path2_fill" transform="translate(177.873 5133.83)" fill="#C5D799"/>
</g>
<g id="Vector">
<use xlink:href="#path3_fill" transform="translate(-813.427 5163.66)" fill="#C3C16C"/>
</g>
<g id="Vector">
<use xlink:href="#path4_fill" transform="translate(121.473 5359.35)" fill="#9EA13D"/>
</g>
<g id="Vector">
<use xlink:href="#path5_fill" transform="translate(-194.07 5399.25)" fill="#9EA13D"/>
</g>
<g id="Vector">
<use xlink:href="#path6_fill" transform="translate(58.3687 5396.65)" fill="#9EA13D"/>
</g>
<g id="Vector">
<use xlink:href="#path7_fill" transform="translate(153.595 5398.65)" fill="#9EA13D"/>
</g>
<g id="Vector">
<use xlink:href="#path8_fill" transform="translate(-16.9215 5397.15)" fill="#9EA13D"/>
</g>
<g id="Vector">
<use xlink:href="#path9_fill" transform="translate(-248.721 5399.85)" fill="#9EA13D"/>
</g>
<g id="Vector">
<use xlink:href="#path10_fill" transform="translate(-222.727 5369.25)" fill="#9EA13D"/>
</g>
<g id="Vector">
<use xlink:href="#path11_fill" transform="translate(-382.422 5397.35)" fill="#9EA13D"/>
</g>
<g id="Vector">
<use xlink:href="#path12_fill" transform="translate(363.173 5396.05)" fill="#9EA13D"/>
</g>
<g id="Vector">
<use xlink:href="#path13_fill" transform="translate(195.173 5362.95)" fill="#9EA13D"/>
</g>
</g>
<defs>
<path id="path0_fill" d="M 371.622 70.0624L 380.323 70.1624C 381.923 55.5624 369.622 53.1624 364.622 53.5624C 363.723 44.9624 353.723 42.7625 349.622 46.3624C 349.323 41.2625 343.322 39.4624 340.022 41.6624C 340.322 35.3624 332.522 31.7624 327.022 35.5624C 326.022 26.6624 315.522 22.4624 308.022 28.5624C 306.722 20.1624 297.522 16.5624 289.922 21.1624C 286.922 15.9624 280.522 12.7624 274.622 13.3624C 268.522 13.9625 263.122 18.2624 261.022 24.0624C 253.922 19.8624 243.222 22.1624 238.522 28.9624C 235.822 26.2624 231.923 25.2624 227.823 25.8624L 227.823 25.3624C 227.423 16.1624 220.122 17.1624 216.222 17.9624C 216.522 15.4624 215.723 12.6624 213.323 11.4624C 211.223 10.1624 208.022 10.3624 206.022 11.9624C 205.322 4.56243 197.322 -1.03756 190.022 0.162437C 182.722 1.56244 177.123 8.96244 177.323 16.2624C 174.123 13.5624 170.222 14.0624 165.722 15.4624C 162.422 17.6624 159.722 20.1624 159.222 25.6624C 159.222 25.6624 153.122 15.7624 142.722 25.1624C 142.722 25.1624 133.522 15.4624 123.522 25.2624C 120.522 14.0624 103.522 17.0624 105.922 29.2624C 94.2225 29.3624 92.5225 43.6624 100.022 47.8624C 94.8225 47.4624 91.1225 51.9624 92.8225 56.1624C 87.8225 52.7624 80.9225 54.8624 78.7225 59.5624C 75.4225 55.0624 71.1225 52.4624 65.3225 53.4624C 60.6225 54.2624 56.7225 58.5624 56.0225 63.7624C 50.2225 60.7624 41.0225 66.7625 44.4225 74.3624C 38.6225 70.1625 28.2225 76.5624 32.1225 84.8624C 27.8225 84.1625 22.5225 88.8624 24.0225 93.0624C 20.8225 92.5624 17.7225 95.8624 18.1225 99.3624L 17.8225 99.4624C 16.0225 99.5624 7.1225 100.462 9.1225 109.262C 9.1225 109.262 -6.4775 115.862 3.1225 130.062C 3.0225 129.962 135.822 27.5624 371.622 70.0624Z"/>
<path id="path1_fill" d="M 174.216 86.3382C 180.816 84.0382 187.916 89.7382 191.416 80.4382C 193.416 75.0382 190.616 69.3382 184.216 69.4382C 190.316 63.8382 183.716 52.3382 175.616 54.4382C 182.416 43.4382 170.616 35.4382 160.216 36.4382C 162.316 28.1382 157.316 22.3382 148.316 23.4382C 152.316 15.2382 142.416 8.53821 136.116 14.1382C 137.816 10.9382 137.516 6.83822 133.516 4.83822C 129.916 3.03822 125.516 3.83823 123.416 7.03823C 119.716 -4.36176 98.7159 -1.76178 101.216 13.7382C 97.2159 9.23822 90.3159 10.2382 88.2159 15.6382C 85.6159 7.73821 74.8159 7.13822 70.6159 12.3382C 66.3159 7.03822 59.5158 4.93823 53.9158 7.03823C 48.2158 9.13824 46.2159 14.7382 45.8159 15.6382C 43.2159 15.1382 38.4159 14.6382 33.3159 16.7382C 24.7159 20.2382 19.7159 29.0382 19.1159 37.1382C 18.6159 42.9382 20.5159 47.5382 21.6159 49.9382C 11.8159 50.1382 10.5158 55.8382 10.9158 63.7382C 4.91585 64.6382 0.615852 67.9382 0.0158517 74.0382C -0.384148 79.4382 6.91585 85.7382 6.91585 85.7382C 6.91585 85.7382 6.11587 88.0382 7.81587 90.4382C 11.6159 96.2382 18.3159 92.4382 23.2159 93.2382C 25.7159 93.2382 171.716 87.1382 174.216 86.3382Z"/>
<path id="path2_fill" d="M 208.8 88.0217C 278.2 100.122 321.3 120.622 343.2 133.522L 347.7 134.222C 357.6 120.222 342.2 113.322 342.2 113.322C 344.3 104.622 335.5 103.522 333.7 103.322L 333.4 103.222C 333.8 99.7217 330.9 96.3217 327.6 96.7217C 329.1 92.5217 324 87.7217 319.6 88.3217C 323.6 80.1217 313.4 73.5217 307.5 77.6217C 311 70.1217 302 63.9217 296.1 66.8217C 295.4 61.6217 291.6 57.3217 287 56.3217C 281.3 55.1217 276.9 57.7217 273.5 62.1217C 271.4 57.4217 264.6 55.1217 259.4 58.4217C 261.2 54.3217 257.6 49.7217 252.4 50.0217C 260 45.9217 258.6 31.6217 246.9 31.2217C 249.5 19.0217 232.6 15.7217 229.4 26.8217C 219.7 16.8217 210.2 26.3217 210.2 26.3217C 200 16.6217 193.7 26.4217 193.7 26.4217C 193.3 20.9217 190.7 18.3217 187.4 16.1217C 183 14.6217 179.1 14.0217 175.8 16.6217C 176.2 9.32173 170.8 1.82173 163.5 0.221733C 156.2 -1.17827 148.2 4.22173 147.3 11.6217C 145.3 10.0217 142.1 9.72172 140 11.0217C 137.6 12.1217 136.6 14.9217 136.8 17.4217C 132.9 16.5217 125.5 15.4217 125 24.6217L 125 25.1217C 120.9 24.5217 117.1 25.4217 114.3 28.0217C 109.8 21.1217 99.1 18.6217 92 22.6217C 90 16.8217 84.7 12.4217 78.6 11.7217C 72.7 10.9217 66.3 14.0217 63.1 19.1217C 56.6 16.2217 47.9 19.6217 44.9 26.1217C 38.2 22.2217 28.5 25.6217 25.8 32.6217C 19.2 30.2217 13.6 33.4217 12.7 38.4217C 9.1 36.8217 3.99999 37.6217 2.99999 42.9217L -1.2207e-05 42.6217L 3.7 94.5217C 36.5 87.9217 123.8 73.2217 208.8 88.0217Z"/>
<path id="path3_fill" d="M 1562.6 126.689C 1551.8 116.489 1534.2 102.389 1509.3 92.1889C 1471.8 76.7888 1438.2 78.6889 1421.5 80.7889C 1399.4 67.8889 1367.8 51.5889 1327.9 37.8889C 1210.2 -2.31114 1104.5 9.58886 1046 21.8889C 1018.4 27.6889 981.8 37.5888 940.4 55.5888C 931.1 50.2888 910.4 40.2889 882.4 40.2889C 857 40.2889 837.9 48.4889 828.5 53.3889C 808.6 42.1889 781 28.7889 746.4 18.2889C 710.2 7.18886 651.9 -5.21114 581 2.28886C 494.9 11.3889 432.1 45.3888 399.9 65.9888C 371.3 59.0888 293.8 46.1889 227.6 92.3889C 206.9 106.889 192.1 123.789 181.8 138.689C 161.9 135.589 125.7 132.489 83 144.589C 43.1 155.889 15.3 175.489 0 188.089L 0 276.789L 1742.9 276.789L 1742.9 171.189C 1722.6 159.589 1693.6 145.789 1656.9 136.589C 1619.1 127.189 1586.3 125.889 1562.6 126.689Z"/>
<path id="path4_fill" fill-rule="evenodd" d="M 2.44141e-05 0C 15 17.8 10.8 41.7 10.6 42.8L 9.00002 51.7L 21.7 51.6L 21.7 28.1C 20 16.9 14.6 4.8 2.44141e-05 0Z"/>
<path id="path5_fill" d="M 0.34298 7.69998C -0.25702 5.99998 -0.0570198 3.99999 0.84298 2.39999C 2.34298 4.39999 3.94298 6.20001 5.84298 7.80001C 6.04298 5.40001 2.94298 3.09999 3.84298 0.899988C 5.74298 2.99999 11.343 5.19998 13.143 7.19998C 13.443 5.59998 13.843 4.10002 14.143 2.50002C 15.843 4.00002 17.5429 5.6 19.2429 7.1C 19.6429 5.8 20.443 4.60001 21.443 3.80001C 22.043 4.90001 22.643 5.90002 23.143 7.00002C 23.943 5.10002 25.543 3.59999 27.343 2.89999C 27.343 4.39999 27.943 5.89998 28.843 7.19998C 29.043 6.09998 29.143 4.99999 29.343 3.89999C 31.443 5.69999 33.543 7.49998 35.643 9.19998C 36.043 6.79998 36.843 4.49999 37.943 2.39999C 39.443 3.79999 40.843 5.29999 41.943 6.89999C 43.843 5.19999 46.6429 1.99999 46.2429 1.89999C 39.7429 1.69999 47.9429 5.10001 49.2429 6.80001C 49.5429 5.60001 51.2429 0.699976 51.2429 0.699976C 51.2429 0.699976 58.643 5.70001 58.043 7.30001C 58.843 6.70001 59.643 6.1 60.443 5.6C 62.043 5.9 63.043 8.19999 64.643 7.89999C 65.143 7.79999 63.8429 7.69999 64.2429 7.39999C 65.8429 6.09999 67.443 1.30001 67.443 1.30001C 67.443 1.30001 71.643 5.49998 72.143 6.69998C 73.943 5.59998 74.443 0.600024 76.443 2.44141e-05C 76.343 1.00002 78.243 6.80001 78.143 7.80001L 77.843 10.8L 3.94296 11.1L 0.34298 7.69998Z"/>
<path id="path6_fill" d="M 0.904061 8.79998C 0.304061 7.09998 -0.495939 11.6 0.404061 9.90001C 1.90406 11.8 4.50406 7.1 6.40406 8.7C 6.60406 6.3 7.10407 4.00001 8.10407 1.90001C 10.0041 4.00001 11.904 6.00002 13.704 8.10002C 14.004 6.50002 14.6041 10 14.9041 8.40001C 16.6041 9.90001 17.1041 -1.2207e-05 17.1041 -1.2207e-05C 17.1041 -1.2207e-05 21.004 5.40002 22.004 4.60002C 22.604 5.70002 23.204 6.69998 23.804 7.79998C 24.604 5.89998 26.104 4.40002 28.004 3.60002C 28.104 5.10002 28.604 6.59998 29.504 7.79998C 29.704 6.69998 29.804 5.59999 30.004 4.49999C 32.104 6.29999 34.3041 7.99998 36.4041 9.79998C 36.7041 7.39998 37.504 5.09999 38.704 2.99999C 40.204 4.29999 41.604 5.89999 42.804 7.49999C 44.704 5.79999 46.704 4.19998 48.804 2.79998C 49.204 2.59998 49.604 2.29999 50.004 2.49999C 50.404 2.69999 50.5041 3.09999 50.6041 3.49999C 50.9041 4.89999 51.3041 6.30002 51.6041 7.60002C 52.8041 6.30002 54.104 4.99998 55.804 4.79998C 57.504 4.59998 59.5041 6.19998 58.9041 7.79998C 59.7041 7.19998 60.504 6.59999 61.304 5.99999C 62.904 6.29999 63.904 8.5 65.504 8.2C 66.004 8.1 66.404 7.80001 66.804 7.40001C 68.304 6.10001 69.9041 4.70001 71.4041 3.40001C 71.9041 4.60001 72.504 5.70001 73.004 6.90001C 74.804 5.80001 75.204 0.7 77.204 0.2C 77.104 1.2 79.104 7.00001 79.004 7.90001L 78.804 10.9L 4.90406 12L 0.904061 8.79998Z"/>
<path id="path7_fill" d="M 19.2782 5.99999C 17.5782 4.49999 15.8782 2.99999 14.0782 1.49999C 13.7782 3.09999 13.4782 4.7 13.0782 6.2L 7.47818 -1.2207e-05C 6.47818 2.19999 5.97817 4.49998 5.77817 6.79998C 3.87817 5.19998 2.17817 3.39999 0.778171 1.49999C -0.121829 3.09999 -0.221792 5.09998 0.378208 6.79998L 4.27817 10.1L 19.5782 9.90001C 19.3782 8.00001 19.4782 5.19999 19.2782 5.99999Z"/>
<path id="path8_fill" d="M 0.194286 8.60002C -0.405714 6.90002 0.494298 4.59999 1.3943 2.99999C 2.1943 4.99999 3.79429 7.00002 5.69429 8.60002C 5.89429 6.20002 6.3943 3.89998 7.3943 1.79998C 9.2943 3.89998 11.1943 5.89999 12.9943 7.99999C 13.2943 6.39999 13.5943 4.79998 13.9943 3.29998C 15.6943 4.79998 17.3943 6.29998 19.1943 7.79998C 19.5943 6.49998 20.2943 5.30001 21.3943 4.40001C 21.9943 5.50001 22.5943 6.50002 23.1943 7.60002C 23.9943 5.70002 25.4943 4.20001 27.3943 3.40001C 27.4943 4.90001 27.9943 6.40002 28.8943 7.60002C 29.0943 6.50002 29.1943 5.39998 29.3943 4.29998C 31.4943 6.09998 33.6943 7.80002 35.7943 9.60002C 36.0943 7.20002 36.8942 4.89998 38.0942 2.79998C 39.5942 4.09998 40.9943 5.69998 42.1943 7.29998C 44.0943 5.59998 46.0943 4.00002 48.1943 2.60002C 48.5943 2.40002 48.9943 2.09998 49.3943 2.29998C 49.7943 2.49998 49.8943 2.89998 49.9943 3.29998C 50.2943 4.69998 50.6943 6.10001 50.9943 7.40001C 52.1943 6.10001 53.4943 4.80002 55.1943 4.60002C 56.8943 4.40002 58.8943 6.00002 58.2943 7.60002C 59.0943 7.00002 59.8943 6.39998 60.6943 5.79998C 62.2943 6.09998 63.2943 8.29999 64.8943 7.99999C 65.3943 7.89999 65.7943 7.6 66.1943 7.2C 67.6943 5.9 69.2943 4.5 70.7943 3.2C 71.2943 4.4 71.8943 5.5 72.3943 6.7C 74.1943 5.6 74.5942 0.499988 76.5942 -1.2207e-05C 76.4942 0.999988 78.4943 6.8 78.3943 7.7L 78.1943 10.7L 4.29426 11.8L 0.194286 8.60002Z"/>
<path id="path9_fill" d="M 0.194298 6.79999C -0.405702 5.09999 0.49425 2.80001 1.39425 1.20001C 2.19425 3.20001 3.7943 5.19999 5.6943 6.79999C 5.8943 4.39999 6.39425 2.1 7.39425 0C 9.29425 2.1 11.1943 4.10001 12.9943 6.20001C 13.2943 4.60001 13.5943 3 13.9943 1.5C 15.6943 3 17.3943 4.5 19.1943 6C 19.5943 4.7 20.2942 3.49998 21.3942 2.59998C 21.9942 3.69998 22.5943 4.69999 23.1943 5.79999C 23.9943 3.89999 25.4942 2.39998 27.3942 1.59998C 27.4942 3.09998 27.9942 4.59999 28.8942 5.79999C 29.0942 4.69999 29.1942 3.6 29.3942 2.5C 31.4942 4.3 33.6943 5.99999 35.7943 7.79999C 36.0943 5.39999 36.8943 3.1 38.0943 1C 39.5943 2.3 40.9943 3.9 42.1943 5.5C 44.0943 3.8 46.0943 2.19999 48.1943 0.799988C 48.5943 0.599988 48.9942 0.3 49.3942 0.5C 49.7943 0.7 49.8943 1.1 49.9943 1.5C 50.2943 2.9 50.6943 4.29998 50.9943 5.59998C 52.1943 4.29998 53.4943 2.99999 55.1943 2.79999C 56.8943 2.59999 58.8943 4.19999 58.2943 5.79999C 59.0943 5.19999 59.8943 4.6 60.6943 4C 62.2943 4.3 63.2943 6.50001 64.8942 6.20001C 65.3942 6.10001 65.7943 5.80002 66.1943 5.40002C 67.6943 4.10002 69.2943 2.70002 70.7943 1.40002C 71.2943 2.60002 71.8942 3.70002 72.3942 4.90002C 74.1943 3.80002 78.0943 5.6 80.0943 5C 79.9943 6 78.4942 5.00002 78.3942 5.90002L 78.1943 8.90002L 4.29427 10L 0.194298 6.79999Z"/>
<path id="path10_fill" fill-rule="evenodd" d="M 42.5 35.2C 36.2 28.1 30.8 16.2 35.6 2.44141e-05C 18.8 8.90002 24.8 37.7 24.8 37.7C 17 29.1 18.7 1.89999 18.7 1.89999C 6.10002 15 9.8 34.4 9.8 34.4L 1.2207e-05 16.9C 0.100012 30.5 2.29998 38.8 4.39998 43.7L 41.1 42.2C 40.6 40.5 42.9 36.9 42.5 35.2Z"/>
<path id="path11_fill" d="M 0.194286 8.59998C -0.405714 6.89998 0.494268 4.6 1.39427 3C 2.19427 5 3.79429 6.99998 5.69429 8.59998C 5.89429 6.19998 6.39427 3.89999 7.39427 1.79999C 9.29427 3.89999 11.1943 5.9 12.9943 8C 13.2943 6.4 13.5943 4.79999 13.9943 3.29999C 15.6943 4.79999 17.3943 6.29999 19.1943 7.79999C 19.5943 6.49999 20.2943 5.30002 21.3943 4.40002C 21.9943 5.50002 22.5943 6.49998 23.1943 7.59998C 23.9943 5.69998 25.4943 4.20002 27.3943 3.40002C 27.4943 4.90002 27.9943 6.39998 28.8943 7.59998C 29.0943 6.49998 29.1943 5.39999 29.3943 4.29999C 31.4943 6.09999 33.6943 7.79998 35.7943 9.59998C 36.0943 7.19998 36.8943 4.89999 38.0943 2.79999C 39.5943 4.09999 40.9943 5.69999 42.1943 7.29999C 44.0943 5.59999 46.0943 3.99998 48.1943 2.59998C 48.5943 2.39998 48.9943 2.09999 49.3943 2.29999C 49.7943 2.49999 49.8943 2.89999 49.9943 3.29999C 50.2943 4.69999 50.6943 6.10002 50.9943 7.40002C 52.1943 6.10002 53.4943 4.79998 55.1943 4.59998C 56.8943 4.39998 58.8943 5.99998 58.2943 7.59998C 59.0943 6.99998 59.8943 6.39999 60.6943 5.79999C 62.2943 6.09999 63.2943 8.3 64.8943 8C 65.3943 7.9 65.7943 7.60001 66.1943 7.20001C 67.6943 5.90001 69.2943 4.50001 70.7943 3.20001C 71.2943 4.40001 71.8943 5.50001 72.3943 6.70001C 74.1943 5.60001 74.5943 0.5 76.5943 -3.41061e-13C 76.4943 1 78.4943 6.80001 78.3943 7.70001L 78.1943 10.7L 4.29426 11.8L 0.194286 8.59998Z"/>
<path id="path12_fill" d="M 0.599951 11.2C 1.49995 7.10002 3.39995 3.20001 6.09995 1.2207e-05C 6.09995 3.40001 6.30005 6.79999 6.70005 10.1C 7.50005 7.89999 8.89995 5.99998 10.6 4.39998C 10.7 6.49998 11.3 8.60001 12.2 10.5C 14.6 7.40001 17.8 5.1 21.5 3.8C 21.6 6.1 21.6 8.29999 21.7 10.6C 25 7.19999 29.3 4.90001 33.9 4.00001C 33.8 6.00001 34.1001 7.9 34.7001 9.8C 36.5 8.7 38.5 8.00002 40.5 7.70002C 41.3 7.60002 42.2 7.59999 42.8 8.09999C 43.4 8.59999 43.5 9.79999 42.8 10.1C 45.5 9.29999 48.2 8.6 50.9 7.8C 51.3 8.5 51.5 9.30001 51.4 10C 53.5 9.60001 55.5 9.20001 57.6 9.00001C 58 9.00001 58.4001 8.90001 58.7001 9.00001C 59.9001 9.40001 59.9001 11.1 59.7001 12.3C 47.2001 13.2 34.6 13.2 22 13.3C 14.6 13.3 6.89998 13.3 -2.44141e-05 10.7"/>
<path id="path13_fill" fill-rule="evenodd" d="M 21.2 20.7L 12.6 38.8C 12.6 38.8 12.3 20 7.30002 -2.44141e-05C 7.30002 -2.44141e-05 2.80001 26 0.100012 41.7C 0.500012 42.2 0.799976 42.9 0.499976 43.7C -2.44081e-05 45.1 -2.44141e-05 46.4 -2.44141e-05 47.8L 18.7 47.7C 20.4 42.6 22 34.2 21.2 20.7Z"/>
</defs>
</svg>
