<svg width="335" height="120" viewBox="0 0 335 120" version="1.1" xmlns="http://www.w3.org/2000/svg" xmlns:xlink="http://www.w3.org/1999/xlink">
<title>Group</title>
<desc>Created using Figma</desc>
<g id="Canvas" transform="translate(-5295 -5605)">
<g id="Group">
<g id="Group">
<g id="Group">
<g id="Group">
<g id="Group">
<g id="Group">
<g id="Layer40 0 FILL 1">
<g id="Vector">
<use xlink:href="#path0_fill" transform="matrix(-1 1.38778e-16 -1.38778e-16 -1 5377.05 5705.74)" fill="#575757"/>
</g>
<g id="Vector">
<use xlink:href="#path1_fill" transform="matrix(-1 1.38778e-16 -1.38778e-16 -1 5377.05 5693.15)" fill="#2F2F2F"/>
</g>
</g>
</g>
</g>
<g id="Group">
<g id="Group">
<g id="Layer34 0 FILL 1">
<g id="Vector">
<use xlink:href="#path2_fill" transform="matrix(-1 1.38778e-16 -1.38778e-16 -1 5397.98 5715)" fill="#1E1E1E"/>
</g>
</g>
</g>
</g>
<g id="Group">
<g id="Group">
<g id="Layer33 0 FILL 1">
<g id="Vector">
<use xlink:href="#path3_fill" transform="matrix(-1 1.38778e-16 -1.38778e-16 -1 5372.2 5637.3)" fill="#594B47"/>
</g>
</g>
</g>
</g>
<g id="Group">
<g id="Group">
<g id="Layer32 0 FILL 1">
<g id="Vector">
<use xlink:href="#path4_fill" transform="matrix(-1 1.38778e-16 -1.38778e-16 -1 5385.44 5697.15)" fill="#1E1E1E"/>
</g>
<g id="Vector">
<use xlink:href="#path5_fill" transform="matrix(-1 1.38778e-16 -1.38778e-16 -1 5386.16 5704.52)" fill="#E83A00"/>
</g>
</g>
</g>
</g>
<g id="Vector">
<use xlink:href="#path6_fill" transform="matrix(-1 1.38778e-16 -1.38778e-16 -1 5361.12 5619.59)" fill="#B47474"/>
</g>
<g id="Vector">
<use xlink:href="#path7_fill" transform="matrix(-1 1.38778e-16 -1.38778e-16 -1 5364.04 5641.13)" fill="#1E1E1E"/>
</g>
<g id="Vector">
<use xlink:href="#path8_fill" transform="matrix(-1 1.38778e-16 -1.38778e-16 -1 5367.73 5656.14)" fill="#1E1E1E"/>
</g>
<g id="Vector">
<use xlink:href="#path9_fill" transform="matrix(-1 1.38778e-16 -1.38778e-16 -1 5351.25 5621.53)" fill="#575757"/>
</g>
<g id="Vector">
<use xlink:href="#path10_fill" transform="matrix(-1 1.38778e-16 -1.38778e-16 -1 5362.68 5633.29)" fill="#FFFFFF"/>
</g>
<g id="Vector">
<use xlink:href="#path11_fill" transform="matrix(-1 1.38778e-16 -1.38778e-16 -1 5359.05 5629.71)" fill="#FFFFFF"/>
</g>
<g id="Vector">
<use xlink:href="#path12_fill" transform="matrix(-1 1.38778e-16 -1.38778e-16 -1 5344.34 5633.29)" fill="#FFFFFF"/>
</g>
<g id="Vector">
<use xlink:href="#path13_fill" transform="matrix(-1 1.38778e-16 -1.38778e-16 -1 5340.51 5629.71)" fill="#FFFFFF"/>
</g>
<g id="Vector">
<use xlink:href="#path14_fill" transform="matrix(-1 1.38778e-16 -1.38778e-16 -1 5359.05 5629.71)" fill="#4B2121"/>
</g>
</g>
</g>
</g>
<g id="Group">
<g id="Group">
<g id="Vector">
<use xlink:href="#path15_fill" transform="translate(5484.91 5691.59)" fill="#1E1E1E"/>
</g>
<g id="Vector">
<use xlink:href="#path16_fill" transform="translate(5487.75 5661.12)" fill="#1E1E1E"/>
</g>
<g id="Vector">
<use xlink:href="#path17_fill" transform="translate(5471.67 5606)" fill="#1E1E1E"/>
</g>
<g id="Vector">
<use xlink:href="#path18_fill" transform="translate(5422 5661.12)" fill="#1E1E1E"/>
</g>
<g id="Vector">
<use xlink:href="#path19_fill" transform="translate(5433.8 5691.54)" fill="#1E1E1E"/>
</g>
<g id="Vector">
<use xlink:href="#path20_fill" transform="translate(5446.77 5606.03)" fill="#1E1E1E"/>
</g>
<g id="Group">
<g id="Group">
<g id="Layer2 0 FILL 1">
<g id="Vector">
<use xlink:href="#path21_fill" transform="translate(5441.93 5652.49)" fill="#002292"/>
</g>
<g id="Vector">
<use xlink:href="#path22_fill" transform="translate(5455.5 5614.48)" fill="#DFB047"/>
</g>
<g id="Vector">
<use xlink:href="#path23_fill" transform="translate(5455.54 5624.58)" fill="#977D41"/>
</g>
<g id="Vector">
<use xlink:href="#path24_fill" transform="translate(5445.31 5689.48)" fill="#5B2C1E"/>
</g>
<g id="Vector">
<use xlink:href="#path25_fill" transform="translate(5439 5618.23)" fill="#000166"/>
</g>
</g>
</g>
</g>
<g id="Group">
<g id="Group">
<g id="Layer1 0 FILL 1">
<g id="Vector">
<use xlink:href="#path26_fill" transform="translate(5449.06 5717.35)" fill="#A14932"/>
</g>
<g id="Vector">
<use xlink:href="#path27_fill" transform="translate(5444.85 5692.91)" fill="#1C2E46"/>
</g>
<g id="Vector">
<use xlink:href="#path28_fill" transform="translate(5457.97 5718.35)" fill="#0E1117"/>
</g>
<g id="Vector">
<use xlink:href="#path29_fill" transform="translate(5461.21 5719.86)" fill="#375279"/>
</g>
<g id="Vector">
<use xlink:href="#path30_fill" transform="translate(5448.74 5701.13)" fill="#FFFFFF"/>
</g>
<g id="Vector">
<use xlink:href="#path31_fill" transform="translate(5454.08 5706.48)" fill="#382019"/>
</g>
</g>
</g>
</g>
<g id="Group">
<g id="Group">
<g id="Layer0 0 FILL 1">
<g id="Vector">
<use xlink:href="#path32_fill" transform="translate(5448.14 5683.59)" fill="#2F517B"/>
</g>
<g id="Vector">
<use xlink:href="#path33_fill" transform="translate(5447.6 5666.46)" fill="#41699E"/>
</g>
<g id="Vector">
<use xlink:href="#path34_fill" transform="translate(5449.12 5637.55)" fill="#A14932"/>
</g>
</g>
</g>
</g>
</g>
</g>
<g id="Group">
<g id="Group">
<g id="Group">
<g id="Group">
<g id="Layer16 0 FILL 1">
<g id="Vector">
<use xlink:href="#path35_fill" transform="translate(5543 5660.56)" fill="#101010"/>
</g>
</g>
</g>
</g>
<g id="Group">
<g id="Group">
<g id="Layer12 0 FILL 1">
<g id="Vector">
<use xlink:href="#path36_fill" transform="translate(5570.47 5668.54)" fill="#231613"/>
</g>
</g>
</g>
</g>
<g id="Group">
<g id="Group">
<g id="Layer11 0 FILL 1">
<g id="Vector">
<use xlink:href="#path37_fill" transform="translate(5553.75 5606.64)" fill="#1E1E1E"/>
</g>
</g>
</g>
</g>
<g id="Group">
<g id="Group">
<g id="Layer10 0 FILL 1">
<g id="Vector">
<use xlink:href="#path38_fill" transform="translate(5568.93 5606.62)" fill="#7F5726"/>
</g>
<g id="Vector">
<use xlink:href="#path39_fill" transform="translate(5568.95 5610.1)" fill="#9C7340"/>
</g>
</g>
</g>
</g>
<g id="Group">
<g id="Group">
<g id="Layer9 0 FILL 1">
<g id="Vector">
<use xlink:href="#path40_fill" transform="translate(5561.22 5614.74)" fill="#61B2D8"/>
</g>
</g>
</g>
</g>
<g id="Group">
<g id="Group">
<g id="Layer8 0 FILL 1">
<g id="Vector">
<use xlink:href="#path41_fill" transform="translate(5564.67 5605.14)" fill="#00AF52"/>
</g>
<g id="Vector">
<use xlink:href="#path42_fill" transform="translate(5556.26 5605)" fill="#008800"/>
</g>
</g>
</g>
</g>
<g id="Group">
<g id="Group">
<g id="Layer7 0 FILL 1">
<g id="Vector">
<use xlink:href="#path43_fill" transform="translate(5573.57 5690.37)" fill="#B76F5C"/>
</g>
<g id="Vector">
<use xlink:href="#path44_fill" transform="translate(5573.12 5674.76)" fill="#634F49"/>
</g>
</g>
</g>
</g>
<g id="Group">
<g id="Group">
<g id="Layer6 0 FILL 1">
<g id="Vector">
<use xlink:href="#path45_fill" transform="translate(5573.39 5659.75)" fill="#634F49"/>
</g>
</g>
</g>
</g>
<g id="Group">
<g id="Group">
<g id="Layer5 0 FILL 1">
<g id="Vector">
<use xlink:href="#path46_fill" transform="translate(5586.29 5693.75)" fill="#231613"/>
</g>
</g>
</g>
</g>
<g id="Group">
<g id="Group">
<g id="Layer4 0 FILL 1">
<g id="Vector">
<use xlink:href="#path47_fill" transform="translate(5575.92 5681.48)" fill="#FFFFFF"/>
</g>
<g id="Vector">
<use xlink:href="#path48_fill" transform="translate(5579.35 5684.82)" fill="#583C30"/>
</g>
</g>
</g>
</g>
<g id="Group">
<g id="Group">
<g id="Layer3 0 FILL 1">
<g id="Vector">
<use xlink:href="#path49_fill" transform="translate(5573.57 5694.81)" fill="#231613"/>
</g>
</g>
</g>
</g>
</g>
</g>
</g>
</g>
<defs>
<path id="path0_fill" d="M 31.2311 0C 21.4951 0.969387 13.9929 6.44853 8.76663 16.4796C 24.319 11.2955 39.2813 11.2955 53.6956 16.4796C 48.4694 6.44853 40.9671 0.92724 31.2311 0ZM 55.2972 67.7307L 62.4201 54.37C 41.0936 49.9024 20.2728 49.9024 3.21558e-07 54.37L 5.18411 67.7307L 55.2972 67.7307ZM 60.9449 40.925C 60.3127 36.8367 59.5541 33.0856 58.6268 29.6295C 40.925 24.6562 22.6752 24.6562 3.79325 29.6295C 2.86601 33.0856 2.10736 36.8367 1.47515 40.925C 21.8744 36.626 41.7258 36.626 60.9449 40.925Z"/>
<path id="path1_fill" d="M 62.4201 41.7785C 62.0829 36.9737 61.6193 32.4639 60.9449 28.3335C 41.6836 24.0345 21.8744 24.0345 1.47515 28.3335C 0.800798 32.5061 0.337178 36.9737 3.21558e-07 41.7785C 20.315 37.3109 41.0936 37.3109 62.4201 41.7785ZM 58.6268 17.038C 57.3203 12.0225 55.6765 7.63919 53.6956 3.88808C 39.2813 -1.29603 24.319 -1.29603 8.76663 3.88808C 6.78571 7.63919 5.14197 12.0225 3.8354 17.038C 22.6752 12.0647 40.9671 12.0647 58.6268 17.038Z"/>
<path id="path2_fill" d="M 32.2311 82.7618C 32.1468 82.7196 32.0204 82.6353 31.9361 82.5932C 31.3882 82.256 30.9245 82.0031 30.5452 81.7502C 30.0816 83.0146 29.3651 84.7005 28.3114 86.7236C 26.9627 89.4632 25.8669 91.4441 25.0661 92.6664C 24.9396 92.5399 24.8132 92.4135 24.6446 92.2449C 24.0967 91.697 23.3802 91.402 22.5794 91.402C 20.9778 91.402 20.177 92.1606 20.177 93.6358C 20.177 94.7737 20.5985 95.7853 21.4414 96.5861C 22.2001 97.3026 22.9166 97.6397 23.6752 97.6397C 25.614 97.6397 27.2156 96.291 28.5221 93.6358C 29.4494 91.8234 30.7138 88.1988 32.2311 82.7618ZM 0.114892 48.3274C -0.0958444 49.339 -0.0115499 50.1398 0.325628 50.772C 1.29502 52.4579 3.27594 53.2165 6.26839 53.0058C 8.24931 52.9215 12.0004 52.1629 17.5217 50.772C 17.5639 50.6455 17.5639 50.5191 17.5217 50.4348C 17.5639 49.8026 17.5639 49.2968 17.5639 48.8332C 16.2573 49.0861 14.445 49.2547 12.1269 49.3811C 9.05011 49.5919 6.81631 49.634 5.3833 49.5076C 5.42545 49.339 5.42545 49.1704 5.46759 48.9597C 5.72048 48.201 5.63618 47.4424 5.21471 46.768C 4.41391 45.3771 3.36023 45.04 2.09581 45.7986C 1.04213 46.3887 0.409923 47.2316 0.114892 48.3274ZM 32.1468 11.0271C 30.4188 8.45614 29.2387 6.55951 28.6064 5.2951C 28.775 5.25295 28.9436 5.16865 29.1544 5.12651C 29.913 4.91577 30.5031 4.45215 30.8824 3.73565C 31.7253 2.38693 31.4725 1.33325 30.1659 0.574603C 29.1544 -0.0154591 28.1007 -0.141901 27.0048 0.15313C 26.0355 0.490308 25.3611 0.953928 24.9818 1.54399C 24.0124 3.27203 24.3496 5.33724 25.9933 7.78179C 27.0891 9.46768 29.618 12.3337 33.5377 16.3798C 33.7063 16.3377 33.7906 16.2955 33.8327 16.2112C 34.3806 15.9584 34.8864 15.7055 35.2657 15.4526C 34.4649 14.4411 33.4112 12.9659 32.1468 11.0271ZM 70.7116 82.5932C 70.5851 82.6353 70.5008 82.7196 70.4165 82.7618C 71.976 88.1988 73.1982 91.8234 74.1255 93.6358C 75.4321 96.291 77.0336 97.6397 78.9724 97.6397C 79.7311 97.6397 80.4476 97.3026 81.2062 96.5861C 82.0492 95.7853 82.4706 94.8159 82.4706 93.6358C 82.4706 92.1606 81.6698 91.402 80.0683 91.402C 79.2675 91.402 78.5931 91.697 78.003 92.2449C 77.8344 92.4135 77.708 92.5399 77.5816 92.6664C 76.7808 91.4441 75.6849 89.4632 74.3362 86.7236C 73.2825 84.6584 72.566 83.0146 72.1024 81.7502C 71.7231 81.961 71.2595 82.256 70.7116 82.5932ZM 97.5172 49.0018C 97.5594 49.2125 97.5594 49.3811 97.6015 49.5497C 96.1685 49.6762 93.9347 49.634 90.858 49.4233C 88.5399 49.2968 86.7275 49.1283 85.421 48.8754C 85.421 49.339 85.421 49.8448 85.4631 50.477C 85.421 50.6034 85.421 50.7298 85.4631 50.8141C 90.9422 52.205 94.6934 52.9636 96.7164 53.0479C 99.7089 53.2587 101.648 52.5 102.659 50.8141C 102.996 50.1819 103.081 49.3811 102.87 48.3696C 102.575 47.2738 101.901 46.4308 100.889 45.8408C 99.6246 45.0821 98.5709 45.4193 97.7701 46.8102C 97.3486 47.5267 97.2643 48.2432 97.5172 49.0018ZM 74.3362 5.33724C 73.704 6.60166 72.5239 8.54043 70.7959 11.0693C 69.5314 13.008 68.4778 14.4832 67.6348 15.4947C 68.0141 15.7476 68.4778 16.0005 69.0678 16.2534C 69.11 16.3377 69.2364 16.422 69.3628 16.422C 73.2825 12.3758 75.8114 9.50982 76.9072 7.82393C 78.5509 5.37939 78.9303 3.31417 77.9187 1.58614C 77.5816 0.996075 76.9072 0.532455 75.8957 0.195277C 74.7999 -0.141901 73.7462 -0.0154591 72.7346 0.61675C 71.4702 1.33325 71.2173 2.38694 72.0603 3.77779C 72.4396 4.4943 73.0297 4.95792 73.7883 5.16865C 73.9569 5.2108 74.1255 5.25295 74.3362 5.33724Z"/>
<path id="path3_fill" d="M 3.21558e-07 -2.57246e-06C 4.25687 9.73602 12.7285 14.583 25.4148 14.583C 38.1011 14.583 46.5727 9.73602 50.8296 -2.57246e-06L 3.21558e-07 -2.57246e-06Z"/>
<path id="path4_fill" d="M 3.79325 39.3234C 2.44454 39.3234 1.18012 39.492 -3.21558e-07 39.8713C 1.05368 45.224 3.20319 50.071 6.44853 54.4543C 7.54436 55.9294 8.76663 57.3203 10.1575 58.669C 11.0847 59.5962 12.012 60.397 12.9814 61.0714C 15.4259 58.5847 16.6482 55.6344 16.6482 52.1362C 16.6482 49.0173 15.6788 46.2777 13.6979 43.9174C 13.445 43.6224 13.1499 43.3274 12.8549 43.0324C 10.3261 40.5457 7.33362 39.3234 3.79325 39.3234ZM 20.5679 34.4765C 21.2001 36.0359 22.1273 37.4268 23.4339 38.6912C 24.4033 39.6606 25.4991 40.4614 26.6371 41.0936C 28.4073 42.0208 30.3882 42.4844 32.5377 42.4844C 32.8749 42.4844 33.212 42.4844 33.5071 42.4844C 33.1278 38.7333 32.7063 34.8558 32.2005 30.8096C 31.8633 27.8172 31.4419 24.7404 31.0625 21.5794C 30.8518 20.0621 30.6411 18.5448 30.4725 16.9853C 27.8172 17.3647 25.4569 18.5448 23.4339 20.5679C 20.9472 23.0967 19.6828 26.1313 19.6828 29.6717C 19.6828 31.3576 19.9778 32.9592 20.5679 34.4765ZM 13.9929 0.716503C 13.7822 0.463619 13.5714 0.210737 13.4028 6.43116e-07C 11.169 1.85448 9.10381 4.04614 7.20718 6.49068C 3.96184 10.6633 1.72804 15.468 0.46362 20.905C 1.5173 21.1579 2.61313 21.3265 3.75111 21.3265C 4.42546 21.3265 5.05767 21.2844 5.64773 21.2001C 8.38731 20.8207 10.7476 19.5985 12.7706 17.5333C 12.8128 17.4911 12.8549 17.449 12.8971 17.4068C 15.3416 14.9201 16.5639 11.9698 16.5639 8.4716C 16.606 5.52129 15.7631 2.95031 13.9929 0.716503ZM 76.118 39.8713C 74.9378 39.5341 73.6734 39.3234 72.3247 39.3234C 68.7843 39.3234 65.7919 40.5878 63.263 43.0745C 62.968 43.3695 62.673 43.6646 62.4201 43.9596C 60.4392 46.3198 59.4698 49.0594 59.4698 52.1783C 59.4698 55.6344 60.6921 58.6268 63.1366 61.1135C 64.106 60.4392 65.0332 59.6384 65.9605 58.7111C 67.3092 57.3624 68.5736 55.9294 69.6694 54.4964C 72.9148 50.0709 75.1064 45.1819 76.118 39.8713ZM 45.0554 21.5794C 44.634 24.7404 44.2546 27.8172 43.9174 30.8096C 43.4538 34.8558 42.9902 38.7333 42.6109 42.4844C 42.9481 42.4844 43.2852 42.4844 43.5803 42.4844C 45.7298 42.4844 47.6686 42.0208 49.4809 41.0936C 50.6189 40.4614 51.7147 39.6606 52.6841 38.6912C 53.9485 37.4268 54.9179 35.9938 55.5501 34.4765C 56.1402 33.0013 56.4352 31.3997 56.4352 29.6717C 56.4352 26.1313 55.1708 23.0967 52.6841 20.5679C 50.661 18.5869 48.3008 17.4068 45.6455 16.9853C 45.4769 18.5448 45.2662 20.0621 45.0554 21.5794ZM 62.7151 6.43116e-07C 62.5465 0.210737 62.3358 0.463619 62.1251 0.716503C 60.3549 2.95031 59.5119 5.52129 59.5119 8.4716C 59.5119 11.9277 60.7342 14.9201 63.1787 17.4068C 63.2209 17.449 63.263 17.4911 63.3052 17.5333C 65.3283 19.5985 67.6885 20.8207 70.4281 21.2001C 71.0603 21.2844 71.6925 21.3265 72.3247 21.3265C 73.4627 21.3265 74.6007 21.2001 75.6122 20.905C 74.3478 15.5102 72.114 10.7054 68.8686 6.49068C 67.0142 4.04614 64.9489 1.85448 62.7151 6.43116e-07Z"/>
<path id="path5_fill" d="M 15.6395 6.11135C 15.0916 6.49068 14.5858 6.91215 14.1222 7.37577C 14.2908 7.58651 14.5015 7.83939 14.7123 8.09227C 16.4825 10.3261 17.3254 12.8971 17.3254 15.8474C 17.3254 19.3034 16.1031 22.2959 13.6586 24.7826C 13.6164 24.8247 13.5743 24.8669 13.5321 24.909C 11.5091 26.9742 9.14883 28.1965 6.40926 28.5758C 5.77705 28.6601 5.14484 28.7023 4.51263 28.7023C 3.37466 28.7023 2.23668 28.5758 1.22515 28.2808C 0.382203 31.8633 -0.0392695 35.6987 0.00287781 39.8292C 0.0450251 42.1051 0.213614 44.2546 0.592939 46.362C 0.635087 46.657 0.677234 46.952 0.719381 47.2049C 1.8995 46.8678 3.16392 46.657 4.51263 46.657C 8.053 46.657 11.0455 47.9214 13.5743 50.4081C 13.8693 50.7032 14.1644 50.9982 14.4172 51.2932C 16.3982 53.6535 17.3675 56.393 17.3675 59.5119C 17.3675 62.968 16.1453 65.9605 13.7007 68.4472C 14.5015 68.9951 15.3023 69.5008 16.1453 69.9223C 21.8352 72.704 28.368 71.8189 35.7016 67.267C 35.3644 61.8722 34.8587 56.098 34.2265 49.9024C 33.8893 49.9024 33.5521 49.9024 33.2571 49.9024C 31.1076 49.9024 29.1688 49.4387 27.3565 48.5115C 26.2185 47.8793 25.1226 47.0785 24.1533 46.1091C 22.8888 44.8447 21.9195 43.4117 21.2872 41.8944C 20.6972 40.4192 20.4022 38.8176 20.4022 37.0896C 20.4022 33.5492 21.6666 30.5146 24.1533 27.9858C 26.1763 26.0049 28.5366 24.8247 31.1919 24.4033C 30.1382 16.7325 28.958 8.64019 27.6515 0.0842947C 23.2682 1.26442 19.2642 3.28749 15.6395 6.11135ZM 62.8444 8.09227C 63.0552 7.83939 63.2659 7.58651 63.4345 7.37577C 62.9709 6.91215 62.4651 6.53283 61.9172 6.11135C 58.2925 3.28749 54.2886 1.26442 49.8631 -1.60779e-07C 48.5565 8.55589 47.3764 16.6903 46.3227 24.319C 48.978 24.6983 51.3382 25.8784 53.3613 27.9015C 55.848 30.4303 57.1124 33.4649 57.1124 37.0053C 57.1124 38.7333 56.8174 40.3349 56.2273 41.8101C 55.5951 43.3695 54.6679 44.7604 53.3613 46.0248C 52.3919 46.9942 51.2961 47.795 50.1581 48.4272C 48.3879 49.3544 46.407 49.8181 44.2575 49.8181C 43.9203 49.8181 43.5831 49.8181 43.2881 49.8181C 42.6559 56.0137 42.1923 61.83 41.813 67.1827C 49.1466 71.7768 55.6794 72.6619 61.3693 69.838C 62.2122 69.4165 63.013 68.9108 63.8138 68.3629C 61.3693 65.8762 60.147 62.9259 60.147 59.4276C 60.147 56.3087 61.1164 53.5692 63.0973 51.2089C 63.3502 50.9139 63.6452 50.6189 63.9403 50.3238C 66.427 47.8371 69.4616 46.5727 73.0019 46.5727C 74.3507 46.5727 75.6151 46.7413 76.7952 47.1206C 76.8373 46.8678 76.8795 46.5727 76.9216 46.2777C 77.2588 44.1703 77.4696 41.9787 77.5117 39.7449C 77.5538 35.6144 77.1745 31.779 76.2894 28.1965C 75.2357 28.4494 74.1399 28.618 73.0019 28.618C 72.3276 28.618 71.6954 28.5758 71.1053 28.4916C 68.3657 28.1122 66.0055 26.89 63.9824 24.8247C 63.9403 24.7826 63.8981 24.7404 63.856 24.6983C 61.4114 22.2116 60.1892 19.2613 60.1892 15.7631C 60.2313 12.8971 61.1164 10.3261 62.8444 8.09227Z"/>
<path id="path6_fill" d="M 4.46761 1.05368C 3.79325 0.379323 2.95031 0.0421473 1.98092 0.0421473C 1.22227 0.0421473 0.590062 0.252881 5.98949e-15 0.632206C 1.34871 1.93877 3.20319 2.95031 5.47914 3.62467L 5.47914 3.58252C 5.47914 2.57098 5.14197 1.72804 4.46761 1.05368ZM 23.2231 3.66681C 25.6255 2.99246 27.5643 2.06521 28.9552 0.758649C 28.2808 0.252882 27.5643 -2.57246e-06 26.7214 -2.57246e-06C 25.752 -2.57246e-06 24.909 0.337179 24.2347 1.01154C 23.5603 1.68589 23.2231 2.52883 23.2231 3.49822C 23.2231 3.58252 23.2231 3.62467 23.2231 3.66681Z"/>
<path id="path7_fill" d="M 29.6874 21.5373C 30.5303 21.5373 31.2468 21.7901 31.9212 22.2959C 33.6914 20.6943 34.7029 18.5869 34.9558 15.9317C 35.5458 10.0311 33.5649 5.81632 28.9287 3.20319C 25.1355 1.05368 21.2158 1.28623e-06 17.2118 1.28623e-06C 13.6293 1.28623e-06 9.9203 1.05368 6.12705 3.20319C 1.533 5.81632 -0.49007 10.0732 0.0999918 15.9317C 0.352875 18.4605 1.28011 20.5257 2.966 22.1273C 3.51392 21.748 4.18828 21.5373 4.94693 21.5373C 5.91631 21.5373 6.75926 21.8744 7.43361 22.5488C 8.10797 23.2231 8.44515 24.0661 8.44515 25.0355L 8.44515 25.0776C 10.9318 25.7941 13.9243 26.1313 17.4647 26.1313C 20.8786 26.1313 23.7868 25.7941 26.1891 25.1619C 26.1891 25.1198 26.1891 25.0776 26.1891 25.0355C 26.1891 24.0661 26.5263 23.2231 27.2007 22.5488C 27.875 21.8744 28.718 21.5373 29.6874 21.5373Z"/>
<path id="path8_fill" d="M 11.8434 19.9357C 8.09228 16.7325 6.19565 13.2342 6.1535 9.39884C 6.11135 5.56344 5.77417 3.0346 5.22626 1.81233C 4.67835 0.590062 3.66681 -1.28623e-06 2.2338 -1.28623e-06C 0.75865 -1.28623e-06 1.28623e-06 1.60159 1.28623e-06 4.84693C 1.28623e-06 9.01951 1.68589 12.8128 5.05767 16.1424C 7.41792 18.5026 9.69387 19.7671 11.8434 19.9357ZM 34.0128 9.39884C 33.9707 13.1921 32.0319 16.6903 28.323 19.9357C 30.4725 19.7671 32.7484 18.5448 35.1508 16.1424C 38.5226 12.8128 40.2085 9.06166 40.2085 4.84693C 40.2085 1.60159 39.4498 -1.28623e-06 37.9747 -1.28623e-06C 36.5417 -1.28623e-06 35.5723 0.590062 34.9822 1.81233C 34.35 3.0346 34.055 5.56344 34.0128 9.39884Z"/>
<path id="path9_fill" d="M 6.70142 2.27595C 6.74356 2.3181 6.82786 2.4024 6.87 2.44454C 7.20718 2.69743 7.54436 2.78172 7.83939 2.78172C 8.00798 2.78172 8.21872 2.73957 8.51375 2.61313C 8.76663 2.52884 8.93522 2.4024 9.01952 2.3181L 8.85092 2.3181C 8.30301 2.3181 7.79725 2.10736 7.33363 1.72804C 7.29148 1.68589 7.24933 1.64374 7.20718 1.55945C 6.82786 1.13798 6.61712 0.63221 6.61712 1.28623e-06C 6.32209 0.463621 6.1535 0.885094 6.1535 1.26442C 6.1535 1.39086 6.1535 1.47515 6.19565 1.55945C 5.22626 2.06522 4.13043 2.06522 2.86601 1.55945C 2.90816 1.47515 2.90816 1.34871 2.90816 1.26442C 2.90816 0.927241 2.73957 0.505768 2.44454 1.28623e-06C 2.44454 0.716505 2.19166 1.30656 1.72804 1.72804C 1.26442 2.10736 0.758651 2.3181 0.210737 2.3181L 6.43116e-07 2.3181C 0.126442 2.44454 0.29503 2.52884 0.547913 2.61313C 0.800797 2.73957 1.05368 2.78172 1.22227 2.78172C 1.5173 2.78172 1.85448 2.65528 2.19166 2.44454C 2.27595 2.4024 2.36025 2.3181 2.44454 2.27595C 4.04614 2.99245 5.437 2.99245 6.70142 2.27595Z"/>
<path id="path10_fill" d="M 1.28623e-06 6.74356C 1.28623e-06 8.59804 0.674356 10.1996 1.98092 11.5062C 3.28749 12.8128 4.88908 13.4871 6.74356 13.4871C 8.59804 13.4871 10.1996 12.8128 11.5062 11.5062C 12.0541 10.9583 12.4756 10.4104 12.8128 9.77817C 13.2764 8.85093 13.4871 7.83939 13.4871 6.74356C 13.4871 4.88908 12.8128 3.28749 11.5062 1.98092C 10.1996 0.674359 8.59804 -2.57246e-06 6.74356 -2.57246e-06C 4.88908 -2.57246e-06 3.28749 0.674359 1.98092 1.98092C 0.674356 3.28749 1.28623e-06 4.88908 1.28623e-06 6.74356Z"/>
<path id="path11_fill" d="M 5.3527 0.927242C 5.94276 1.5173 6.23779 2.27595 6.23779 3.16104C 6.23779 4.00399 5.94276 4.76264 5.3527 5.39485C 4.72049 5.98491 4.00399 6.27994 3.1189 6.27994C 2.27595 6.27994 1.5173 5.98491 0.885093 5.39485C 0.295031 4.76264 6.43116e-07 4.04613 6.43116e-07 3.16104C 6.43116e-07 2.27595 0.295031 1.5173 0.885093 0.927242C 1.5173 0.295033 2.23381 -2.57247e-06 3.1189 -2.57247e-06C 3.96184 -2.57247e-06 4.72049 0.337181 5.3527 0.927242Z"/>
<path id="path12_fill" d="M 13.4871 6.74356C 13.4871 4.88908 12.8128 3.28749 11.5062 1.98092C 10.1996 0.674359 8.59804 -2.57246e-06 6.74356 -2.57246e-06C 4.88908 -2.57246e-06 3.28749 0.674359 1.98092 1.98092C 0.674356 3.28749 1.28623e-06 4.88908 1.28623e-06 6.74356C 1.28623e-06 8.59804 0.674356 10.1996 1.98092 11.5062C 3.28749 12.8128 4.88908 13.4871 6.74356 13.4871C 8.59804 13.4871 10.1996 12.8128 11.5062 11.5062C 12.8128 10.1996 13.4871 8.64019 13.4871 6.74356Z"/>
<path id="path13_fill" d="M 5.35271 0.927242C 5.94277 1.5173 6.23779 2.27595 6.23779 3.16104C 6.23779 4.00399 5.94277 4.76264 5.35271 5.39485C 4.7205 5.98491 4.00399 6.27994 3.1189 6.27994C 2.27595 6.27994 1.5173 5.98491 0.885093 5.39485C 0.295031 4.76264 -2.57247e-06 4.04613 -2.57247e-06 3.16104C -2.57247e-06 2.27595 0.295031 1.5173 0.885093 0.927242C 1.5173 0.295033 2.23381 -2.57247e-06 3.1189 -2.57247e-06C 3.96184 -2.57247e-06 4.7205 0.337181 5.35271 0.927242Z"/>
<path id="path14_fill" d="M 6.23779 3.16104C 6.23779 2.27595 5.94276 1.5173 5.3527 0.927242C 4.72049 0.295033 4.00399 -2.57247e-06 3.1189 -2.57247e-06C 2.27595 -2.57247e-06 1.5173 0.295033 0.885092 0.927242C 0.295031 1.5173 6.43116e-07 2.27595 6.43116e-07 3.16104C 6.43116e-07 4.00399 0.295031 4.76264 0.885092 5.39485C 1.5173 5.98491 2.23381 6.27994 3.1189 6.27994C 3.96184 6.27994 4.72049 5.98491 5.3527 5.39485C 5.94276 4.76264 6.23779 4.04613 6.23779 3.16104ZM 24.7826 3.16104C 24.7826 2.27595 24.4876 1.5173 23.8975 0.927242C 23.2653 0.295033 22.5488 -2.57247e-06 21.6637 -2.57247e-06C 20.8207 -2.57247e-06 20.0621 0.295033 19.4299 0.927242C 18.8398 1.5173 18.5448 2.27595 18.5448 3.16104C 18.5448 4.00399 18.8398 4.76264 19.4299 5.39485C 20.0621 5.98491 20.7786 6.27994 21.6637 6.27994C 22.5066 6.27994 23.2653 5.98491 23.8975 5.39485C 24.4876 4.76264 24.7826 4.04613 24.7826 3.16104Z"/>
<path id="path15_fill" d="M 5.02449 6.34912C 3.69985 3.74552 2.74062 1.5987 2.1925 1.39396e-06C 1.69005 0.319741 1.09625 0.685156 0.411094 1.09625C 0.274063 1.1876 0.137034 1.23328 2.78791e-06 1.32464C 1.96412 8.26756 3.51714 12.8809 4.70474 15.1648C 6.34912 18.5906 8.45027 20.2806 10.8712 20.2806C 11.8304 20.2806 12.7439 19.8239 13.7031 18.9103C 14.7537 17.9054 15.3018 16.6265 15.3018 15.1648C 15.3018 13.292 14.2969 12.3328 12.2415 12.3328C 11.2366 12.3328 10.3687 12.6982 9.63787 13.4291C 9.45516 13.6118 9.27246 13.7945 9.13543 13.9315C 8.13053 12.3785 6.76022 9.86626 5.02449 6.34912Z"/>
<path id="path16_fill" d="M 0.137034 6.39594C 0.091357 6.53297 0.091357 6.71568 0.137034 6.85271C 7.12563 8.63412 11.9217 9.59334 14.434 9.68469C 18.2252 9.95876 20.7374 8.99954 21.9707 6.85271C 22.4275 6.0762 22.5188 5.02563 22.2448 3.74667C 21.8793 2.33068 21.0115 1.2801 19.7325 0.503589C 18.0881 -0.455631 16.7635 -0.0445346 15.7586 1.73687C 15.2105 2.60474 15.1191 3.51828 15.4389 4.52318C 15.4845 4.79724 15.5302 5.02563 15.5302 5.20833C 13.7031 5.34537 10.8712 5.29969 6.94292 5.02563C 3.97391 4.8886 1.69006 4.66021 1.39396e-06 4.34047C 0.0913556 4.93427 0.137034 5.61943 0.137034 6.39594Z"/>
<path id="path17_fill" d="M 7.81079 6.56451C 8.03917 6.65586 8.26756 6.70154 8.49594 6.79289C 7.71943 8.43727 6.21209 10.8582 4.01959 14.1012C 2.42089 16.5678 1.09625 18.4406 -6.96978e-07 19.7195C 0.502448 20.0393 1.09625 20.359 1.82708 20.6787C 1.91844 20.7701 2.05547 20.8614 2.23818 20.9071C 7.21699 15.7456 10.4144 12.0914 11.8304 9.94461C 13.9315 6.83857 14.3883 4.1893 13.155 1.99679C 12.6982 1.22028 11.8304 0.672157 10.5971 0.215386C 9.1811 -0.195708 7.85646 -0.0129995 6.57751 0.717834C 4.93313 1.67705 4.61339 3.00169 5.66396 4.73742C 6.12073 5.69664 6.85157 6.29044 7.81079 6.56451Z"/>
<path id="path18_fill" d="M 22.3532 6.39594C 22.3989 5.61943 22.3989 4.93427 22.3989 4.34047C 20.7545 4.66021 18.425 4.8886 15.456 5.02563C 11.5734 5.29969 8.69578 5.34537 6.8687 5.20833C 6.91437 5.02563 6.96005 4.79724 6.96005 4.52318C 7.27979 3.51828 7.14276 2.60474 6.64031 1.73687C 5.63542 -0.0445346 4.31078 -0.455631 2.6664 0.503589C 1.38744 1.2801 0.565254 2.33068 0.15416 3.74667C -0.119902 5.02563 -0.0285482 6.0762 0.428223 6.85271C 1.66151 8.99954 4.17375 9.95876 7.96495 9.68469C 10.5229 9.59334 15.2733 8.63412 22.2619 6.85271C 22.3989 6.71568 22.3989 6.53297 22.3532 6.39594Z"/>
<path id="path19_fill" d="M 5.66396 13.4291C 4.93313 12.6982 4.06527 12.3328 3.06037 12.3328C 1.0049 12.3328 3.48489e-07 13.292 3.48489e-07 15.1648C 3.48489e-07 16.6265 0.548126 17.9054 1.5987 18.9103C 2.55792 19.8239 3.47146 20.2806 4.43068 20.2806C 6.89725 20.2806 8.95272 18.5906 10.5971 15.1648C 11.7847 12.8353 13.3377 8.22188 15.3018 1.32464C 15.2105 1.23329 15.0735 1.18761 14.8907 1.09625C 14.2056 0.68516 13.6118 0.319738 13.1093 -1.39396e-06C 12.5612 1.64437 11.602 3.74553 10.2774 6.34912C 8.54162 9.82058 7.17131 12.3328 6.12073 13.8858C 6.02938 13.7945 5.84667 13.6575 5.66396 13.4291Z"/>
<path id="path20_fill" d="M 5.30237 6.75846C 5.53075 6.66711 5.75914 6.62143 5.98752 6.53008C 6.99242 6.25602 7.72326 5.66221 8.18003 4.74867C 9.2306 3.01294 8.95654 1.64263 7.26648 0.729084C 5.98752 -0.0474271 4.61721 -0.184459 3.2469 0.226636C 2.01361 0.63773 1.14575 1.23153 0.688977 2.00804C -0.544306 4.20055 -0.13321 6.84982 2.01361 9.95586C 3.42961 12.1027 6.627 15.7569 11.6058 20.9184C 11.7885 20.8727 11.9256 20.827 12.0169 20.69C 12.7477 20.3702 13.3415 20.0048 13.844 19.7308C 12.7477 18.4518 11.4231 16.579 9.8244 14.1125C 7.58622 10.8237 6.07888 8.35716 5.30237 6.75846Z"/>
<path id="path21_fill" d="M 42.8007 0.319741C 42.618 0.502449 42.481 0.593803 42.3896 0.593803C 42.4353 1.14193 41.4761 4.385 39.512 10.4144C 37.4565 16.4894 36.4516 20.235 36.4516 21.6053C 36.4516 21.4226 35.9948 14.2969 35.0356 0.319741C 34.3505 1.23328 32.5691 7.26266 29.6457 18.3622C 27.2705 27.4976 25.7632 33.7097 25.1237 36.9985L 45.6327 36.9985C 46.2722 34.4406 46.866 31.7456 47.3228 28.9136C 49.0128 19.3214 49.4696 10.8255 48.6931 3.42578C 45.4957 13.2464 43.4402 19.9152 42.618 23.5237C 42.7094 22.6559 42.8464 21.6053 42.9378 20.3263C 43.3489 16.3524 43.5772 12.6526 43.5772 9.1811L 43.3032 -1.39396e-06C 43.1205 0.0456757 42.9834 0.137032 42.8007 0.319741ZM 6.21336 0.319741C 6.03065 0.137032 5.89362 0.0456785 5.75659 0.0456785L 5.48252 9.22678C 5.48252 12.6526 5.71091 16.3981 6.122 20.372C 6.21336 21.6053 6.35039 22.7015 6.44174 23.5694C 5.61955 19.9609 3.56408 13.292 0.366685 3.47146C -0.409826 10.8712 0.0469456 19.3671 1.737 28.9593C 2.23945 31.7456 2.78757 34.4406 3.42705 37.0442L 23.9361 37.0442C 23.2966 33.7554 21.7893 27.5433 19.414 18.4079C 16.4907 7.26266 14.7093 1.27896 14.0241 0.365417C 13.0649 14.3426 12.5625 21.4226 12.5625 21.6053C 12.5625 20.235 11.5576 16.5351 9.50211 10.4144C 7.538 4.43068 6.57877 1.14193 6.62445 0.593803C 6.5331 0.593803 6.39607 0.502449 6.21336 0.319741Z"/>
<path id="path22_fill" d="M -1.39396e-06 10.0946L 0.0456785 10.0946L 21.8337 10.0946L 21.8793 10.0946C 19.5955 5.34422 15.9413 2.00979 10.9168 0C 5.89235 2.00979 2.23818 5.3899 -1.39396e-06 10.0946ZM 14.7994 20.1436L 7.07995 20.1436C 8.86136 23.7978 10.1403 27.7717 10.9625 32.0653C 11.739 27.7717 13.018 23.7978 14.7994 20.1436Z"/>
<path id="path23_fill" d="M 7.03428 10.049L 14.7537 10.049C 16.5808 6.34912 18.9103 2.96901 21.788 -6.96978e-07L 1.39396e-06 -6.96978e-07C 2.87766 3.01469 5.20719 6.34912 7.03428 10.049Z"/>
<path id="path24_fill" d="M 0.0456771 -1.39396e-06L 6.96978e-07 -1.39396e-06C 0.0913549 0.548124 0.274063 1.09625 0.456772 1.64438C 1.27896 4.06527 2.87766 6.48615 5.29855 8.86136C 9.5922 13.155 14.434 15.3475 19.8239 15.3475C 20.2806 15.3475 20.6917 15.3475 21.1485 15.3475C 21.5596 15.3475 22.0164 15.3475 22.4731 15.3475C 27.9087 15.3475 32.7505 13.2007 36.9985 8.86136C 39.9675 5.89235 41.7032 2.96901 42.297 -1.39396e-06L 42.2513 -1.39396e-06L 21.6966 -1.39396e-06L 20.5547 -1.39396e-06L 0.0456771 -1.39396e-06Z"/>
<path id="path25_fill" d="M 8.68556 34.3035C 8.77691 34.3035 8.95962 34.3949 9.14233 34.5776C 9.32504 34.7603 9.46207 34.8516 9.55342 34.8516C 9.50774 35.3998 10.467 38.6428 12.4311 44.6722C 14.4866 50.793 15.4914 54.4928 15.4914 55.8631C 15.4914 55.6804 15.9482 48.5548 16.9074 34.5776C 17.5926 35.4911 19.374 41.5205 22.2973 52.62C 24.6726 61.7555 26.1799 67.9676 26.8194 71.2563L 27.9613 71.2563C 28.6008 67.9676 30.1081 61.7555 32.4833 52.62C 35.4067 41.4748 37.1881 35.4911 37.8732 34.5776C 38.8325 48.6005 39.2892 55.6804 39.2892 55.8631C 39.2892 54.4928 40.2941 50.793 42.3496 44.6722C 44.3137 38.6428 45.2729 35.3998 45.2273 34.8516C 45.3186 34.8516 45.4556 34.7603 45.6384 34.5776C 45.8211 34.3949 45.9581 34.3035 46.0951 34.3035L 46.3692 43.4846C 46.3692 46.9104 46.1408 50.6559 45.7297 54.6298C 45.6384 55.8631 45.5013 56.9594 45.41 57.8272C 46.2322 54.2188 48.2876 47.5499 51.485 37.7293C 52.2615 45.129 51.8048 53.6249 50.1147 63.2171C 49.6123 66.0034 49.0641 68.6984 48.4247 71.302L 48.4703 71.302C 57.6058 50.1535 56.7836 26.3557 46.0951 3.48489e-07C 43.1718 1.87276 40.5682 4.01959 38.33 6.3948C 35.4524 9.36381 33.1228 12.7439 31.2957 16.4438C 29.5143 20.0979 28.2354 24.0718 27.4132 28.3655C 26.6367 24.0718 25.312 20.0979 23.5306 16.4438C 21.7035 12.7439 19.374 9.36381 16.4963 6.3948L 16.4507 6.3948C 14.1668 4.01959 11.6089 1.87276 8.68556 3.48489e-07C -2.04857 26.4014 -2.82508 50.1535 6.31035 71.302L 6.35602 71.302C 5.71654 68.7441 5.12274 66.0491 4.66597 63.2171C 2.97592 53.6249 2.51915 45.129 3.29566 37.7293C 6.49305 47.5499 8.54852 54.2188 9.37071 57.8272C 9.27936 56.9594 9.14233 55.9088 9.05097 54.6298C 8.63988 50.6559 8.41149 46.9561 8.41149 43.4846L 8.68556 34.3035Z"/>
<path id="path26_fill" d="M 33.1159 -1.39396e-06C 31.5172 -1.39396e-06 30.1469 0.548123 29.0506 1.69005C 27.9087 2.83198 27.3606 4.20229 27.3606 5.75531C 27.3606 5.9837 27.3606 6.16642 27.3606 6.3948C 28.7309 5.70965 30.1012 4.7961 31.3802 3.74552C 32.7962 2.64927 34.0295 1.50735 35.08 0.274064C 34.4405 0.137033 33.8011 -1.39396e-06 33.1159 -1.39396e-06ZM 2.05547 -1.39396e-06C 1.32464 -1.39396e-06 0.639479 0.0913515 -6.96978e-07 0.319737C 0.913542 1.32463 2.00979 2.28386 3.24307 3.15172C 4.75042 4.24798 6.30344 5.16152 7.85647 5.93803C 7.85647 5.89235 7.85647 5.84667 7.85647 5.75531C 7.85647 4.15661 7.30834 2.7863 6.16641 1.69005C 5.02448 0.5938 3.65417 -1.39396e-06 2.05547 -1.39396e-06Z"/>
<path id="path27_fill" d="M 4.20992 24.8027C 4.8494 24.5743 5.53456 24.4829 6.26539 24.4829C 7.86409 24.4829 9.23441 25.0311 10.3307 26.173C 11.4726 27.3149 12.0207 28.6852 12.0207 30.2383C 12.0207 30.2839 12.0207 30.3753 12.0207 30.421C 12.5688 30.695 13.1626 30.9691 13.7108 31.1975C 16.223 32.2024 18.7809 32.8419 21.4302 33.0246C 24.6733 33.2986 27.825 32.7048 30.8397 31.1975C 31.0681 31.1061 31.2965 30.9691 31.4792 30.8777C 31.4792 30.695 31.4792 30.4666 31.4792 30.2383C 31.4792 28.6396 32.0273 27.2692 33.1692 26.173C 34.3111 25.0311 35.6815 24.4829 37.2345 24.4829C 37.9196 24.4829 38.5591 24.5743 39.1529 24.757C 41.4825 22.1534 42.9441 19.4128 43.5379 16.5351C 44.4058 12.2871 42.6244 8.49595 38.1937 5.07016C 33.763 1.69006 28.4188 -1.39396e-06 22.1154 -1.39396e-06C 15.8119 -1.39396e-06 10.4677 1.69006 6.03701 5.07016C 1.60633 8.49595 -0.35779 12.2871 0.0533041 16.5351C 0.510075 19.5498 1.83471 22.2904 4.20992 24.8027ZM 6.26539 22.062C 4.66669 20.4634 3.89018 18.5449 3.89018 16.3067C 3.89018 14.0686 4.66669 12.1501 6.26539 10.5514C 7.86409 8.95272 9.78253 8.17621 12.0207 8.17621C 14.2589 8.17621 16.1773 8.95272 17.776 10.5514C 19.3747 12.1501 20.1512 14.0686 20.1512 16.3067C 20.1512 18.5449 19.3747 20.4634 17.776 22.062C 16.1773 23.6607 14.2589 24.4373 12.0207 24.4373C 9.78253 24.4373 7.86409 23.6607 6.26539 22.062ZM 32.4384 8.22188C 34.6766 8.22188 36.595 8.99839 38.1937 10.5971C 39.7924 12.1958 40.5689 14.1142 40.5689 16.3524C 40.5689 18.5906 39.7924 20.509 38.1937 22.1077C 36.595 23.7064 34.6766 24.4829 32.4384 24.4829C 30.2002 24.4829 28.2818 23.7064 26.6831 22.1077C 25.0844 20.509 24.3079 18.5906 24.3079 16.3524C 24.3079 14.1142 25.0844 12.1958 26.6831 10.5971C 28.2818 8.99839 30.2002 8.22188 32.4384 8.22188ZM 19.4204 26.9952C 19.7858 27.589 19.9685 28.1371 19.9685 28.5939C 19.9685 28.7309 19.9685 28.8679 19.9229 29.005C 21.5672 29.6445 22.9832 29.6445 24.1708 29.005C 24.1252 28.9136 24.1251 28.7766 24.1251 28.5939C 24.1251 28.1371 24.3079 27.589 24.6733 26.9952C 24.6733 27.7717 24.9017 28.4568 25.4041 29.005C 25.4498 29.0963 25.4955 29.1877 25.5868 29.2334C 26.1349 29.7358 26.8201 29.9642 27.5053 29.9642L 27.7336 29.9642C 27.6423 30.1012 27.4139 30.2383 27.0942 30.3753C 26.7287 30.5123 26.409 30.6037 26.2263 30.6037C 25.8609 30.6037 25.4498 30.4666 24.993 30.1469C 24.9017 30.0556 24.856 30.0099 24.7646 29.9185C 23.1659 30.8321 21.3845 30.8321 19.3747 29.9185C 19.2834 30.0099 19.1463 30.0556 19.055 30.1469C 18.5982 30.4666 18.1871 30.6037 17.8217 30.6037C 17.5933 30.6037 17.3193 30.5123 16.9538 30.3753C 16.6341 30.2839 16.4057 30.1469 16.2687 29.9642L 16.5427 29.9642C 17.2736 29.9642 17.9131 29.7358 18.4612 29.2334C 19.1463 28.6396 19.4204 27.9087 19.4204 26.9952ZM 15.9033 25.9446C 17.4563 25.8989 18.5525 25.7619 19.2377 25.4422C 19.1463 25.8076 18.918 26.2187 18.6896 26.8125C 18.4612 27.3149 17.9587 27.7717 17.1366 28.2285C 16.36 28.6396 15.7206 28.8679 15.2638 28.8679C 13.8021 28.8679 13.0713 28.3198 13.0713 27.2236C 13.0713 26.4014 14.0305 25.9903 15.9033 25.9446ZM 24.8103 25.4878C 25.4955 25.7619 26.5917 25.8989 28.1447 25.9446C 29.7434 25.9903 30.657 26.2643 30.8854 26.8125C 30.9767 26.9495 30.9767 27.0865 30.9767 27.2236C 30.9767 28.3198 30.2459 28.8679 28.7842 28.8679C 28.6015 28.8679 28.3731 28.8223 28.1447 28.7766C 27.7793 28.6852 27.3682 28.5025 26.9115 28.2741C 26.1349 27.8174 25.6325 27.3606 25.3584 26.8581C 25.13 26.2187 24.9473 25.7619 24.8103 25.4878Z"/>
<path id="path28_fill" d="M 15.0735 0.502448C 13.5204 0.456771 12.4242 0.31974 11.739 0.0456771C 11.8304 0.365417 12.0588 0.776508 12.2871 1.37031C 12.5155 1.87276 13.0637 2.32953 13.8402 2.7863C 14.2969 3.01469 14.7537 3.1974 15.0735 3.28876C 15.3018 3.38011 15.5302 3.38011 15.7129 3.38011C 17.1746 3.38011 17.9054 2.83198 17.9054 1.73573C 17.9054 1.5987 17.8598 1.46167 17.8141 1.32464C 17.54 0.82219 16.6265 0.502448 15.0735 0.502448ZM 6.16641 -2.78791e-06C 5.48125 0.319737 4.38501 0.502448 2.83198 0.502448C 0.959221 0.548126 -6.96978e-07 0.959218 -6.96978e-07 1.73573C -6.96978e-07 2.83198 0.730835 3.38011 2.1925 3.38011C 2.64927 3.38011 3.28875 3.15172 4.06526 2.74062C 4.84178 2.28385 5.3899 1.82709 5.61829 1.32464C 5.84667 0.776513 6.02938 0.319737 6.16641 -2.78791e-06Z"/>
<path id="path29_fill" d="M 3.65417 1.64438C 3.65417 1.18761 3.47146 0.639481 3.10604 0.0456785C 3.10604 0.959221 2.7863 1.69006 2.1925 2.23818C 1.64438 2.74063 0.959221 2.96901 0.274064 2.96901L -1.39396e-06 2.96901C 0.13703 3.10604 0.365416 3.24308 0.685156 3.38011C 1.0049 3.51714 1.32464 3.6085 1.55302 3.6085C 1.91844 3.6085 2.32954 3.47146 2.78631 3.15172C 2.87766 3.06037 3.01469 3.01469 3.10604 2.92334C 5.11584 3.83688 6.89725 3.83688 8.49595 2.92334C 8.5873 3.01469 8.63298 3.06037 8.72433 3.15172C 9.1811 3.47146 9.5922 3.6085 9.95761 3.6085C 10.1403 3.6085 10.4144 3.51714 10.8255 3.38011C 11.1452 3.28876 11.3279 3.15172 11.465 2.96901L 11.2366 2.96901C 10.5057 2.96901 9.86626 2.74063 9.31813 2.23818C 9.22678 2.1925 9.1811 2.14683 9.13542 2.0098C 8.63298 1.46167 8.40459 0.822187 8.40459 -1.39396e-06C 8.03917 0.593801 7.85647 1.14193 7.85647 1.5987C 7.85647 1.73573 7.85647 1.87276 7.90214 2.0098C 6.66886 2.64928 5.25287 2.64928 3.65417 2.0098C 3.60849 1.91844 3.65417 1.78141 3.65417 1.64438Z"/>
<path id="path30_fill" d="M 34.2578 2.37521C 32.6591 0.776508 30.7407 -1.39396e-06 28.5025 -1.39396e-06C 26.2643 -1.39396e-06 24.3459 0.776508 22.7472 2.37521C 21.1485 3.97391 20.372 5.89235 20.372 8.13053C 20.372 10.3687 21.1485 12.2871 22.7472 13.8858C 24.3459 15.4845 26.2643 16.2611 28.5025 16.2611C 30.7407 16.2611 32.6591 15.4845 34.2578 13.8858C 35.8565 12.2871 36.6331 10.3687 36.6331 8.13053C 36.6787 5.89235 35.8565 3.97391 34.2578 2.37521ZM 31.837 8.13053C 31.837 8.90704 31.5629 9.54652 31.0604 10.049C 30.5123 10.5971 29.8728 10.8255 29.142 10.8255C 28.4112 10.8255 27.726 10.5514 27.1322 10.049C 26.5841 9.50084 26.3557 8.86136 26.3557 8.13053C 26.3557 7.35402 26.6298 6.71454 27.1322 6.12074C 27.6803 5.57261 28.3655 5.34422 29.142 5.34422C 29.9185 5.34422 30.558 5.61829 31.0604 6.12074C 31.5629 6.71454 31.837 7.35402 31.837 8.13053ZM 6.96978e-07 8.13053C 6.96978e-07 10.3687 0.77651 12.2871 2.37521 13.8858C 3.97391 15.4845 5.89235 16.2611 8.13053 16.2611C 10.3687 16.2611 12.2871 15.4845 13.8858 13.8858C 15.4845 12.2871 16.2611 10.3687 16.2611 8.13053C 16.2611 5.89235 15.4845 3.97391 13.8858 2.37521C 12.2871 0.776508 10.3687 -1.39396e-06 8.13053 -1.39396e-06C 5.89235 -1.39396e-06 3.97391 0.776508 2.37521 2.37521C 0.77651 3.97391 6.96978e-07 5.89235 6.96978e-07 8.13053ZM 8.08485 10.8255C 7.30834 10.8255 6.66886 10.5514 6.07506 10.049C 5.52693 9.50084 5.29855 8.86136 5.29855 8.13053C 5.29855 7.35402 5.57261 6.71454 6.07506 6.12074C 6.62318 5.57261 7.30834 5.34422 8.08485 5.34422C 8.86136 5.34422 9.50084 5.61829 10.0033 6.12074C 10.5514 6.66886 10.7798 7.35402 10.7798 8.13053C 10.7798 8.90704 10.5057 9.54652 10.0033 10.049C 9.50084 10.5971 8.86136 10.8255 8.08485 10.8255Z"/>
<path id="path31_fill" d="M 25.7162 4.70474C 26.2643 4.15662 26.4927 3.51714 26.4927 2.7863C 26.4927 2.00979 26.2187 1.37032 25.7162 0.776514C 25.1681 0.228388 24.5286 -2.78791e-06 23.7978 -2.78791e-06C 23.0669 -2.78791e-06 22.3818 0.274066 21.788 0.776514C 21.2399 1.32464 21.0115 2.00979 21.0115 2.7863C 21.0115 3.56282 21.2855 4.20229 21.788 4.70474C 22.3361 5.25287 23.0213 5.48125 23.7978 5.48125C 24.5743 5.48125 25.1681 5.25287 25.7162 4.70474ZM 0.776513 4.70474C 1.32464 5.25287 2.00979 5.48125 2.7863 5.48125C 3.56281 5.48125 4.2023 5.20719 4.70474 4.70474C 5.25287 4.15662 5.48125 3.51714 5.48125 2.7863C 5.48125 2.00979 5.20719 1.37032 4.70474 0.776514C 4.15662 0.228388 3.51714 -2.78791e-06 2.7863 -2.78791e-06C 2.05547 -2.78791e-06 1.37032 0.274066 0.776513 0.776514C 0.228387 1.32464 -6.96978e-07 2.00979 -6.96978e-07 2.7863C -6.96978e-07 3.51714 0.228387 4.15662 0.776513 4.70474Z"/>
<path id="path32_fill" d="M 31.5629 0.959217C 31.3802 2.83198 31.2432 4.11094 31.1061 4.88745C 31.0148 5.52693 30.7407 6.9886 30.3753 9.27246C 30.0099 11.4193 29.8272 12.9266 29.8272 13.7945C 29.8272 14.6624 30.0099 15.1191 30.3753 15.1191C 31.3345 15.1191 32.3394 13.9772 33.4357 11.6933C 34.806 8.95271 35.7195 5.25287 36.222 0.639478C 35.7195 0.548124 35.2627 0.50245 34.8516 0.456773C 34.1665 0.365418 33.527 0.228384 32.9789 0.182707C 32.4764 0.0913529 32.0653 0.0456785 31.6542 1.39396e-06C 31.6542 0.274064 31.6086 0.5938 31.5629 0.959217ZM 5.11584 4.88745C 5.02449 4.11094 4.84178 2.83198 4.65907 0.959217C 4.61339 0.5938 4.56771 0.274064 4.56771 1.39396e-06C 4.20229 0.0456785 3.74552 0.0913529 3.24307 0.182707C 2.69495 0.274061 2.05547 0.365418 1.37031 0.456773C 0.959219 0.50245 0.502448 0.548124 -6.96978e-07 0.639478C 0.502448 5.25287 1.41599 8.95271 2.7863 11.6933C 3.88256 13.9772 4.88745 15.1191 5.84667 15.1191C 6.21209 15.1191 6.3948 14.6624 6.3948 13.7945C 6.3948 12.9266 6.21209 11.4193 5.84667 9.27246C 5.48126 6.9886 5.25287 5.52693 5.11584 4.88745Z"/>
<path id="path33_fill" d="M 34.8516 0.0913543C 34.0295 0.0913543 33.39 0.0456785 32.9789 1.39396e-06C 33.1159 2.69495 33.2986 8.45027 33.527 17.3116C 34.0751 17.403 34.7146 17.4943 35.3998 17.5857C 35.9022 15.4845 36.3133 12.9723 36.7244 10.1403C 37.1355 6.9886 37.3639 4.43068 37.3639 2.46656L 37.1812 0.0456743C 36.9528 0.0456743 36.496 0.0456771 35.8109 0.0913543C 35.5368 0.0913543 35.2627 0.0913543 34.943 0.0913543C 34.943 0.0913543 34.8973 0.0913543 34.8516 0.0913543ZM 2.51224 0.0913543C 2.46657 0.0913543 2.42089 0.0913543 2.42089 0.0913543C 2.10115 0.0913543 1.82708 0.0913543 1.55302 0.0913543C 0.867865 0.0456771 0.411094 0.0456743 0.182708 0.0456743L 6.96978e-07 2.46656C 6.96978e-07 4.43068 0.228385 6.9886 0.639479 10.1403C 1.0049 12.9723 1.46167 15.4389 1.96412 17.5857C 2.64927 17.4943 3.28875 17.3573 3.83688 17.3116C 4.06527 8.45027 4.24797 2.69495 4.385 1.39396e-06C 3.92823 0.0456785 3.33443 0.0913543 2.51224 0.0913543Z"/>
<path id="path34_fill" d="M 19.9909 0C 19.0774 0 18.5749 0.228386 18.4379 0.685157C 18.3465 1.09625 19.3514 2.10115 21.4069 3.65417C 23.508 5.20719 25.2895 7.26266 26.8425 9.77491C 28.4412 12.3328 29.9028 15.5302 31.2732 19.4128C 32.5978 23.1583 33.283 26.3557 33.3286 29.005C 33.3743 29.005 33.42 29.005 33.42 29.005C 33.7397 29.005 34.0138 29.005 34.2878 29.005C 34.3335 27.589 34.2878 26.1273 34.2422 24.62C 33.9681 20.3263 33.1916 16.9005 31.867 14.2969C 30.3139 11.1452 28.4412 8.17621 26.2487 5.3899C 25.0154 3.74553 23.6908 2.28386 22.3661 0.959219C 22.2748 0.867865 22.1377 0.730834 21.955 0.685157C 21.3612 0.228386 20.7217 0 19.9909 0ZM 2.45089 14.2969C 1.12625 16.9005 0.349744 20.372 0.075681 24.62C -0.0156732 26.1273 -0.0156743 27.589 0.0300029 29.005C 0.304066 29.005 0.578129 29.005 0.897869 29.005C 0.943546 29.005 0.989224 29.005 0.989224 29.005C 1.0349 26.3557 1.72006 23.1583 3.04469 19.4128C 4.41501 15.5302 5.87668 12.2871 7.47537 9.77491C 9.0284 7.21699 10.8555 5.20719 12.911 3.65417C 14.9664 2.10115 15.9256 1.09625 15.88 0.685157C 15.7886 0.228386 15.2405 0 14.3269 0C 13.5961 0 12.9566 0.228386 12.3171 0.685157C 12.1801 0.776511 12.0431 0.867865 11.9061 0.959219C 10.5814 2.28386 9.30246 3.74553 8.0235 5.3899C 5.87668 8.17621 4.00391 11.1452 2.45089 14.2969Z"/>
<path id="path35_fill" d="M 0 0.0901924L 0.135288 -1.37622e-06L 0 -1.37622e-06C 0 0.0450945 0 0.0901924 0 0.0901924Z"/>
<path id="path36_fill" d="M 41.3453 5.09583C 41.0747 1.80383 39.5415 0.0901889 36.6553 -2.75243e-06L 4.7275 -2.75243e-06C 1.88646 0.0901889 0.308103 1.80383 0.0375284 5.09583C -0.368334 10.0564 2.5178 12.8523 8.69593 13.5287L 32.6418 13.5287C 38.865 12.8523 41.7512 10.0564 41.3453 5.09583Z"/>
<path id="path37_fill" d="M 20.371 71.8662C 19.8749 73.2191 19.1083 75.0229 17.9809 77.1875C 16.5378 80.1188 15.3653 82.2383 14.5085 83.546C 14.3732 83.4108 14.2379 83.2755 14.0575 83.0951C 13.4713 82.5088 12.7047 82.1932 11.8478 82.1932C 10.1342 82.1932 9.27738 83.0049 9.27738 84.5832C 9.27738 85.8008 9.72834 86.8831 10.6303 87.74C 11.442 88.5066 12.2086 88.8673 13.0203 88.8673C 15.0947 88.8673 16.8084 87.4243 18.2064 84.5832C 19.1985 82.6441 20.5062 78.7659 22.1748 72.9485C 22.0846 72.9034 21.9493 72.8132 21.8591 72.7681C 21.2729 72.4074 20.7768 72.0917 20.371 71.8662ZM 0.12293 60.6374C -0.102549 61.7197 -0.0123577 62.5765 0.348409 63.2529C 1.38561 65.0567 3.50512 65.8685 6.70692 65.643C 8.82642 65.5528 12.84 64.7411 18.7475 63.2529C 18.7926 63.1176 18.7926 62.9823 18.7475 62.8922C 18.7926 62.2157 18.7926 61.6746 18.7926 61.1785C 17.3946 61.4491 15.4555 61.6295 12.9752 61.7648C 9.68324 61.9902 7.29317 62.0353 5.75991 61.9C 5.805 61.7197 5.805 61.5393 5.8501 61.3138C 6.12067 60.5021 6.03048 59.6903 5.57953 58.9688C 4.7227 57.4806 3.59531 57.1199 2.24243 57.9316C 1.16013 58.563 0.438601 59.4649 0.12293 60.6374ZM 25.557 16.5336C 24.6551 15.4513 23.5277 13.873 22.1748 11.7986C 20.3259 9.04772 19.0632 7.01841 18.3867 5.66553C 18.5671 5.62044 18.7475 5.53025 18.973 5.48515C 19.7847 5.25967 20.4161 4.76362 20.8219 3.99699C 21.7238 2.55392 21.4533 1.42653 20.0553 0.614801C 18.973 -0.0165406 17.8456 -0.151828 16.6731 0.163843C 15.6359 0.524609 14.9144 1.02066 14.5085 1.65201C 13.4713 3.50093 13.8321 5.71063 15.5908 8.32619C 16.7633 10.13 19.469 13.1965 23.663 17.5257C 23.8433 17.4806 23.9335 17.4355 23.9786 17.3454C 24.61 17.0748 25.1511 16.8042 25.557 16.5336ZM 53.2007 73.5348C 54.8693 79.3521 56.1771 83.2304 57.1692 85.1695C 58.5671 88.0105 60.2808 89.4536 62.3552 89.4536C 63.1669 89.4536 63.9335 89.0928 64.7453 88.3262C 65.6472 87.4694 66.0981 86.4322 66.0981 85.1695C 66.0981 83.5911 65.2413 82.7794 63.5277 82.7794C 62.6708 82.7794 61.9493 83.0951 61.318 83.6813C 61.1376 83.8617 61.0023 83.997 60.867 84.1323C 60.0102 82.8245 58.8377 80.705 57.3946 77.7738C 56.2672 75.5641 55.5006 73.8053 55.0046 72.4525C 54.5987 72.723 54.1026 72.9936 53.5164 73.3544C 53.4262 73.3995 53.2909 73.4446 53.2007 73.5348ZM 75.0271 63.8392C 75.3879 63.1627 75.4781 62.3059 75.2526 61.2236C 74.9369 60.0511 74.2154 59.1492 73.1331 58.5179C 71.7802 57.7061 70.6528 58.0669 69.796 59.5551C 69.345 60.2766 69.2548 61.0432 69.5254 61.9C 69.5705 62.1255 69.5705 62.3059 69.6156 62.4863C 68.0823 62.6216 65.6923 62.5765 62.4003 62.351C 59.92 62.2157 57.9809 62.0353 56.5829 61.7648C 56.5829 62.2608 56.5829 62.802 56.628 63.4784C 56.5829 63.6137 56.5829 63.749 56.628 63.8392C 62.4905 65.3273 66.504 66.1391 68.6686 66.2292C 71.8253 66.4547 73.9448 65.643 75.0271 63.8392ZM 58.7024 0.750089C 57.5299 0.389322 56.4025 0.52461 55.3202 1.20105C 53.9223 2.01277 53.6517 3.14017 54.5536 4.58323C 54.9595 5.34986 55.5908 5.84592 56.4025 6.0714C 56.5829 6.11649 56.7633 6.20668 56.9888 6.25178C 56.3123 7.60466 55.0497 9.67906 53.2007 12.3848C 51.8479 14.4592 50.7205 16.0376 49.8185 17.1199C 50.2244 17.3904 50.7205 17.661 51.3518 17.9316C 51.3969 18.0218 51.5322 18.112 51.6675 18.112C 55.8614 13.7828 58.5671 10.7163 59.7396 8.91243C 61.4984 6.29688 61.9042 4.08718 60.8219 2.23825C 60.4611 1.60691 59.7396 1.11086 58.7024 0.750089Z"/>
<path id="path38_fill" d="M 22.593 -4.30067e-08C 20.1127 0.135287 17.8129 1.30778 15.5581 3.42728C 18.0834 4.73506 20.7441 5.27621 23.4498 5.09583C 25.434 4.96054 27.5085 4.41939 29.628 3.42728C 27.6437 1.53326 25.5693 0.450958 23.4498 0.0901916C 23.1342 0.0450958 22.8636 0.0450958 22.593 -4.30067e-08ZM 45.1409 48.6584C 45.0958 45.5919 44.8704 42.5705 44.5547 39.6392C 37.4746 40.451 30.4397 40.9019 23.4047 40.9921C 15.7835 41.0372 8.20744 40.5863 0.586245 39.6392C 0.270575 42.5705 0.0901917 45.5468 9.61275e-15 48.6584L 45.1409 48.6584ZM 43.4273 32.3788C 42.8861 29.7633 42.2548 27.2379 41.4882 24.8027C 35.4904 25.8399 29.4476 26.4262 23.4498 26.4713C 16.9109 26.5163 10.3269 25.9301 3.74296 24.8027C 2.97633 27.2379 2.34498 29.7633 1.80383 32.3788C 8.97407 33.9572 16.1894 34.7238 23.4498 34.6787C 30.0338 34.5885 36.6629 33.8219 43.4273 32.3788ZM 38.6471 17.5423C 37.5648 15.1522 36.3472 12.8523 35.0395 10.6877C 31.2063 11.5896 27.3732 12.0857 23.4498 12.1759C 19.0755 12.221 14.6561 11.7249 10.1466 10.6877C 8.79369 12.8974 7.6212 15.1522 6.5389 17.5423C 12.0857 18.9403 17.7678 19.6167 23.4498 19.5265C 28.4555 19.4363 33.5513 18.805 38.6471 17.5423Z"/>
<path id="path39_fill" d="M 44.9875 52.9876C 44.9875 52.8072 44.9875 52.6268 45.0326 52.4014C 45.1228 49.9211 45.1679 47.4859 45.1228 45.1409L 0.0269701 45.1409C -0.0181258 47.4859 -0.0181254 49.9211 0.117162 52.4014C 0.117162 52.5817 0.117162 52.7621 0.117162 52.9876L 22.5298 61.9166L 44.9875 52.9876ZM 44.5366 36.1669C 44.266 33.6866 43.8601 31.2514 43.4092 28.9064C 36.6899 30.3495 30.0157 31.1161 23.4317 31.2063C 16.1713 31.2514 8.91085 30.4848 1.78571 28.9064C 1.28965 31.2514 0.928887 33.6866 0.658312 36.1669C 8.27951 37.0688 15.8556 37.5197 23.4768 37.5197C 30.4216 37.4295 37.5016 36.9786 44.5366 36.1669ZM 41.4249 21.3303C 40.6132 18.805 39.6662 16.4149 38.629 14.0699C 33.4881 15.2875 28.4373 15.9639 23.4317 16.0541C 17.7045 16.0992 12.0676 15.4679 6.52077 14.0699C 5.48357 16.3698 4.53655 18.805 3.76993 21.3303C 10.3539 22.4577 16.9379 23.044 23.4768 22.9989C 29.4295 22.9538 35.4272 22.3675 41.4249 21.3303ZM 35.0213 7.21533C 34.0743 5.63698 33.0371 4.14882 31.9548 2.70575C 31.1882 1.66855 30.4216 0.766629 29.6098 8.60135e-08C 27.4903 0.992108 25.4159 1.53326 23.4317 1.66855C 20.726 1.84893 18.1104 1.30778 15.5399 8.60135e-08C 14.7282 0.766629 13.9165 1.66855 13.1499 2.70575C 12.0676 4.14882 11.0304 5.68207 10.0833 7.21533C 14.5929 8.25254 19.0123 8.7035 23.3866 8.7035C 27.31 8.61331 31.1882 8.11725 35.0213 7.21533Z"/>
<path id="path40_fill" d="M 54.3856 1.72027e-07C 47.2604 1.72027e-07 41.3529 6.80947 36.6629 20.4284C 33.0552 30.8906 31.1612 41.0823 30.9357 50.9583C 30.7554 41.0823 28.8162 30.8906 25.2086 20.4284C 20.4735 6.80947 14.566 1.72027e-07 7.44081 1.72027e-07C 2.48027 1.72027e-07 6.88108e-07 6.04284 6.88108e-07 18.1285C 6.88108e-07 26.4713 3.02142 34.9042 9.06426 43.292C 11.3642 46.4938 13.7993 49.2897 16.4149 51.6347C 18.7599 53.7993 20.6539 55.1071 22.1421 55.513C 23.3145 55.8286 24.8929 56.46 26.8771 57.407L 34.9944 57.407C 36.9335 56.46 38.5118 55.8286 39.6843 55.513C 41.1274 55.1071 43.0665 53.7993 45.4115 51.6347C 48.0271 49.2897 50.4622 46.4938 52.7621 43.292C 58.805 34.8591 61.8264 26.4713 61.8264 18.1285C 61.8264 6.04284 59.3461 1.72027e-07 54.3856 1.72027e-07Z"/>
<path id="path41_fill" d="M 0.0162645 10.4622C -0.0288314 13.0778 0.0162651 15.9639 0.196648 19.1206C 0.196648 30.6201 2.81221 39.549 7.99823 45.9076C 12.598 51.5896 18.7761 54.6561 26.5326 55.1973C 23.4661 34.4983 15.2136 16.0992 1.775 5.37584e-09C 0.737799 2.48027 0.151552 5.95265 0.0162645 10.4622ZM 45.1572 40.5863C 50.253 29.7633 52.6431 16.3247 52.3725 0.270575C 39.0242 16.2796 30.8167 34.6336 27.7051 55.2424C 27.66 55.6483 27.5698 56.0992 27.5247 56.5502C 30.0501 56.1894 32.3951 55.3326 34.6048 53.9797C 38.6634 51.3642 42.1809 46.8997 45.1572 40.5863Z"/>
<path id="path42_fill" d="M 10.1898 0.135288C 10.1447 0.0901917 10.0996 0.0450958 10.0545 0C -0.858652 17.407 -2.88796 35.5806 3.9666 54.6111C 7.34879 64.0361 17.811 68.23 35.2631 67.1928L 35.2631 56.956C 35.2631 56.9109 35.2631 56.8208 35.2631 56.7757C 35.1729 56.2796 35.0827 55.8286 35.0376 55.3777C 27.2811 54.8365 21.103 51.7249 16.5032 46.0879C 11.227 39.6843 8.61147 30.7554 8.61147 19.2559C 8.43109 16.0541 8.3409 13.168 8.43109 10.5975C 8.56638 6.08794 9.15262 2.61556 10.1898 0.135288ZM 61.0579 0.0450958C 60.9677 0.180383 60.8775 0.315671 60.7873 0.405862C 61.0579 16.4149 58.6678 29.8534 53.572 40.7215C 50.5957 47.035 47.0782 51.4994 42.9745 54.115C 40.7648 55.4679 38.4198 56.3247 35.8945 56.6855C 35.8494 56.7757 35.8494 56.8658 35.8494 56.956L 35.8494 67.1928C 53.3014 68.23 63.7186 64.0361 67.1459 54.6111C 74.0004 35.6257 71.9711 17.4521 61.0579 0.0450958Z"/>
<path id="path43_fill" d="M 3.96843 1.44307C 3.02142 0.496054 1.84893 1.37622e-06 0.496055 1.37622e-06C 0.315672 1.37622e-06 0.180385 -2.75176e-06 1.37622e-06 0.0450931C 0.0450972 0.270572 0.135289 0.496051 0.225481 0.721531C 1.03721 2.97632 2.57046 4.78016 4.87035 6.17813C 5.00564 6.22323 5.14093 6.31342 5.23112 6.40361C 5.27621 6.22323 5.27621 6.08794 5.32131 5.95265C 5.3664 5.63698 5.4115 5.32131 5.4115 4.96054C 5.4566 3.60767 4.96054 2.43517 3.96843 1.44307ZM 36.212 0.180382C 35.761 0.0450944 35.31 1.37622e-06 34.7689 1.37622e-06C 33.416 1.37622e-06 32.2435 0.496054 31.2514 1.44307C 30.3044 2.43517 29.8083 3.60767 29.8083 4.96054C 29.8083 5.68208 29.9436 6.31342 30.1691 6.85457C 30.5299 6.67418 30.8455 6.4938 31.1612 6.26832C 33.7317 4.73506 35.4002 2.70575 36.212 0.180382Z"/>
<path id="path44_fill" d="M 35.2198 15.6032C 35.7159 15.6032 36.212 15.6483 36.6629 15.7835C 37.0237 14.6561 37.2041 13.3935 37.2041 12.0857C 37.2041 7.80158 35.31 4.68997 31.5671 2.84104C 27.8241 0.947013 23.3596 -1.37622e-06 18.2187 -1.37622e-06C 13.0778 -1.37622e-06 8.74859 0.947013 5.23112 2.84104C 1.71364 4.73506 1.37622e-06 7.80158 1.37622e-06 12.0857C 1.37622e-06 13.3484 0.180384 14.566 0.496055 15.6483C 0.676438 15.6032 0.811725 15.6032 0.992108 15.6032C 2.34498 15.6032 3.51747 16.0992 4.46449 17.0462C 5.45659 18.0383 5.95265 19.2108 5.95265 20.5637C 5.95265 20.9245 5.90756 21.2401 5.86246 21.5558C 5.81736 21.6911 5.81736 21.8264 5.77227 22.0068C 5.90755 22.0519 6.04284 22.1421 6.13303 22.2322C 9.51522 24.0812 13.6189 25.0282 18.4442 25.1635C 23.1342 25.2537 27.2379 24.3518 30.7103 22.5028C 30.4397 21.9166 30.3495 21.2852 30.3495 20.6088C 30.3495 19.2559 30.8456 18.0834 31.7926 17.0913C 32.6945 16.0992 33.867 15.6032 35.2198 15.6032Z"/>
<path id="path45_fill" d="M 6.76438 17.3619C 6.76438 17.2717 6.76438 17.1815 6.76438 17.1364C 6.76438 12.5817 6.4938 9.10936 5.90755 6.67418C 5.14092 3.38219 3.83314 1.71364 1.93912 1.71364C 1.17249 1.71364 0.631342 2.1195 0.270575 2.93123C 0.0901917 3.33709 6.88108e-07 3.78805 6.88108e-07 4.23901C 6.88108e-07 4.73506 1.03721 6.76437 3.11161 10.372C 5.00564 13.6189 6.04284 15.9639 6.22322 17.4521C 6.40361 17.3619 6.58399 17.3168 6.76438 17.3619ZM 34.1826 6.88108e-07C 32.965 6.88108e-07 31.7475 1.89402 30.6652 5.63698C 29.5829 9.33484 28.9515 13.5287 28.726 18.1736L 28.7711 18.1736C 28.9515 18.2187 29.0417 18.2187 29.0868 18.2187L 29.177 18.1285C 29.2672 17.6325 29.3574 17.2717 29.4025 16.956C 29.5378 16.46 29.8534 15.5581 30.3946 14.2503C 30.6652 13.6189 31.1612 12.7621 31.9278 11.7249C 32.6494 10.7328 33.1454 10.1015 33.5513 9.7858C 34.5885 8.88388 35.31 8.02706 35.761 7.26043C 36.3472 6.22323 36.6178 5.09583 36.6178 3.83314C 36.6178 2.70575 36.3923 1.80383 35.9414 1.1274C 35.4904 0.360767 34.9042 6.88108e-07 34.1826 6.88108e-07Z"/>
<path id="path46_fill" d="M 6.58399 1.35288C 6.58399 1.48816 6.58399 1.57835 6.62909 1.66855C 5.59188 2.2097 4.41939 2.2097 3.06652 1.66855C 3.11161 1.57835 3.11161 1.44307 3.11161 1.35288C 3.11161 0.99211 2.93123 0.541151 2.61556 1.37622e-06C 2.61556 0.766631 2.34498 1.39797 1.84893 1.84893C 1.35287 2.25479 0.811725 2.48027 0.225479 2.48027L 0 2.48027C 0.135288 2.61556 0.315672 2.70575 0.586247 2.79594C 0.856822 2.93123 1.1274 2.97632 1.30778 2.97632C 1.62345 2.97632 1.98422 2.84104 2.34498 2.61556C 2.43517 2.57047 2.52537 2.48027 2.61556 2.43517C 4.28411 3.2018 5.81736 3.2018 7.12514 2.43517C 7.17024 2.48027 7.26043 2.57047 7.30552 2.61556C 7.66629 2.88614 8.02706 2.97632 8.34273 2.97632C 8.52311 2.97632 8.74859 2.93123 9.06426 2.79594C 9.33484 2.70575 9.51522 2.57046 9.60541 2.48027L 9.47013 2.48027C 8.88388 2.48027 8.34273 2.25479 7.84668 1.84893C 7.80158 1.80383 7.75648 1.75874 7.71139 1.66855C 7.30552 1.21759 7.08004 0.676439 7.08004 1.37622e-06C 6.76437 0.541151 6.58399 0.947014 6.58399 1.35288Z"/>
<path id="path47_fill" d="M 1.80383 1.80609C 0.586246 3.02368 0 4.51184 0 6.22548C 0 7.93912 0.586246 9.42729 1.80383 10.5998C 3.02142 11.8174 4.50958 12.4487 6.22323 12.4487C 7.93687 12.4487 9.42503 11.8174 10.5975 10.5998C 11.8151 9.38219 12.4464 7.93912 12.4464 6.22548C 12.4464 4.51184 11.8151 3.02368 10.5975 1.80609C 9.37993 0.588507 7.93687 0.0022609 6.22323 0.0022609C 4.50958 -0.0428349 3.02142 0.588507 1.80383 1.80609ZM 6.22323 3.33935C 7.03495 3.33935 7.71139 3.60993 8.25254 4.15108C 8.83878 4.73732 9.10936 5.41376 9.10936 6.18039C 9.10936 6.99211 8.83878 7.66855 8.25254 8.2097C 7.66629 8.79595 6.98986 9.06652 6.22323 9.06652C 5.4115 9.06652 4.73506 8.79595 4.19391 8.2097C 3.65276 7.62346 3.38219 6.94702 3.38219 6.18039C 3.38219 5.36866 3.65276 4.69223 4.19391 4.15108C 4.78016 3.60993 5.4566 3.33935 6.22323 3.33935ZM 20.4284 10.5998C 21.646 11.8174 23.1342 12.4487 24.8478 12.4487C 26.5614 12.4487 28.0496 11.8174 29.2221 10.5998C 30.4397 9.38219 31.071 7.93912 31.071 6.22548C 31.071 4.51184 30.4397 3.02368 29.2221 1.80609C 28.0045 0.588507 26.5614 0.0022609 24.8478 0.0022609C 23.1342 0.0022609 21.646 0.588507 20.4284 1.80609C 19.2108 3.02368 18.6246 4.51184 18.6246 6.22548C 18.6246 7.93912 19.2559 9.38219 20.4284 10.5998ZM 24.8929 3.33935C 25.7046 3.33935 26.3811 3.60993 26.9222 4.15108C 27.5085 4.73732 27.779 5.41376 27.779 6.18039C 27.779 6.99211 27.5085 7.66855 26.9222 8.2097C 26.336 8.79595 25.6595 9.06652 24.8929 9.06652C 24.0812 9.06652 23.4047 8.79595 22.8636 8.2097C 22.3224 7.62346 22.0519 6.94702 22.0519 6.18039C 22.0519 5.36866 22.3224 4.69223 22.8636 4.15108C 23.4047 3.60993 24.0812 3.33935 24.8929 3.33935Z"/>
<path id="path48_fill" d="M 4.87035 0.811726C 4.2841 0.270576 3.60767 0 2.84104 0C 2.02931 0 1.35288 0.270576 0.811726 0.811726C 0.270576 1.39797 -6.88108e-07 2.07441 -6.88108e-07 2.84104C -6.88108e-07 3.65276 0.270576 4.3292 0.811726 4.87035C 1.39797 5.4566 2.07441 5.72717 2.84104 5.72717C 3.65276 5.72717 4.3292 5.4566 4.87035 4.87035C 5.4566 4.28411 5.72717 3.60767 5.72717 2.84104C 5.72717 2.07441 5.4115 1.39797 4.87035 0.811726ZM 23.4949 0.811726C 22.9087 0.270576 22.2322 0 21.4656 0C 20.6539 0 19.9775 0.270576 19.4363 0.811726C 18.8952 1.39797 18.6246 2.07441 18.6246 2.84104C 18.6246 3.65276 18.8952 4.3292 19.4363 4.87035C 20.0225 5.4566 20.699 5.72717 21.4656 5.72717C 22.2773 5.72717 22.9538 5.4566 23.4949 4.87035C 24.0812 4.28411 24.3518 3.60767 24.3518 2.84104C 24.3518 2.07441 24.0812 1.39797 23.4949 0.811726Z"/>
<path id="path49_fill" d="M 27.3281 0.377872C 25.2988 -0.433853 24.3517 0.0622026 24.5321 1.86604C 24.6223 3.17382 25.0282 4.66198 25.6595 6.28543C 26.3811 7.95397 26.3811 9.8029 25.7497 11.8773C 25.1635 13.9066 24.0812 15.5752 22.5479 16.928C 22.5479 18.1456 22.8185 19.0475 23.3145 19.4985C 23.7204 19.8593 24.3517 20.0848 25.2086 20.0848C 25.2537 20.0848 25.5242 20.0397 25.9301 19.9946C 25.0733 21.9788 23.5851 24.1885 21.4656 26.6237C 20.2931 27.9765 19.301 29.149 18.5344 30.1411C 23.5851 29.1039 27.3732 27.3452 29.8985 24.9551C 33.0102 21.9788 34.5885 17.6947 34.5885 12.0577C 34.5885 11.8773 34.5885 11.742 34.5885 11.6067C 33.8219 6.10504 31.3867 2.36209 27.3281 0.377872ZM 10.0564 1.86604C 10.2368 0.0622026 9.28974 -0.433853 7.26043 0.377872C 3.20181 2.36209 0.766631 6.10504 1.37622e-06 11.6518C 1.37622e-06 11.7871 1.37622e-06 11.9224 1.37622e-06 12.1028C 1.37622e-06 17.7398 1.57835 22.0239 4.68996 25.0002C 7.21533 27.4354 11.0034 29.149 16.0541 30.1862C 15.2875 29.149 14.3405 27.9765 13.1229 26.6687C 11.0034 24.2336 9.51522 22.0239 8.6584 20.0397C 9.06426 20.0848 9.28974 20.1298 9.37993 20.1298C 10.2368 20.1298 10.8681 19.9495 11.274 19.5436C 11.77 19.0475 12.0406 18.1907 12.0406 16.9731C 10.5073 15.6203 9.47013 13.9517 8.83878 11.9224C 8.20744 9.848 8.25254 7.99907 8.92897 6.33052C 9.60541 4.61688 9.96618 3.17382 10.0564 1.86604Z"/>
</defs>
</svg>
