<svg width="540" height="180" viewBox="0 0 540 180" version="1.1" xmlns="http://www.w3.org/2000/svg" xmlns:xlink="http://www.w3.org/1999/xlink">
<title>Frame 4</title>
<desc>Created using Figma</desc>
<g id="Canvas" transform="translate(-5794 -5575)">
<clipPath id="clip-0" clip-rule="evenodd">
<path d="M 5794 5575L 6334 5575L 6334 5755L 5794 5755L 5794 5575Z" fill="#FFFFFF"/>
</clipPath>
<g id="Frame 4" clip-path="url(#clip-0)">
<g id="Group">
<g id="Vector">
<use xlink:href="#path0_fill" transform="translate(5825.92 5581.1)" fill="#E0E894"/>
</g>
<g id="Vector">
<use xlink:href="#path1_fill" transform="translate(5838.19 5590.4)" fill="#8A9E3E"/>
</g>
<g id="Vector">
<use xlink:href="#path2_fill" transform="translate(5826.53 5579.2)" fill="#98AC4F"/>
</g>
<g id="Vector">
<use xlink:href="#path3_fill" transform="translate(5918.05 5737.38)" fill="#7F6343"/>
</g>
<g id="Vector">
<use xlink:href="#path4_fill" transform="translate(5835.63 5598.96)" fill="#A4B570"/>
</g>
<g id="Vector">
<use xlink:href="#path5_fill" transform="translate(5845.86 5634.99)" fill="#B7935B"/>
</g>
<g id="Vector">
<use xlink:href="#path6_fill" transform="translate(5851.99 5631.4)" fill="#B7935B"/>
</g>
<g id="Vector">
<use xlink:href="#path7_fill" transform="translate(5851.17 5634.25)" fill="#A2814D"/>
</g>
</g>
<g id="Vector">
<use xlink:href="#path8_fill" transform="translate(6006 5608.17)" fill="#98AC4F"/>
</g>
<g id="Vector">
<use xlink:href="#path9_fill" transform="translate(6023.01 5616.61)" fill="#8A9E3E"/>
</g>
<g id="Vector">
<use xlink:href="#path10_fill" transform="translate(6027.33 5626.4)" fill="#93552A"/>
</g>
<g id="Vector">
<use xlink:href="#path11_fill" transform="translate(6025.97 5601.6)" fill="#93552A"/>
</g>
<g id="Vector">
<use xlink:href="#path12_fill" transform="translate(6066.93 5696.22)" fill="#B0692F"/>
</g>
<g id="Vector">
<use xlink:href="#path13_fill" transform="translate(6058.17 5673.9)" fill="#D59B36"/>
</g>
<g id="Vector">
<use xlink:href="#path14_fill" transform="translate(6023.61 5625.78)" fill="#B0692F"/>
</g>
<g id="Group">
<g id="Group">
<g id="Layer2 0 FILL 1">
<g id="Vector">
<use xlink:href="#path15_fill" transform="translate(6016.29 5616.48)" fill="#8AA142"/>
</g>
</g>
</g>
</g>
<g id="Group">
<g id="Group">
<g id="Group">
<g id="Group">
<g id="Vector">
<use xlink:href="#path16_fill" transform="translate(6217.88 5600.01)" fill="#CC5C94"/>
</g>
<g id="Vector">
<use xlink:href="#path17_fill" transform="translate(6177.07 5635.85)" fill="#CC5C94"/>
</g>
<g id="Vector">
<use xlink:href="#path18_fill" transform="translate(6256.25 5622.96)" fill="#CC5C94"/>
</g>
<g id="Vector">
<use xlink:href="#path19_fill" transform="translate(6243.11 5666.87)" fill="#CC5C94"/>
</g>
<g id="Vector">
<use xlink:href="#path20_fill" transform="translate(6195.81 5677.45)" fill="#CC5C94"/>
</g>
<g id="Vector">
<use xlink:href="#path21_fill" transform="translate(6238.07 5658.97)" fill="#E0C0E5"/>
</g>
<g id="Vector">
<use xlink:href="#path22_fill" transform="translate(6215.81 5646.14)" fill="#E58CBD"/>
</g>
<g id="Vector">
<use xlink:href="#path23_fill" transform="translate(6243.8 5667.03)" fill="#E58CBD"/>
</g>
<g id="Vector">
<use xlink:href="#path24_fill" transform="translate(6216.53 5676.98)" fill="#E58CBD"/>
</g>
<g id="Vector">
<use xlink:href="#path25_fill" transform="translate(6227.53 5637.42)" fill="#E58CBD"/>
</g>
<g id="Vector">
<use xlink:href="#path26_fill" transform="translate(6253.35 5644.99)" fill="#E58CBD"/>
</g>
</g>
<g id="Vector">
<use xlink:href="#path27_fill" transform="translate(6263.51 5618.34)" fill="#AD4B81"/>
</g>
<g id="Vector">
<use xlink:href="#path28_fill" transform="translate(6256.41 5711.45)" fill="#CC5C94"/>
</g>
<g id="Vector">
<use xlink:href="#path29_fill" transform="translate(6225.71 5695.41)" fill="#CC5C94"/>
</g>
<g id="Vector">
<use xlink:href="#path30_fill" transform="translate(6267.41 5683.56)" fill="#CC5C94"/>
</g>
<g id="Vector">
<use xlink:href="#path31_fill" transform="translate(6218.44 5688.44)" fill="#CC5C94"/>
</g>
<g id="Vector">
<use xlink:href="#path32_fill" transform="translate(6209.94 5654.39)" fill="#CC5C94"/>
</g>
<g id="Vector">
<use xlink:href="#path33_fill" transform="translate(6242.2 5632.62)" fill="#CC5C94"/>
</g>
<g id="Vector">
<use xlink:href="#path34_fill" transform="translate(6260.07 5645.22)" fill="#CC5C94"/>
</g>
<g id="Vector">
<use xlink:href="#path35_fill" transform="matrix(0.9702 -0.2421 0.2421 0.9702 6225.68 5660.73)" fill="#CEBA63"/>
</g>
<g id="Vector">
<use xlink:href="#path36_fill" transform="matrix(0.9702 -0.2421 0.2421 0.9702 6237.35 5667.74)" fill="#BA9E27"/>
</g>
<g id="Group">
<g id="Vector">
<use xlink:href="#path37_fill" transform="translate(6239.17 5665.64)" fill="#EFD97F"/>
</g>
</g>
<g id="Vector">
<use xlink:href="#path38_fill" transform="translate(6259.62 5691.74)" fill="#AD4B81"/>
</g>
<g id="Vector">
<use xlink:href="#path39_fill" transform="translate(6219.51 5595)" fill="#AD4B81"/>
</g>
<g id="Vector">
<use xlink:href="#path40_fill" transform="matrix(0.9702 -0.2421 0.2421 0.9702 6234.96 5664.74)" fill="#9E8E4A"/>
</g>
<g id="Vector">
<use xlink:href="#path41_fill" transform="matrix(0.9702 -0.2421 0.2421 0.9702 6231.96 5667.25)" fill="#9E8E4A"/>
</g>
<g id="Vector">
<use xlink:href="#path42_fill" transform="matrix(0.9702 -0.2421 0.2421 0.9702 6246.57 5661.73)" fill="#9E8E4A"/>
</g>
<g id="Vector">
<use xlink:href="#path43_fill" transform="matrix(0.9702 -0.2421 0.2421 0.9702 6233.06 5672.96)" fill="#9E8E4A"/>
</g>
<g id="Vector">
<use xlink:href="#path44_fill" transform="matrix(0.9702 -0.2421 0.2421 0.9702 6257.8 5665.89)" fill="#9E8E4A"/>
</g>
<g id="Vector">
<use xlink:href="#path45_fill" transform="matrix(0.9702 -0.2421 0.2421 0.9702 6255.57 5669.75)" fill="#9E8E4A"/>
</g>
<g id="Vector">
<use xlink:href="#path46_fill" transform="matrix(0.9702 -0.2421 0.2421 0.9702 6258.5 5675.25)" fill="#9E8E4A"/>
</g>
<g id="Vector">
<use xlink:href="#path47_fill" transform="matrix(0.9702 -0.2421 0.2421 0.9702 6252.34 5681.9)" fill="#9E8E4A"/>
</g>
<g id="Vector">
<use xlink:href="#path48_fill" transform="matrix(0.9702 -0.2421 0.2421 0.9702 6242.89 5660.58)" fill="#9E8E4A"/>
</g>
<g id="Vector">
<use xlink:href="#path49_fill" transform="matrix(0.9702 -0.2421 0.2421 0.9702 6251.43 5661.33)" fill="#9E8E4A"/>
</g>
<g id="Vector">
<use xlink:href="#path50_fill" transform="matrix(0.9702 -0.2421 0.2421 0.9702 6246.16 5683.32)" fill="#9E8E4A"/>
</g>
<g id="Vector">
<use xlink:href="#path51_fill" transform="matrix(0.9702 -0.2421 0.2421 0.9702 6238.15 5683.52)" fill="#9E8E4A"/>
</g>
<g id="Vector">
<use xlink:href="#path52_fill" transform="matrix(0.9702 -0.2421 0.2421 0.9702 6236.28 5676.2)" fill="#9E8E4A"/>
</g>
<g id="Vector">
<use xlink:href="#path53_fill" transform="translate(6176.05 5635.32)" fill="#AD4B81"/>
</g>
<g id="Vector">
<use xlink:href="#path54_fill" transform="translate(6214.7 5640.64)" fill="#AD4B81"/>
</g>
<g id="Vector">
<use xlink:href="#path55_fill" transform="translate(6215.39 5641.09)" fill="#AD4B81"/>
</g>
<g id="Vector">
<use xlink:href="#path56_fill" transform="translate(6214.93 5640.87)" fill="#AD4B81"/>
</g>
</g>
</g>
</g>
</g>
</g>
<defs>
<path id="path0_fill" d="M 98.2626 93.3029C 98.3649 94.2539 98.4671 95.2049 98.5694 96.2615C 98.5694 97.5295 98.4671 98.9032 98.3649 100.277C 98.2626 101.017 98.1604 101.65 98.0581 102.284C 97.9559 102.813 97.8536 103.341 97.7514 103.764C 98.8761 102.813 100.205 101.756 101.432 100.805C 101.841 100.488 102.148 100.171 102.557 99.8542C 103.273 99.3259 103.886 98.7975 104.602 98.1635C 108.181 95.3105 112.066 92.0349 116.361 88.6536C 113.089 89.3933 109.919 90.2386 107.056 90.8726C 104.704 91.5066 102.455 92.0349 100.41 92.5632C 99.6941 92.7746 98.9784 92.9859 98.2626 93.3029ZM 78.835 69.2111C 78.6305 69.4224 78.3238 69.6338 78.017 69.9508C 78.2215 69.9508 78.426 70.0564 78.5283 70.0564C 83.3341 71.4301 87.7308 72.9094 91.4118 74.7057C 91.9231 74.6001 92.4343 74.6001 92.9456 74.6001C 91.1051 73.0151 89.0601 71.1131 86.8106 68.8941C 85.0723 67.2034 83.6408 65.7241 82.4138 64.4561C 81.2891 66.3581 80.062 67.9431 78.835 69.2111ZM 52.2499 18.5972C 52.3522 18.2802 52.3522 17.9632 52.4544 17.6462C 52.6589 16.6952 52.9657 15.7442 53.1702 14.8989C 53.1702 14.5819 53.2724 14.2649 53.3747 14.0536C 53.9882 11.9402 54.4995 9.93259 54.9085 8.13627C 55.6242 4.96629 56.2377 2.21898 56.6467 -5.03854e-08C 55.6242 1.69065 54.0905 3.80397 52.2499 6.23428C 51.8409 6.76261 51.4319 7.29094 51.0229 7.7136C 47.3419 12.3629 44.7857 15.6385 43.2519 17.7519C 44.0699 18.8085 45.2969 20.0765 46.7284 21.7672C 47.7509 22.9295 48.9779 24.3031 50.4094 25.8881C 51.0229 23.5635 51.6364 21.1332 52.2499 18.5972ZM 37.9349 137.154C 38.3439 138 38.6506 138.739 39.0596 139.585C 39.7754 140.958 40.4911 142.332 41.2069 143.705C 43.4564 144.128 45.5014 144.551 47.4442 144.973C 48.2622 145.185 49.0802 145.396 49.8982 145.502C 51.8409 146.03 53.6815 146.453 55.4197 146.981C 57.0557 146.241 59.612 146.241 63.0885 146.664C 63.4975 146.664 64.52 146.875 66.3605 147.298C 66.3605 147.298 66.4627 147.298 66.565 147.298C 66.4627 147.298 66.4627 147.298 66.4627 147.192C 64.929 145.819 63.5997 144.656 62.6795 143.811C 62.5772 143.811 62.475 143.811 62.475 143.811C 57.7715 144.445 55.3175 144.762 54.9085 144.656C 55.0107 143.811 55.0107 142.966 54.9085 142.121C 54.8062 141.698 54.8062 141.17 54.704 140.747C 54.3972 139.69 53.9882 138.634 53.4769 137.683C 53.3747 137.577 53.3747 137.471 53.2724 137.366C 52.7612 136.626 51.9432 135.992 50.7162 135.464C 48.6712 134.618 45.5014 134.09 41.3092 133.773C 39.7754 133.667 38.1394 133.667 36.4011 133.667C 36.4011 133.773 36.4011 133.773 36.4011 133.879C 36.5034 134.196 36.7079 134.513 36.8101 134.724C 37.2191 135.781 37.5259 136.415 37.9349 137.154ZM 29.2436 134.301C 28.7324 134.301 28.3234 134.301 27.8121 134.407C 25.8693 134.513 23.9266 134.724 22.1883 134.83C 22.2906 135.041 22.3928 135.252 22.4951 135.464C 23.1086 136.837 23.8243 138.317 24.6423 139.902C 24.8468 140.324 25.0513 140.641 25.2558 141.17C 26.3806 141.275 27.6076 141.487 28.7324 141.698C 30.1639 141.909 31.5954 142.12 32.9246 142.332C 33.0269 142.332 33.1291 142.332 33.3336 142.438C 33.2314 142.332 33.2314 142.226 33.1291 142.121C 33.1291 142.121 33.1291 142.015 33.0269 142.015C 32.6179 141.275 32.2089 140.536 31.7999 139.796C 31.6976 139.585 31.5954 139.479 31.4931 139.268C 30.6751 137.366 29.8571 135.675 29.2436 134.301ZM 90.5938 95.6276C 90.6961 96.2616 90.6961 96.8955 90.7983 97.4239C 91.0028 99.6429 91.0028 101.862 90.9006 104.292C 90.9006 104.398 90.9006 104.609 90.9006 104.715C 90.6961 106.3 90.5938 107.779 90.4916 109.047C 90.4916 109.258 90.3893 109.47 90.3893 109.681C 90.6961 109.47 90.9006 109.258 91.2073 109.047C 92.1276 108.202 93.1501 107.356 94.2748 106.511C 94.3771 105.454 94.4794 104.398 94.4794 103.447C 94.5816 100.594 94.5816 98.1635 94.3771 95.9445C 94.3771 95.4162 94.2748 94.7822 94.1726 94.2539C 92.9456 94.7822 91.7186 95.2049 90.5938 95.6276ZM 69.428 125.425L 69.428 128.595C 70.7573 127.327 72.291 125.848 74.0293 124.052C 74.6428 123.418 75.154 122.889 75.6653 122.361C 75.972 121.938 77.4035 120.776 79.8575 118.663C 81.0845 117.606 82.7206 116.232 84.6633 114.647C 84.6633 112.534 84.5611 109.998 84.3566 106.828C 84.2543 105.666 84.2543 104.503 84.1521 103.235C 84.1521 103.024 84.1521 102.707 84.1521 102.39C 84.0498 101.017 83.9476 99.6429 83.8453 98.4805C 83.3341 98.6919 82.9251 98.9032 82.5161 99.2202C 78.3238 102.073 75.563 106.194 74.4383 111.583C 74.336 111.9 74.336 112.217 74.336 112.534C 73.6203 116.338 73.7225 119.085 74.8473 120.882C 72.4955 123.629 71.1663 125.108 70.7573 125.425C 70.655 125.531 70.3483 125.531 69.7348 125.531C 69.6325 125.32 69.5303 125.32 69.428 125.425ZM 60.9412 116.232C 60.5322 116.866 60.2255 117.395 60.021 117.923C 60.1232 118.029 60.1232 118.134 60.2255 118.24C 60.839 118.98 61.3502 119.508 61.9637 120.036L 64.0087 123.312C 64.2132 123.84 64.52 124.369 64.7245 124.791C 64.929 125.32 65.2357 125.848 65.4402 126.376L 65.6447 123.312L 62.7817 118.98C 62.884 118.874 63.0885 118.663 63.293 118.557C 63.8042 117.923 64.111 117.289 64.3155 116.655L 64.3155 116.549C 64.4177 115.493 64.0087 114.225 63.0885 112.745C 62.3727 113.908 61.7592 114.964 61.248 116.021C 60.9412 116.021 60.9412 116.127 60.9412 116.232ZM 56.1355 110.738C 56.1355 110.843 56.2377 111.055 56.34 111.266C 56.6467 111.9 56.8512 112.534 57.158 113.168C 57.3625 113.485 57.4647 113.908 57.6692 114.225C 57.7715 114.013 57.8737 113.696 58.0782 113.379C 58.5895 112.323 59.4075 110.843 60.3277 109.153C 59.8165 108.519 59.203 107.885 58.5895 107.251C 58.4872 107.145 58.385 107.039 58.1805 106.828C 57.976 107.145 57.7715 107.462 57.567 107.885C 57.0557 109.047 56.5445 109.998 56.1355 110.738ZM 56.6467 105.349C 56.4422 105.137 56.1355 104.82 55.931 104.609C 55.0107 103.764 53.886 102.707 52.5567 101.439C 53.1702 103.341 54.0905 105.666 55.3175 108.73C 55.4197 108.519 55.522 108.202 55.6242 107.99C 55.8287 107.145 56.1355 106.3 56.6467 105.349ZM 36.5034 86.646C 36.0944 86.012 35.7876 85.4836 35.3786 84.8496C 34.5606 85.4836 33.7426 86.329 32.8224 87.0686C 31.7999 88.0196 30.7774 88.9706 29.8571 89.8159C 29.1414 90.4499 28.5279 91.1896 27.9144 91.8236C 27.3009 92.5632 26.6874 93.1972 26.1761 93.8312C 26.1761 93.9369 26.1761 93.9369 26.1761 93.9369C 26.2783 94.9936 26.4828 95.9445 26.5851 96.8955C 26.6873 97.2125 26.7896 97.8465 26.9941 98.9032C 27.3009 100.277 27.7099 101.862 28.2211 103.658C 28.1189 103.975 28.0166 104.398 27.9144 105.032L 32.4134 107.462C 32.1066 107.145 31.9021 106.934 31.5954 106.617L 30.3684 105.243L 28.0166 96.7899C 29.0391 97.4239 29.8571 97.8465 30.6751 97.9522C 31.1864 98.0579 31.6976 98.0579 32.2089 97.9522C 32.6179 97.9522 33.0269 97.8465 33.4359 97.6352C 33.5381 97.6352 33.6404 97.6352 33.7426 97.5295C 34.3561 97.3182 35.0719 97.0012 35.6854 96.5785C 39.1619 94.4652 39.3664 91.0839 36.5034 86.646ZM 70.9618 66.5695C 70.5528 67.0978 70.1438 67.6261 69.7348 68.1544C 71.064 68.3658 72.3933 68.6828 73.6203 68.8941C 73.7225 68.7884 73.927 68.5771 74.0293 68.3658C 75.3585 66.8865 76.6878 64.8788 78.1193 62.4485C 78.3238 62.0258 78.6305 61.6032 78.835 61.1805C 78.5283 60.9692 78.2215 60.6522 78.017 60.5465C 77.3013 60.0182 76.5855 59.4898 75.8698 59.0672C 74.9495 60.6522 73.927 62.4485 72.5978 64.2448C 72.0865 65.0901 71.473 65.8298 70.9618 66.5695ZM 0 138.317C 0.204501 138.317 0.409002 138.317 0.613502 138.422C 6.95303 138.951 12.8835 139.585 18.4051 140.219C 19.2231 140.324 20.0411 140.43 20.8591 140.536C 21.2681 140.641 21.7793 140.641 22.1883 140.747C 22.0861 140.536 21.8816 140.324 21.8816 140.113C 20.7568 137.894 19.8366 136.309 19.4276 135.147C 18.8141 135.147 18.3028 135.252 17.6893 135.252C 10.3273 135.886 4.49902 136.943 0 138.317ZM 45.7059 65.7241L 44.4789 64.6675L 44.0699 67.6261C 44.7857 67.5204 45.9104 67.5204 47.4442 67.5204C 48.5689 67.5204 50.1027 67.5204 51.8409 67.6261C 53.3747 67.4148 54.9085 67.3091 56.5445 67.2035C 58.5895 67.2035 60.7367 67.2035 62.9862 67.3091C 63.1907 67.3091 63.293 67.4148 63.4975 67.4148C 63.702 66.7808 64.0087 66.1468 64.3155 65.4071C 64.6222 64.5618 65.0312 63.6108 65.5425 62.5542C 66.2582 60.8635 67.1785 58.7502 68.201 56.5312C 66.156 56.4255 64.111 56.8482 62.066 57.6935C 61.1457 58.1162 60.2255 58.6445 59.203 59.2785C 57.6692 60.3352 56.5445 61.1805 55.8287 61.9202C 55.522 62.3428 55.113 63.0825 54.6017 64.3505C 54.0905 65.5128 53.886 66.0411 53.7837 66.0411C 51.1252 65.8298 48.3644 65.7241 45.7059 65.7241ZM 18.9163 48.0779C 18.9163 48.1836 18.9163 48.2893 19.0186 48.3949C 19.4276 50.1913 19.8366 51.7762 20.2456 53.2556C 20.4501 53.9952 20.7568 54.6292 20.9613 55.3689C 21.0636 55.4745 21.2681 55.4745 21.3703 55.4745C 21.8816 55.6859 22.3928 55.8972 22.6996 56.1085C 23.0063 56.2142 23.3131 56.3199 23.5176 56.5312C 23.9266 56.7425 24.3356 56.9539 24.7446 57.0595C 24.8468 56.5312 24.9491 56.1085 24.9491 55.5802C 24.9491 55.4745 24.9491 55.2632 24.9491 55.1576C 24.9491 53.8896 24.7446 52.7272 24.3356 51.4592C 24.2333 51.1423 24.0288 50.8253 23.9266 50.4026C 23.8243 50.2969 23.8243 50.0856 23.7221 49.9799C 23.5176 49.7686 23.4153 49.4516 23.2108 49.1346C 22.6996 48.2893 22.0861 47.6553 21.4726 47.127C 20.6546 46.493 19.8366 46.0703 18.9163 45.859C 18.7118 45.859 18.6096 45.859 18.5073 45.7533C 18.6096 46.5986 18.7118 47.3383 18.9163 48.0779ZM 14.8263 46.176C 14.0083 46.2816 12.9858 46.493 11.9633 46.7043C 12.27 47.6553 12.679 48.7119 13.1903 50.0856C 13.4971 50.8253 13.8038 51.7762 14.1106 52.6216C 15.2353 53.0442 16.2578 53.3612 17.1781 53.6782C 16.9736 53.1499 16.7691 52.5159 16.5646 51.7762C 16.2578 50.8253 15.9511 49.9799 15.7466 49.1346C 15.3376 48.1836 15.1331 47.1269 14.8263 46.176ZM 40.1844 22.6125C 40.9002 23.3521 41.7182 24.1975 42.6384 25.2541C 43.1497 25.7825 43.7632 26.3108 44.3767 26.9448C 46.2172 28.7411 47.7509 30.3261 48.9779 31.4884C 49.1824 30.5374 49.3869 29.6921 49.5914 28.7411C 48.6712 27.7901 47.6487 26.6278 46.4217 25.1485C 45.9104 24.5145 45.2969 23.8805 44.8879 23.2465C 43.6609 21.7672 42.7407 20.4992 42.1272 19.5482C 41.4114 20.6048 40.7979 21.6615 40.1844 22.6125ZM 39.0596 28.5298C 38.6506 28.1071 38.3439 27.6844 37.9349 27.2618C 37.3214 28.5298 36.9124 29.7978 36.7079 31.0657C 35.6854 35.5037 36.0944 39.3077 38.1394 42.5833C 39.3664 44.4853 40.7979 46.176 42.4339 47.6553C 42.4339 47.7609 42.5362 47.7609 42.6384 47.8666C 43.4564 48.6063 44.1722 49.2403 44.9902 49.9799C 45.1947 48.6063 45.5014 47.0213 45.9104 45.3306C 46.3194 43.1116 46.9329 40.6813 47.5464 37.8284C 46.9329 37.1944 46.2172 36.4547 45.3992 35.6094C 44.8879 35.081 44.3767 34.4471 43.7632 33.9187C 43.1497 33.1791 41.6159 31.3827 39.0596 28.5298ZM 25.0513 87.4913C 25.1536 87.9139 25.2558 88.3366 25.3581 88.7593C 25.4603 88.5479 25.6648 88.3366 25.8693 88.1253C 25.9716 88.0196 26.0738 87.9139 26.1761 87.8083C 26.6874 87.28 27.1986 86.7516 27.8121 86.1176C 28.6301 85.2723 29.6526 84.427 30.7774 83.476C 31.6976 82.7363 32.4134 82.1023 33.1291 81.4683C 32.3111 80.4117 31.4931 79.355 30.4706 78.2984C 29.5504 79.2494 28.5279 80.4117 27.3009 81.891C 26.7896 82.4193 26.3806 82.9477 25.9716 83.476C 25.7671 83.6873 25.6648 83.8987 25.5626 84.0043C 25.2558 84.427 24.9491 84.744 24.6423 85.061L 24.6423 85.1666C 24.6423 85.378 24.7446 85.5893 24.8468 85.695C 24.8468 85.9063 24.9491 86.012 24.9491 86.2233C 24.8468 86.7516 24.8468 87.0686 25.0513 87.4913ZM 19.2231 65.8298C 19.1208 66.0411 19.1208 66.2525 19.1208 66.5695C 20.0411 69.3168 21.0636 72.5924 22.1883 76.502C 22.6996 78.404 23.2108 80.2003 23.7221 81.9967C 24.5401 81.0457 25.3581 80.0947 26.3806 79.1437C 26.4828 79.038 26.6874 78.8267 26.7896 78.721C 27.5054 77.9814 28.2211 77.3474 28.9369 76.819C 28.4256 76.2907 27.9144 75.7624 27.4031 75.234C 26.6873 74.4944 26.0738 73.7547 25.4603 73.1207C 22.2906 69.5281 20.1433 67.0978 19.2231 65.8298ZM 4.09002 48.7119C 3.68101 48.8176 3.27201 48.9233 2.96526 48.9233C 5.52152 49.7686 7.87328 50.5083 10.0205 51.2479C 10.4295 51.4592 10.8385 51.5649 11.3498 51.6706C 11.2475 51.4592 11.1453 51.1423 11.043 50.8253C 10.634 49.7686 10.225 48.5006 9.71379 47.2326C 6.95303 47.9723 5.01027 48.5006 4.09002 48.7119Z"/>
<path id="path1_fill" d="M 49.5914 2.43031C 49.3869 1.58499 49.1824 0.739661 48.9779 4.03083e-07C 47.8532 0.739661 46.8307 1.47932 45.9104 2.21898C 43.8654 3.59264 42.2294 4.75496 40.9002 5.70595C 40.5934 6.65695 40.3889 7.50227 40.1844 8.45326C 40.0821 8.77026 39.9799 9.08726 39.9799 9.40426C 41.2069 8.45326 42.6384 7.39661 44.3767 6.23428C 45.3992 5.49462 46.3194 4.86063 47.3419 4.12097C 48.0577 3.38131 48.8757 2.85298 49.5914 2.43031ZM 29.0391 134.407C 28.1189 135.147 27.4031 135.992 26.6873 136.732C 25.8693 137.577 24.7446 138.845 23.4153 140.43C 21.4726 142.755 19.0186 145.713 15.9511 149.517C 17.3826 150.362 18.6096 151.102 19.8366 151.736C 21.3703 152.476 22.9041 153.11 24.2333 153.638C 26.2784 150.151 28.6301 146.664 31.3909 143.389C 32.5156 141.909 33.8449 140.43 35.1741 139.056C 35.8899 138.211 36.8101 137.366 37.7304 136.415C 36.9124 136.203 36.0944 135.992 35.2764 135.886C 33.3336 135.252 31.1864 134.83 29.0391 134.407ZM 9.71379 145.396C 11.452 143.177 13.7016 140.641 16.3601 137.577C 16.4623 137.471 16.6668 137.26 16.7691 137.154C 18.0983 135.569 19.4276 134.196 20.6546 132.928C 19.2231 132.716 17.8938 132.505 16.4623 132.294C 15.4398 133.245 14.4173 134.196 13.4971 135.147C 12.27 136.415 11.043 137.683 9.81604 138.951C 8.69128 140.219 7.56653 141.592 6.44177 143.072C 7.56653 143.811 8.58903 144.656 9.71379 145.396ZM 82.0048 97.3182C 80.9823 98.1635 79.9598 99.0089 78.9373 99.8542C 80.9823 99.9599 83.8453 100.277 87.5263 100.805C 89.5713 101.122 91.7186 101.439 94.2749 101.862C 94.7861 101.017 95.1951 100.171 95.7064 99.3259C 94.3771 99.1145 92.8433 98.9032 91.1051 98.6919C 90.2871 98.5862 89.5713 98.4805 88.8556 98.3749C 86.0948 97.8465 83.7431 97.5295 82.0048 97.3182ZM 75.4608 102.707C 74.336 103.552 73.3135 104.398 72.3933 105.243C 70.4505 106.828 68.8145 108.202 67.5875 109.258C 69.6325 109.47 73.3135 109.787 78.6305 110.209C 79.3463 110.209 80.062 110.315 80.7778 110.421C 83.2318 110.632 85.5836 110.843 87.8331 111.055C 89.2646 109.364 90.9006 107.251 92.4343 104.82C 90.3893 104.503 88.1398 104.186 85.5836 103.869C 82.6183 103.552 79.244 103.13 75.4608 102.707ZM 42.8429 108.519C 43.8654 108.624 45.0924 108.624 46.6262 108.836C 47.0352 108.836 47.5464 108.941 47.8532 108.941C 47.7509 108.836 47.7509 108.73 47.6487 108.624C 47.2397 108.096 46.8307 107.462 46.3194 106.828C 46.0127 106.828 45.7059 106.828 45.3992 106.828C 44.4789 106.828 43.5587 106.722 42.7407 106.617C 42.1272 106.617 41.6159 106.511 41.1047 106.405C 41.2069 107.145 41.4114 107.885 41.6159 108.519C 41.9227 108.413 42.3317 108.413 42.8429 108.519ZM 42.9452 103.447C 41.9227 103.235 41.2069 103.024 40.5934 102.918C 40.6957 103.447 40.6957 103.975 40.7979 104.609C 41.4114 104.715 42.0249 104.926 42.8429 105.032C 43.0474 105.032 43.2519 105.137 43.5587 105.137C 44.3767 105.243 45.0924 105.454 45.8082 105.56C 45.7059 105.349 45.6037 105.137 45.5014 104.926C 45.2969 104.609 45.1947 104.186 44.9902 103.869C 44.4789 103.764 43.9677 103.552 43.4564 103.447C 43.2519 103.552 43.0474 103.447 42.9452 103.447ZM 55.4197 65.3015C 55.2152 64.9845 55.0107 64.5618 54.704 64.2448C 53.068 61.7088 51.7387 59.5955 50.7162 57.9049C 48.4667 57.7992 46.3194 57.6935 44.2744 57.7992C 45.7059 60.9692 47.6487 64.8788 50.2049 69.4224C 50.3072 69.5281 50.3072 69.6338 50.4094 69.7394C 50.7162 70.3734 51.0229 71.0074 51.4319 71.6414C 53.6815 71.8528 56.1355 71.5358 58.794 70.6904C 57.7715 68.9998 56.6467 67.2035 55.4197 65.3015ZM 56.34 58.6445C 55.3175 58.5389 54.295 58.4332 53.3747 58.3275C 54.1927 59.8069 55.4197 61.7088 57.0557 64.2448C 58.0782 65.9355 59.3052 67.9431 60.6345 70.0564C 61.248 69.8451 61.8615 69.5281 62.3727 69.3168C 62.9862 68.9998 63.702 68.7884 64.4177 68.4714C 62.475 66.2525 60.7367 64.2448 59.4075 62.5542C 58.1805 61.0748 57.158 59.8068 56.34 58.6445ZM 36.1966 24.1975C 35.8899 25.6768 35.5831 27.0504 35.2764 28.4241C 34.6629 31.1714 34.0494 33.7074 33.6404 35.9264L 35.4809 34.6584C 41.8204 30.6431 47.8532 27.5788 53.5792 25.2541C 53.7837 23.0351 53.6815 20.6048 53.068 18.0689C 52.8635 17.2235 52.7612 16.4839 52.5567 15.6385C 52.4544 15.3215 52.4544 15.1102 52.3522 14.8989C 51.8409 15.2159 51.3297 15.4272 50.7162 15.7442C 44.9902 18.9142 40.0822 21.7672 36.1966 24.1975ZM 11.452 73.0151C 10.225 72.3811 8.89578 71.7471 7.25978 71.1131C 5.93052 70.6904 4.90802 70.2678 3.98776 69.9508C 3.78326 70.6904 3.68101 71.4301 3.57876 72.1697C 4.80577 72.8037 6.44177 73.5434 8.48678 74.4944C 9.91829 75.1284 11.1453 75.7624 12.1678 76.0794L 12.1678 75.9737C 11.9633 74.9171 11.7588 73.9661 11.452 73.0151ZM 3.27201 81.257C 4.80577 81.7853 6.64628 82.3137 8.69128 82.9477C 9.50929 83.159 10.3273 83.476 11.2475 83.6873C 12.0655 84.0043 12.9858 84.3213 13.9061 84.744L 13.9061 84.6383C 13.5993 83.0533 13.2926 81.3627 12.8835 79.5664C 12.7813 79.1437 12.679 78.721 12.5768 78.2984C 12.27 78.1927 11.9633 77.9814 11.5543 77.8757C 10.3273 77.3474 9.10028 76.819 7.66878 76.2907C 6.03277 75.6567 4.49902 75.0227 3.16976 74.6001C 3.06751 77.136 3.06751 79.355 3.27201 81.257ZM 1.53376 47.7609L 0 48.8176C 0.715753 49.3459 1.43151 49.7686 2.04501 50.1913C 3.06751 50.8253 3.98776 51.2479 5.01027 51.5649L 10.1228 47.9723C 10.5318 47.7609 10.8385 47.4439 11.2475 47.2326C 10.9408 47.1269 10.7363 46.9156 10.4295 46.81C 10.0205 46.5986 9.61154 46.493 9.10028 46.176C 8.89578 46.176 8.79353 46.0703 8.69128 46.0703C 7.97553 45.7533 7.15753 45.4363 6.23727 45.0136C 4.19227 46.176 2.65851 47.1269 1.53376 47.7609Z"/>
<path id="path2_fill" d="M 57.158 0C 56.8512 0.528329 56.5445 1.16232 56.1355 1.90198C 55.7265 4.12097 55.113 6.86828 54.3972 10.0383C 53.9882 11.8346 53.3747 13.8422 52.8634 15.9555C 52.7612 16.2725 52.7612 16.4839 52.6589 16.8009C 53.886 15.9555 55.6242 14.7932 57.6692 13.3139C 58.5895 12.6799 59.612 11.9402 60.7367 11.0949C 59.1007 5.07196 57.8737 1.26799 57.158 0ZM 53.3747 155.54C 53.9882 153.849 54.3972 151.63 54.8062 148.989C 53.068 148.46 51.2274 147.932 49.2847 147.509C 48.3644 148.46 47.4442 149.306 46.7284 150.151C 45.3992 151.63 44.1722 153.004 42.9452 154.483C 40.1844 157.759 37.8326 161.246 35.7876 164.733C 40.1844 166.107 43.7632 165.895 46.6262 163.993C 49.6937 161.986 51.7387 159.555 52.8634 156.914C 53.0679 156.385 53.2724 155.963 53.3747 155.54ZM 28.0166 148.777C 25.3581 151.842 23.1086 154.483 21.3703 156.597C 23.6198 158.182 25.7671 159.555 27.6076 160.612C 30.5729 156.808 33.0269 153.744 35.0719 151.525C 36.4011 149.94 37.4236 148.672 38.3439 147.826C 39.0596 147.087 39.8777 146.347 40.6957 145.502C 38.1394 145.079 35.5831 144.551 32.8224 144.128C 32.6179 144.128 32.5156 144.128 32.4134 144.022C 31.1864 145.29 29.8571 146.77 28.5279 148.249C 28.3234 148.46 28.1189 148.566 28.0166 148.777ZM 97.1379 105.771C 96.0131 106.722 94.7861 107.673 93.7636 108.519C 95.5019 108.73 97.8536 109.047 100.717 109.47C 101.432 109.575 102.148 109.681 102.966 109.787C 104.704 109.998 106.238 110.315 107.567 110.421C 107.976 109.681 108.385 108.941 108.794 108.202C 112.987 100.277 115.441 94.3596 115.952 90.5556C 111.657 94.0426 107.772 97.2125 104.193 100.066C 103.477 100.594 102.762 101.228 102.148 101.756C 101.739 102.073 101.432 102.39 101.023 102.707C 99.4896 103.764 98.2626 104.82 97.1379 105.771ZM 90.5938 111.055C 90.2871 111.266 90.0826 111.477 89.7758 111.689C 88.7533 112.428 87.9353 113.274 87.0151 113.908C 90.7983 114.33 94.1726 114.753 97.2401 115.07C 99.7964 115.387 102.046 115.704 104.091 116.021C 104.704 115.07 105.318 114.119 105.931 113.062C 103.477 112.64 101.228 112.323 99.1829 112.006C 95.6041 111.477 92.7411 111.16 90.5938 111.055ZM 79.244 120.459C 76.79 122.467 75.3585 123.735 75.0518 124.157C 76.5855 127.01 79.4486 128.595 83.5386 129.018C 84.9701 129.229 86.2993 129.229 87.6286 129.018C 90.2871 128.701 92.8434 127.644 95.3996 126.059C 96.7289 125.108 98.1604 123.84 99.5919 122.255C 97.3424 122.044 94.9906 121.833 92.5366 121.621C 91.8208 121.516 91.1051 121.516 90.3893 121.41C 84.8678 120.882 81.2891 120.565 79.244 120.459ZM 53.2724 119.614C 53.477 120.353 53.6814 120.882 53.886 121.304C 53.9882 121.516 54.1927 121.727 54.3972 121.938C 54.9085 122.361 55.6242 122.784 56.4422 123.101C 57.8737 123.629 59.1007 123.523 60.1232 122.784L 61.1457 121.833C 60.5322 121.304 60.021 120.776 59.4075 120.036C 58.9985 119.931 58.5895 119.931 58.1805 119.931C 56.6467 119.825 55.4197 119.719 54.3972 119.614C 53.9882 119.614 53.5792 119.614 53.2724 119.614ZM 52.4544 115.81C 52.4544 115.915 52.5567 115.915 52.4544 116.021C 52.5567 116.549 52.659 117.078 52.7612 117.606C 53.2724 117.712 53.7837 117.712 54.3972 117.817C 55.2152 117.923 56.1355 118.029 57.0557 118.029C 57.3625 118.029 57.6692 118.029 57.976 118.029C 57.7715 117.606 57.4647 117.289 57.2602 116.866C 56.6467 116.655 55.931 116.549 55.0107 116.444C 54.8062 116.444 54.6017 116.338 54.295 116.338C 53.6815 116.021 52.9657 115.915 52.4544 115.81ZM 55.522 112.64C 55.2152 112.111 55.0107 111.583 54.8062 111.055C 54.704 110.843 54.704 110.738 54.6017 110.526C 53.3747 107.568 52.4544 105.137 51.8409 103.235C 51.7387 104.926 51.7387 106.828 51.7387 109.047C 51.7387 110.526 51.8409 112.217 52.1477 114.119C 52.7612 114.225 53.5792 114.436 54.4995 114.647C 54.704 114.647 54.8062 114.753 55.0107 114.753C 55.522 114.859 55.931 114.964 56.5445 115.176C 56.2377 114.542 55.931 113.908 55.7265 113.274C 55.6242 113.062 55.522 112.851 55.522 112.64ZM 74.8473 71.2188C 74.2338 71.1131 73.7225 70.9018 73.109 70.7961C 71.7798 70.5848 70.4505 70.2678 69.2235 70.0564C 68.8145 69.9508 68.4055 69.9508 68.0988 69.8451C 68.9168 71.0074 69.9393 72.2754 71.1663 73.7547C 72.5978 75.4454 74.2338 77.453 76.1765 79.672C 78.3238 78.8267 80.8801 78.1927 83.8453 77.5587C 84.5611 77.453 85.2768 77.3474 85.9926 77.2417C 87.7308 76.9247 89.3668 76.7134 90.7983 76.6077C 87.0151 74.8114 82.7206 73.3321 77.9148 71.9584C 77.7103 71.8527 77.608 71.8527 77.4035 71.8527C 76.6878 71.6414 75.8698 71.4301 75.154 71.2188C 75.0518 71.2188 74.9495 71.2188 74.8473 71.2188ZM 62.884 69.2111C 62.6795 69.2111 62.5772 69.2111 62.3727 69.1054C 63.3952 70.7961 64.7245 72.9094 66.3605 75.4454C 66.565 75.7624 66.7695 76.1851 67.0762 76.502C 68.3033 78.404 69.3258 80.2003 70.4505 81.891C 71.064 81.6797 71.6775 81.4683 72.291 81.257C 70.8595 79.038 69.7348 77.136 68.7123 75.4454C 67.1785 72.9094 65.9515 70.9018 65.0312 69.5281C 64.3155 69.3168 63.5997 69.3168 62.884 69.2111ZM 2.43784e-08 140.324C 6.95303 145.924 12.8835 150.574 17.9961 154.272C 19.1208 152.793 20.2456 151.419 21.3703 150.151C 22.4951 148.777 23.7221 147.509 25.0513 146.347C 25.9716 145.396 26.9941 144.445 28.0166 143.494C 26.7896 143.283 25.6648 143.177 24.5401 142.966C 23.5176 142.755 22.4951 142.649 21.4726 142.543C 21.0636 142.543 20.6546 142.438 20.1433 142.332C 19.3253 142.226 18.5073 142.12 17.6893 142.015C 12.27 141.381 6.33952 140.853 2.43784e-08 140.324ZM 52.2499 69.4224C 51.8409 70.5848 51.5342 71.6414 51.4319 72.2754C 51.3297 73.5434 51.8409 75.1284 52.9657 77.0304C 54.8062 79.989 57.567 81.891 61.0435 82.525C 61.1457 82.525 61.1457 82.525 61.248 82.525C 61.7592 82.6307 62.3727 82.7363 62.9862 82.7363C 62.6795 82.1023 62.3727 81.4683 61.9637 80.8343C 61.8615 80.7287 61.8615 80.623 61.7592 80.5173C 59.3052 75.9737 57.2602 72.0641 55.8287 68.8941C 54.1927 68.9998 52.6589 69.1054 51.1252 69.3168C 51.6364 69.4224 51.9432 69.4224 52.2499 69.4224ZM 53.9882 52.0932C 55.931 51.5649 57.6692 50.5083 59.4075 48.7119C 61.1457 46.9156 62.475 44.8023 63.702 42.372C 64.52 40.5757 65.1335 38.568 65.338 36.5604C 59.612 38.885 53.5792 41.9493 47.2397 45.9646L 45.3992 47.2326C 44.9902 48.9233 44.6834 50.5083 44.4789 51.8819L 44.5812 51.9876C 44.6834 52.0932 44.6834 52.4102 44.5812 53.1499C 44.4789 53.4669 44.2744 53.6782 44.1722 53.7839C 43.5587 54.8406 43.3542 55.4745 43.3542 55.5802C 43.3542 55.5802 43.4564 55.6859 43.6609 55.8972L 43.6609 55.7915L 45.0924 56.1085L 45.5014 55.8972L 46.5239 50.9309C 46.8307 50.8253 47.2397 50.7196 47.9554 50.5083C 48.6712 50.2969 49.3869 50.6139 50.1027 51.5649C 50.7162 52.3046 52.0454 52.5159 53.9882 52.0932ZM 22.9041 58.3275C 22.4951 58.5389 22.0861 58.7502 21.7793 59.0672L 16.6668 62.6598C 18.7118 63.2938 20.3478 63.1882 21.7793 62.2372C 21.7793 62.2372 21.8816 62.2372 21.8816 62.1315C 22.5973 61.6032 23.2108 60.9692 23.6198 60.2295C 24.9491 60.7578 25.9716 61.1805 26.5851 61.2862C 26.5851 61.2862 26.5851 61.4975 26.6873 61.8145C 26.6873 62.1315 26.7896 62.4485 26.8918 62.5542C 27.0963 62.4485 27.7099 62.3428 28.7324 62.2372C 27.8121 60.7578 26.9941 59.5955 26.2783 58.5389C 26.1761 58.5389 26.0738 58.5389 25.9716 58.6445C 25.8693 58.7502 25.7671 58.8559 25.7671 58.9615C 25.7671 59.1729 25.6648 59.3842 25.6648 59.7012C 25.5626 59.5955 25.0513 59.2785 24.1311 58.8559C 23.8243 58.7502 23.4153 58.5389 22.9041 58.3275ZM 48.4667 33.3904C 48.2622 34.0244 48.0577 34.764 47.9554 35.398C 51.8409 32.9677 56.749 30.1148 62.5772 26.9448C 63.0885 26.6278 63.5997 26.3108 64.2132 26.0995C 64.0087 24.9371 63.702 23.7748 63.4975 22.7181C 62.6795 19.3368 61.9637 16.2725 61.3502 13.6309C 60.5322 14.1592 59.8165 14.6875 59.1007 15.2159C 58.0782 15.9555 57.158 16.5895 56.1355 17.3292C 54.4995 18.5972 52.9657 19.6538 51.7387 20.4992C 51.1252 23.0351 50.4094 25.4655 49.8982 27.7901C 49.6937 28.7411 49.3869 29.6921 49.1824 30.6431C 48.8757 31.5941 48.6712 32.5451 48.4667 33.3904ZM 20.3478 94.1482C 18.3028 93.5142 16.5646 92.9859 14.9286 92.4576C 15.1331 94.0426 15.5421 95.3106 16.1556 96.2616C 16.5646 96.8955 17.2803 97.4239 18.3028 97.8465C 19.2231 98.1635 20.3478 98.3749 21.6771 98.3749C 24.5401 98.4805 25.9716 98.5862 25.9716 98.5862C 25.9716 98.5862 25.9716 98.6919 26.0738 98.6919C 25.8693 97.7409 25.7671 96.7899 25.6648 95.7332C 24.7446 95.3106 23.8243 94.9936 23.0063 94.6766C 22.0861 94.6766 21.1658 94.3596 20.3478 94.1482ZM 15.2353 83.2647C 15.1331 84.11 15.0308 84.8496 14.9286 85.695C 16.2578 86.2233 17.7916 86.7516 19.4276 87.3856C 20.8591 87.9139 22.1883 88.4423 23.3131 88.9706C 23.6198 89.0763 24.0288 89.2876 24.3356 89.3933C 24.2333 88.9706 24.1311 88.6536 24.0288 88.2309C 24.0288 88.1253 23.9266 87.9139 23.9266 87.7026C 23.8243 87.4913 23.8243 87.28 23.7221 87.1743C 22.6996 86.7516 21.4726 86.2233 20.0411 85.5893C 18.2006 84.6383 16.5646 83.793 15.2353 83.2647ZM 16.9736 74.9171C 16.5646 76.9247 16.0533 78.721 15.7466 80.623C 15.7466 80.8343 15.6443 80.94 15.6443 81.1513C 16.5646 81.4683 17.5871 81.891 18.9163 82.3137C 20.5523 82.9477 21.9838 83.5816 23.1086 84.2156C 23.1086 84.11 23.1086 84.0043 23.1086 84.0043C 22.5973 82.208 22.0861 80.4117 21.5748 78.5097C 20.4501 74.6001 19.4276 71.3244 18.5073 68.5771C 17.8938 70.6904 17.3826 72.8037 16.9736 74.9171ZM 9.50928 53.2556C 7.36203 52.5159 5.01027 51.7762 2.45401 50.9309L 2.35176 50.9309C 3.78326 52.6216 5.21477 54.2066 6.54402 55.5802C 8.38453 57.4822 10.1228 58.9615 11.7588 60.1238L 13.2926 59.0672C 14.4173 58.4332 15.9511 57.4822 17.8938 56.3199C 17.4848 56.2142 17.0758 56.0029 16.5646 55.8972C 15.6443 55.5802 14.6218 55.1576 13.4971 54.8406C 12.679 54.5236 11.7588 54.2066 10.8385 53.8896C 10.3273 53.5726 9.91829 53.3612 9.50928 53.2556Z"/>
<path id="path3_fill" d="M -1.56022e-06 13.4196C 2.45401 11.8346 3.88551 9.50993 4.19226 6.23429C 4.19226 5.70596 4.19226 5.17762 4.19226 4.54363C 4.19226 2.85298 3.98776 1.47932 3.68101 0.316997C 3.47651 0.211332 3.37426 0.105663 3.16976 -3.22466e-06C 2.96526 0.633992 2.65851 1.26799 2.45401 1.90198C 2.14726 2.74731 1.94276 3.59263 1.73826 4.43796C 0.920256 7.50227 0.30675 10.4609 -1.56022e-06 13.4196Z"/>
<path id="path4_fill" d="M 29.3459 121.621C 28.9369 120.882 28.5279 120.036 28.2211 119.191C 27.9144 118.451 27.6076 117.817 27.3009 117.183C 27.1986 116.866 26.9941 116.655 26.8918 116.338C 26.8918 116.232 26.7896 116.232 26.8918 116.127C 24.6423 116.127 22.2906 116.232 19.6321 116.338C 20.2456 117.817 21.0636 119.402 21.9838 121.199C 22.0861 121.41 22.1883 121.516 22.2906 121.727C 22.6996 122.467 23.0063 123.206 23.5176 123.946C 23.5176 123.946 23.5176 124.052 23.6198 124.052C 23.7221 124.157 23.7221 124.263 23.8243 124.369C 26.5851 124.791 29.1414 125.32 31.6976 125.742C 30.7774 124.369 30.0616 122.995 29.3459 121.621ZM 12.679 117.5C 12.5768 117.289 12.4745 117.078 12.3723 116.866C 11.452 116.972 10.5318 117.078 9.61154 117.183C 10.1228 118.24 10.9408 119.931 12.0655 122.15C 12.1678 122.361 12.27 122.572 12.3723 122.784C 13.3948 122.889 14.4173 123.101 15.4398 123.206C 15.2353 122.784 15.0308 122.361 14.8263 121.938C 14.0083 120.459 13.2925 118.98 12.679 117.5ZM 84.8678 85.695C 84.7656 86.646 84.7656 87.7026 84.6633 88.7593C 85.7881 87.9139 86.9128 86.963 88.0376 86.012C 88.1398 85.4836 88.2421 85.061 88.3443 84.5326C 88.4466 83.8987 88.5488 83.159 88.6511 82.525C 88.7533 81.1513 88.8556 79.7777 88.8556 78.5097C 88.8556 77.453 88.7533 76.3964 88.5488 75.551C 87.1173 75.868 85.7881 76.2907 84.5611 76.7134C 84.6633 77.2417 84.6633 77.77 84.7656 78.404C 84.8678 80.4117 84.9701 82.842 84.8678 85.695ZM 80.8801 77.77C 78.017 78.721 75.7675 79.672 74.1315 80.623C 74.2338 81.7853 74.336 83.0533 74.4383 84.5326C 74.4383 84.8496 74.4383 85.061 74.4383 85.378C 74.5405 86.646 74.6428 87.914 74.6428 88.9706C 74.8473 92.1406 74.9495 94.6766 74.9495 96.7899C 75.8698 95.9446 76.8923 95.0992 78.017 94.2539C 78.835 93.5142 79.7553 92.7746 80.7778 92.0349C 80.7778 91.8236 80.7778 91.6123 80.8801 91.4009C 80.9823 90.1329 81.1868 88.6536 81.2891 87.0686C 81.2891 86.963 81.2891 86.7516 81.2891 86.646C 81.3913 84.2156 81.3913 81.9967 81.1868 79.7777C 80.9823 78.9324 80.9823 78.2984 80.8801 77.77ZM 48.3644 95.6276C 48.1599 95.9445 48.0577 96.1559 47.9554 96.4729C 48.0577 96.6842 48.1599 96.8955 48.2622 97.1069C 48.4667 97.5295 48.6712 97.9522 48.9779 98.2692C 49.3869 98.9032 49.7959 99.5372 50.3072 100.066C 50.5117 99.5372 50.8184 99.0089 51.2274 98.3749C 51.2274 98.2692 51.3297 98.1635 51.3297 98.0579C 51.8409 97.1069 52.4544 96.0502 53.1702 94.7822C 53.1702 94.6766 53.068 94.6766 53.068 94.5709C 52.3522 93.5142 51.6364 92.4576 50.7162 91.2953C 49.6937 93.0916 48.8757 94.4652 48.3644 95.6276ZM 48.5689 89.0763C 48.1599 88.6536 47.5464 88.1253 46.9329 87.4913C 46.5239 88.4423 46.1149 89.2876 45.8082 90.0273C 45.7059 90.3443 45.6037 90.5556 45.5014 90.7669C 45.6037 90.9783 45.6037 91.0839 45.7059 91.2953C 45.9104 91.8236 46.1149 92.3519 46.4217 92.8802C 46.8307 92.0349 47.3419 91.1896 47.9554 90.0273C 48.1599 89.7103 48.3644 89.3933 48.5689 89.0763ZM 64.4177 50.5083C 64.3155 50.7196 64.111 50.8253 64.0087 51.0366C 64.6222 51.1423 65.1335 51.3536 65.747 51.4592C 65.8493 51.4592 65.9515 51.4592 66.0537 51.5649C 66.7695 51.7762 67.5875 51.9876 68.3033 52.1989C 68.61 51.8819 68.9168 51.6706 69.1213 51.4592C 70.3483 50.1913 71.5753 48.6063 72.8023 46.7043C 72.7 46.5986 72.4955 46.493 72.3933 46.2816C 71.064 45.1193 70.0415 44.1683 69.2235 43.4286C 69.019 43.8513 68.7123 44.274 68.5078 44.6966C 67.0762 47.0213 65.747 49.0289 64.4177 50.5083ZM 58.4872 38.4624C 57.4647 40.787 56.5445 42.7947 55.8287 44.4853C 55.3175 45.542 54.9085 46.493 54.6017 47.3383C 54.1927 48.0779 53.9882 48.8176 53.7837 49.3459C 54.4995 49.3459 55.2152 49.4516 55.931 49.5573C 56.8512 49.6629 57.8737 49.7686 58.8962 49.8743C 59.3052 49.9799 59.612 49.9799 60.021 50.0856C 60.43 49.5573 60.839 49.1346 61.248 48.5006C 61.7592 47.7609 62.3727 47.0213 62.9862 46.176C 64.2132 44.274 65.338 42.5833 66.2582 40.9983C 63.702 39.519 61.0435 38.568 58.4872 38.4624ZM 9.30478 30.5374C 9.30478 30.4317 9.30478 30.3261 9.20253 30.2204C 8.99803 29.4808 8.89578 28.7411 8.79353 28.0014C 8.07778 27.8958 6.85078 28.0014 5.11252 28.3184C 5.31702 29.2694 5.62377 30.3261 5.93052 31.3827C 6.13502 32.2281 6.44177 33.0734 6.74853 34.0244C 6.95303 34.764 7.15753 35.398 7.36203 35.9264C 7.77103 36.1377 8.18003 36.2434 8.69128 36.349C 9.61154 36.7717 10.4295 37.0887 11.1453 37.4057C 10.9408 36.7717 10.634 36.032 10.4295 35.2924C 10.0205 33.9187 9.61154 32.3337 9.30478 30.5374ZM 2.24951 28.8468C 1.43151 29.0581 0.715753 29.1638 0 29.3751C 0.511252 30.7487 0.920254 31.9111 1.32926 32.9677C 1.43151 33.2847 1.53376 33.4961 1.63601 33.8131C 2.55626 34.1301 3.47651 34.4471 4.29452 34.764C 3.98776 33.8131 3.68101 32.9677 3.37426 32.2281C 2.96526 30.9601 2.55626 29.7978 2.24951 28.8468ZM 35.2764 5.49462C 35.7876 6.02295 36.2989 6.65695 36.8101 7.39661C 38.0371 8.87593 39.0596 10.0383 39.9799 10.9892C 40.1844 10.0383 40.3889 9.08726 40.6957 8.13627C 39.3664 6.65695 38.1394 5.28329 37.0146 4.0153C 35.5831 2.43031 34.4584 1.05666 33.5381 8.06166e-07C 33.2314 0.422664 32.9246 0.845326 32.7201 1.16232C 32.6179 1.37365 32.5156 1.47932 32.4134 1.69065C 33.1291 2.74731 34.0494 3.90963 35.2764 5.49462ZM 28.2211 9.40426C 28.6301 9.82692 28.9369 10.2496 29.3459 10.6722C 31.9021 13.5252 33.4359 15.3215 34.1516 16.0612C 34.6629 16.6952 35.2764 17.2235 35.7876 17.7519C 36.5034 18.4915 37.2191 19.2312 37.9349 19.9708C 38.2416 18.5972 38.5484 17.2235 38.8551 15.7442C 39.0596 15.1102 39.1619 14.3706 39.3664 13.7366C 38.1394 12.5742 36.6056 10.9892 34.7651 9.19292C 34.1516 8.55893 33.5381 8.0306 33.0269 7.50227C 32.1066 6.55128 31.1864 5.70595 30.5729 4.86063C 29.5504 6.33995 28.8346 7.92494 28.2211 9.40426ZM 16.0533 70.3734C 15.8488 70.5848 15.7466 70.7961 15.5421 71.0074C 15.9511 72.8037 16.2578 74.4944 16.5646 76.0794C 17.0758 75.4454 17.5871 74.8114 18.3028 74.0717C 18.9163 73.4377 19.5298 72.8037 20.2456 72.0641C 21.1658 71.2188 22.0861 70.2678 23.2108 69.3168C 24.0288 68.4715 24.9491 67.7318 25.7671 67.0978C 25.0513 66.0411 24.2333 64.8788 23.4153 63.8221C 22.6996 64.4561 21.9838 65.0901 21.0636 65.8298C 19.9388 66.7808 19.0186 67.6261 18.0983 68.4714C 17.3826 68.9998 16.8713 69.5281 16.3601 70.0564C 16.2578 70.1621 16.1556 70.2678 16.0533 70.3734ZM 17.0758 60.9692C 16.9736 61.0748 16.7691 61.2862 16.6668 61.3918C 15.6443 62.3428 14.7241 63.2938 14.0083 64.2448C 14.0083 64.3505 14.0083 64.4561 14.0083 64.4561C 14.3151 65.4071 14.5196 66.3581 14.7241 67.3091C 15.0308 66.9921 15.3376 66.6751 15.6443 66.2525C 15.7466 66.0411 15.9511 65.9355 16.0533 65.7241C 16.4623 65.1958 16.8713 64.6675 17.3826 64.1391C 18.6096 62.7655 19.6321 61.4975 20.5523 60.5465C 20.1433 60.0182 19.6321 59.4898 19.2231 58.9615C 18.6096 59.4898 17.7916 60.2295 17.0758 60.9692Z"/>
<path id="path5_fill" d="M 0.818002 47.3383L 0 50.5083L 22.6996 63.5052C 22.6996 62.1315 22.6996 60.6522 22.8018 59.0672L 12.679 53.6782L 8.18003 51.2479L 0.818002 47.3383ZM 49.5914 57.9049L 46.3194 59.8069L 46.1149 59.9125L 45.6037 69.4224L 45.3992 72.4867L 44.9902 80.306C 46.4217 81.4683 47.8532 82.525 49.2847 83.476L 49.3869 74.6001L 49.3869 71.4301L 49.5914 57.9049ZM 24.2333 13.7366L 24.6423 10.7779L 25.8693 0.316996L 24.4378 -8.06166e-07L 24.4378 0.105667L 21.4726 15.3215C 22.1883 16.3782 22.9041 17.4349 23.7221 18.7028L 24.2333 13.7366Z"/>
<path id="path6_fill" d="M 1.43151 1.16232C 0.920253 1.69065 0.409002 2.21898 0 2.85298L 21.5748 32.2281L 21.9838 74.6001L 67.9965 110.315C 68.201 109.47 68.5078 108.624 68.7123 107.779C 68.9168 107.145 69.1213 106.511 69.428 105.877C 68.0988 105.032 66.3605 103.975 64.3155 102.602C 62.9862 101.756 57.976 98.0579 49.4892 91.7179C 47.5464 90.3443 45.5014 88.7593 43.2519 87.0686C 41.8204 86.1176 40.4912 84.9553 38.9574 83.8987C 37.9349 83.159 36.9124 82.4193 35.7876 81.574C 34.9696 80.94 34.0494 80.306 33.2314 79.672C 32.4134 79.038 31.5954 78.5097 30.7774 77.8757C 28.6301 76.2907 26.4829 74.6001 24.2333 72.9094C 23.8243 72.2754 23.7221 69.3168 23.7221 63.9278C 23.7221 60.6522 23.7221 56.6369 23.8243 51.6706C 23.8243 50.8253 23.9266 49.8743 23.9266 49.0289C 24.0288 44.6966 24.1311 40.47 24.3356 36.2434C 24.3356 34.764 24.4378 33.3904 24.4378 31.9111C 24.2333 31.5941 23.7221 30.8544 22.9041 29.7978C 21.5748 28.1071 19.8366 25.6768 17.4848 22.4012C 16.6668 21.2388 15.9511 20.0765 15.2353 19.0198C 13.1903 15.9555 11.452 13.3139 10.0205 11.0949C 6.54402 5.81162 4.70352 2.95864 4.49902 2.74731C 3.88551 1.79632 3.37426 0.845328 2.96526 1.61233e-06C 2.86301 1.61233e-06 2.86301 0.105666 2.86301 0.105666C 2.24951 0.316997 1.84051 0.739661 1.43151 1.16232Z"/>
<path id="path7_fill" d="M 0.511253 0.211331C 0.409002 0.422662 0.204502 0.739659 7.80109e-07 1.05666C 0.102251 1.26799 0.306752 1.47932 0.511253 1.79632C 0.818004 2.21898 1.12475 2.85298 1.63601 3.48697C 2.24951 4.43797 3.06751 5.70596 4.09002 7.18528C 5.31702 8.9816 6.74853 11.2006 8.38453 13.7366C 8.58903 13.9479 8.69129 14.2649 8.89579 14.4762C 13.2926 21.2388 16.1556 26.2051 17.5871 29.4808C 18.0983 30.5374 18.2006 36.1377 17.8938 46.0703C 17.7916 47.7609 17.7916 49.6629 17.6893 51.5649C 17.5871 54.6292 17.4848 57.3765 17.3826 59.7012C 17.3826 61.2862 17.2803 62.8712 17.2803 64.1392C 17.2803 64.6675 17.2803 65.3015 17.2803 65.8298C 17.2803 69.9508 17.3826 72.1698 17.5871 72.5924C 17.7916 72.9094 17.9961 73.1207 18.2006 73.2264C 18.9163 73.7547 19.7343 74.4944 20.6546 75.3397C 21.0636 75.6567 23.1086 77.6644 26.6873 81.0457C 26.7896 81.1513 26.8918 81.257 26.9941 81.3627C 28.0166 82.3137 28.9369 83.159 29.7549 84.0043C 30.3684 84.5327 30.9819 85.061 31.4931 85.695C 32.8224 86.963 34.0494 88.0196 35.1741 88.9706C 35.5831 89.2876 36.2989 89.9216 37.2191 90.7669C 38.1394 91.6123 39.4687 92.7746 41.0024 94.1482L 41.1047 94.2539C 43.7632 96.5786 47.1374 99.6429 51.4319 103.447C 57.7715 109.047 62.884 113.274 66.7695 116.444C 67.0763 113.591 67.6898 110.526 68.61 107.462L 22.5973 71.7471L 22.1883 29.3751L 0.715752 -1.61233e-06C 0.613502 0.105664 0.613503 0.105665 0.511253 0.211331Z"/>
<path id="path8_fill" d="M 17.8501 26.6619L 17.0101 28.77C 16.7701 30.5062 16.4101 32.4903 16.1701 34.7225C 16.1701 35.0945 16.0501 35.4665 16.0501 35.9625C 15.3301 40.1788 13.6501 43.031 11.13 44.5191C 9.33004 45.6352 7.53003 46.1313 5.61002 46.0073C 5.01002 46.0073 4.41002 45.8832 3.93001 45.7592C 2.25001 45.2632 1.05 44.2711 0.0900003 42.659C -0.0300001 43.031 -0.0300001 43.5271 0.0900003 43.7751C 0.570002 45.2632 1.05 46.3793 1.53001 47.1233C 3.09001 49.9755 4.53002 51.9597 5.73002 53.1998C 6.57002 53.9438 7.41003 54.5639 8.13003 54.9359C 7.05003 55.5559 5.37002 55.8039 3.21001 55.6799C 2.61001 55.6799 2.13001 55.5559 1.65001 55.5559C 1.65001 55.6799 1.77001 55.8039 1.77001 55.8039C 3.69001 59.1522 6.57003 61.2603 10.29 62.1284C 13.1701 62.7484 15.3301 62.6244 16.8901 61.6324C 17.7301 61.2603 18.2101 60.8883 18.4501 60.6403C 18.2101 59.7722 17.9701 58.9042 17.7301 58.0361C 17.7301 57.7881 17.6101 57.6641 17.6101 57.4161L 21.2101 52.4557L 23.9701 48.6114L 24.9301 47.7434C 23.1301 47.7434 21.4501 46.2553 19.7701 43.4031C 18.0901 40.5509 17.2501 37.4506 17.0101 34.1024L 17.2501 34.1024C 17.3701 34.1024 17.7301 34.4744 18.4501 35.2185C 19.2901 35.9625 20.4901 36.7066 21.9301 37.3266C 22.5301 37.5747 23.6101 37.8227 25.1701 38.1947C 25.5301 38.1947 25.8901 38.3187 26.2501 38.3187C 27.3301 38.4427 28.1701 38.5667 28.8901 38.6907C 29.1301 39.6828 29.3701 40.6749 29.4901 41.667C 29.4901 42.163 29.4901 42.783 29.4901 43.2791L 31.5301 41.2949L 34.0501 38.6907L 40.2901 36.9546L 44.7302 35.7145L 53.2502 33.3584L 60.2102 31.3742L 60.5702 31.0022L 67.1702 22.9416L 67.2903 22.8176L 74.1303 20.2134L 77.2503 19.0974C 77.1303 18.8493 77.0103 18.7253 76.8903 18.4773L 77.6103 18.3533L 84.0903 17.4852C 84.8103 18.2293 85.5303 18.9733 86.2503 19.5934C 86.8503 20.2134 87.4503 20.9575 88.0503 21.5775C 90.0903 19.7174 91.2903 17.9813 91.8903 16.4932C 93.0903 13.3929 92.7303 9.79669 90.6903 5.7044C 89.3703 7.31652 87.6903 8.92863 85.5303 10.5407L 85.4103 10.6648L 85.2903 10.4167C 85.4103 10.1687 85.5303 9.9207 85.6503 9.54867C 85.6503 8.68061 85.5303 7.68854 85.2903 6.57246C 84.9303 5.08436 84.4503 3.72026 83.7303 2.48018C 83.2503 1.61211 82.6503 0.744053 81.9303 2.36528e-07C 80.7303 2.35617 78.6903 4.46432 75.8103 6.20044C 74.0103 7.31652 72.3303 7.81255 70.8903 7.93656C 70.4103 7.93656 69.9303 7.93656 69.2103 7.81255C 68.4903 7.44053 67.6503 7.19251 66.9303 6.94449C 53.8502 1.73612 43.0502 1.48811 34.5301 6.20044C 34.1701 6.32445 33.9301 6.44846 33.6901 6.69647C 32.4901 7.44053 31.4101 8.18458 30.3301 8.92863C 24.6901 12.7729 20.7301 18.7253 17.8501 26.6619ZM 58.4102 19.2214C 58.6502 19.7174 59.0102 20.2134 59.1302 20.8335C 60.4502 23.8097 60.2102 26.4139 58.7702 28.77C 57.9302 30.1341 56.4902 31.2502 54.6902 32.3663C 54.0902 32.7383 53.6102 32.9863 53.0102 33.1103C 50.7302 33.9784 48.4502 33.7304 46.1702 32.3663C 45.3302 31.8703 44.4902 31.2502 43.8902 30.6302C 43.5302 30.2581 43.1702 29.8861 42.9302 29.5141C 48.8102 27.654 49.4102 20.5855 44.8502 8.5566C 46.7702 8.92863 49.1702 10.1687 52.1702 12.4009C 54.9302 14.633 57.0902 16.9892 58.4102 19.2214Z"/>
<path id="path9_fill" d="M 42.1202 12.2769C 41.8802 11.7808 41.6402 11.1608 41.4002 10.6648C 40.0802 8.4326 38.0401 6.20044 35.0401 3.84427C 32.1601 1.61211 29.7601 0.372027 27.7201 4.73056e-07C 32.2801 12.0289 31.6801 18.9733 25.8001 20.9575C 26.0401 21.3295 26.4001 21.7015 26.7601 22.0736C 27.3601 22.6936 28.2001 23.3136 29.0401 23.8097C 31.3201 25.1738 33.6001 25.4218 35.8801 24.5537C 36.3601 24.3057 36.9601 24.0577 37.5601 23.8097C 39.3601 22.6936 40.8002 21.4535 41.6402 20.2134C 43.3202 17.8573 43.4402 15.2531 42.1202 12.2769ZM 4.92002 28.894C 3.48001 28.274 2.40001 27.5299 1.44 26.7859C 0.720002 26.1659 0.360001 25.7938 0.24 25.6698L -2.28883e-07 25.6698C 0.240001 29.0181 1.08 32.1183 2.76001 34.9705C 4.32002 37.8227 6.12002 39.1868 7.92003 39.3108L 9.36004 37.8227L 12.36 34.8465C 12.36 34.3504 12.36 33.8544 12.36 33.2344C 12.24 32.2423 12 31.2502 11.76 30.2581C 11.04 30.1341 10.2 30.1341 9.12003 29.8861C 8.76003 29.7621 8.40003 29.7621 8.04003 29.7621C 6.60002 29.3901 5.52002 29.1421 4.92002 28.894Z"/>
<path id="path10_fill" d="M 55.8002 0.744053L 52.6802 1.86013C 57.3602 5.58039 62.1602 10.9128 67.2003 17.8573C 69.6003 21.2055 72.3603 25.4218 75.3603 30.5062C 76.6803 32.7383 78.1203 35.0945 79.5603 37.6987C 84.0003 45.6352 87.1203 51.4636 88.8003 54.9359C 89.0403 55.5559 89.4003 56.052 89.6403 56.672C 89.4003 55.3079 88.9203 53.5718 88.4403 51.7117C 86.6403 44.7672 83.8803 37.9467 80.0403 31.1262C 79.4403 30.1341 78.8403 29.0181 78.3603 28.026C 74.2803 21.2055 70.4403 15.3771 66.4802 10.7888C 63.4802 7.0685 60.0002 3.47225 56.1602 -4.40568e-15L 55.4402 0.124009C 55.4402 0.372027 55.5602 0.620044 55.8002 0.744053ZM 59.4002 25.0498C 53.5202 15.5011 48.9602 8.80462 45.7202 4.71233L 39.1202 12.7729C 45.7202 21.8255 52.2002 31.4982 58.5602 42.039C 58.6802 42.287 58.9202 42.659 59.1602 43.031C 63.6002 50.2236 70.2003 60.8883 78.8403 75.1493L 78.9603 75.3973C 79.3203 71.9251 77.4003 64.8566 73.0803 54.0678C 70.9203 48.4874 68.5203 43.1551 66.0003 37.9467C 63.9602 33.3584 61.6802 29.1421 59.4002 25.0498ZM 23.2801 17.3612C 23.6401 18.1053 23.7601 18.6013 23.8801 18.6013C 24.6001 20.0894 27.8401 26.0418 33.8401 36.4586C 37.4401 42.783 40.4402 48.1154 43.0802 52.4557C 45.7202 56.92 48.0002 60.3923 49.6802 62.7484C 53.6402 68.3288 59.8802 75.8934 68.5203 85.194C 59.6402 67.3368 53.7602 55.5559 50.8802 49.8515C 50.6402 49.3555 50.4002 48.9835 50.1602 48.4874C 46.2002 40.6749 41.2802 31.7462 35.5201 21.4535C 33.9601 18.7253 32.7601 16.6172 31.8001 15.0051L 23.2801 17.3612ZM 10.08 22.9416C 10.92 26.1659 12.6 30.3822 14.8801 35.5905C 18.0001 42.659 21.3601 49.4795 25.2001 56.176C 26.0401 57.5401 26.8801 59.0282 27.7201 60.3923C 30.9601 65.8487 34.6801 71.181 38.6401 76.3894C 44.4002 83.8299 49.5602 89.1623 54.0002 92.3865C 47.4002 83.0859 40.8002 71.305 34.2001 57.044C 32.0401 52.3317 29.7601 47.2473 27.6001 42.039C 24.8401 35.4665 22.3201 28.894 20.0401 22.1976C 19.5601 20.8335 19.2001 19.5934 18.8401 18.6013L 12.6 20.3374L 10.08 22.9416ZM 2.76001 30.2581L -9.15531e-07 34.1024C 2.04001 42.039 3.24001 46.6273 3.60001 47.7434C 5.76002 54.6879 8.64003 61.3843 12.36 67.8328C 12.36 67.9568 12.48 68.0808 12.6 68.2048C 18.0001 77.7535 23.4001 84.822 28.9201 89.4103C 32.1601 92.1385 36.3601 94.3707 41.2802 96.3548L 41.5202 96.2308C 38.8801 94.7427 34.6801 90.0304 29.0401 82.2178C 24.6001 76.0174 20.8801 70.313 18.0001 65.2286C 18.0001 65.2286 18.0001 65.2286 18.0001 65.1046C 13.5601 57.2921 10.08 48.4874 7.56003 38.8147C 6.60003 35.3425 5.88002 31.7462 5.16002 27.902L 3.72001 29.3901L 2.76001 30.2581Z"/>
<path id="path11_fill" d="M 13.1164 13.2689C 13.3564 13.1449 13.7164 12.8969 13.9564 12.7729C 11.4364 6.07643 8.07635 1.86013 3.87633 0C 0.0363171 0.744053 -0.923686 2.97621 0.87632 6.82048C 4.71633 7.81255 7.71635 10.6648 9.75635 15.6251C 10.8364 14.757 11.9164 14.013 13.1164 13.2689Z"/>
<path id="path12_fill" d="M 8.40003 29.5141C 5.40002 30.3821 2.52001 31.0022 -9.15531e-07 31.3742C 1.32 31.6222 2.52001 31.8703 3.84001 31.9943C 8.64003 32.4903 13.4401 31.9943 18.1201 30.5062C 21.8401 29.2661 24.9601 27.778 27.3601 25.9178C 27.9601 26.1658 28.8001 26.4139 29.6401 26.6619C 32.2801 27.53 33.8401 28.026 34.3201 28.15C 34.4401 27.654 34.8001 25.9178 35.4001 23.1896C 35.6401 22.1976 35.7601 21.4535 35.8801 20.7095C 38.6401 19.4694 41.4002 17.4852 44.2802 14.757C 47.8802 11.2848 50.6402 7.19251 52.5602 2.60419C 52.9202 1.73612 53.2802 0.868065 53.5202 3.78445e-06C 51.2402 3.84428 48.0002 7.56454 43.9202 10.7888C 41.2802 13.0209 36.4801 16.1211 29.6401 20.3374C 23.0401 24.4297 15.9601 27.4059 8.40003 29.5141Z"/>
<path id="path13_fill" d="M 3.96001 52.2077C 5.52002 52.8277 7.20003 53.3238 8.76003 53.6958C 11.28 53.3238 14.1601 52.7037 17.1601 51.8357C 24.7201 49.7275 31.8001 46.7513 38.2801 42.783C 45.2402 38.5667 49.9202 35.4665 52.5602 33.2343C 56.6402 29.8861 59.8802 26.2899 62.1602 22.4456C 63.3602 18.8493 64.0802 15.0051 64.2002 11.1608C 64.3202 8.30859 64.0802 5.45639 63.4802 2.48017C 63.3602 1.61211 63.1202 0.86806 63.0002 -9.46112e-07C 63.6002 2.97621 63.1202 7.19251 61.5602 12.5249C 60.1202 17.3612 58.8002 20.5855 57.3602 22.1976L 57.3602 21.9496C 57.3602 21.8255 57.0002 20.9575 56.5202 19.2214C 55.9202 17.4852 55.4402 16.1211 54.9602 15.2531C 54.6002 14.633 54.3602 14.137 54.1202 14.013C 54.4802 14.757 54.6002 16.8652 54.3602 20.2134C 54.1202 23.5617 53.7602 25.5458 53.2802 26.2899C 52.9202 25.1738 52.6802 24.1817 52.3202 23.0656C 51.6002 20.8335 51.0002 19.3454 50.4002 18.3533C 49.6802 17.1132 49.2002 16.3692 48.8402 16.2452C 49.3202 17.1132 49.5602 19.5934 49.3202 23.5617C 49.0802 27.778 48.4802 30.5062 47.5202 31.8703L 46.6802 32.3663C 46.4402 31.9943 45.6002 30.7542 44.0402 28.522C 42.4802 26.4139 41.5202 25.0498 41.1602 24.3057C 41.4002 24.9258 41.7602 26.6619 42.1202 29.5141C 42.2402 30.5062 42.3602 31.3742 42.4802 32.1183C 42.1202 31.3742 41.5202 30.5062 40.9202 29.3901C 39.4801 27.2819 38.6401 26.0418 38.4001 25.5458L 38.2801 25.6698C 38.8801 26.7859 39.2402 29.0181 39.3601 32.2423C 39.4801 35.8385 39.1201 37.9467 38.1601 38.4427C 37.8001 38.6907 37.2001 38.6907 36.3601 38.3187C 35.2801 38.0707 34.2001 37.5747 33.2401 36.8306C 32.5201 36.3346 31.3201 35.3425 29.6401 33.7304C 28.2001 32.3663 27.3601 31.6222 27.2401 31.4982L 27.4801 31.8703C 27.6001 32.1183 28.0801 33.6064 29.0401 36.3346C 29.8801 39.1868 30.4801 40.7989 30.7201 41.2949C 30.6001 41.2949 29.5201 40.3029 27.4801 38.4427C 25.4401 36.7066 24.1201 35.7145 23.5201 35.3425C 25.9201 41.2949 26.5201 44.6432 25.4401 45.2632C 24.4801 45.8833 22.9201 45.8832 20.7601 45.3872C 17.8801 44.7672 15.1201 43.2791 12.48 40.7989L 12.6 41.0469C 12.72 41.1709 13.44 42.287 14.7601 44.1471C 16.0801 46.1313 16.9201 47.3714 17.2801 47.9914C 16.2001 47.7434 14.7601 47.2473 12.96 46.6273C 11.52 46.1313 10.44 45.6352 9.84004 45.2632C 10.2 45.5112 10.8 46.1313 11.88 47.1233C 13.2001 48.3634 14.0401 49.2315 14.2801 49.7275L 13.8001 50.0995C 12.24 51.0916 9.24004 51.3396 4.68002 50.9676C 2.88001 50.8436 1.32 50.5956 -8.52654e-15 50.3476C 1.2 51.0916 2.52001 51.7117 3.96001 52.2077Z"/>
<path id="path14_fill" d="M 13.8001 23.5617L 11.76 25.5458L 8.76003 28.522C 9.48004 32.3663 10.2 35.9625 11.16 39.4348C 13.6801 49.2315 17.1601 57.9121 21.6001 65.7247C 21.6001 65.7247 21.6001 65.7246 21.6001 65.8487C 24.4801 70.933 28.0801 76.5134 32.6401 82.8379C 38.2801 90.6504 42.3602 95.3627 45.1202 96.8509L 44.8802 96.9749C 39.9601 95.1147 35.7601 92.7586 32.5201 90.0304C 27.0001 85.442 21.6001 78.3736 16.2001 68.8249C 16.0801 68.7009 16.0801 68.5769 15.9601 68.4528C 12.36 62.0044 9.48004 55.3079 7.20003 48.3634C 6.84003 47.1233 5.64002 42.535 3.60001 34.7225L -2.28883e-07 39.6828C -2.28883e-07 39.8068 0.120001 40.0548 0.120001 40.3029C 0.360002 41.1709 0.600002 42.039 0.840003 42.907C 0.840003 43.031 0.840003 43.1551 0.960004 43.1551C 1.32 44.2711 1.56 45.5112 1.92001 46.6273C 3.48001 52.3317 4.92002 56.92 6.24002 60.2683C 7.56003 63.6165 9.12003 67.2128 11.04 70.933C 12 72.7932 12.96 74.5293 13.9201 76.3894C 19.2001 85.8141 25.3201 92.7586 32.2801 97.0989C 32.2801 97.0989 32.4001 97.0989 32.4001 97.2229C 33.1201 97.5949 33.7201 98.0909 34.4401 98.463C 35.7601 98.711 37.2001 98.959 39.1201 99.083C 43.5602 99.455 46.6802 99.207 48.2402 98.215L 48.7202 97.8429C 48.4802 97.3469 47.6402 96.4788 46.3202 95.2387C 45.2402 94.2467 44.6402 93.6266 44.2802 93.3786C 44.8802 93.7506 45.9602 94.2467 47.4002 94.7427C 49.2002 95.3628 50.6402 95.8588 51.7202 96.1068C 51.3602 95.4868 50.5202 94.2467 49.2002 92.2625C 47.8802 90.2784 47.1602 89.2863 47.0402 89.1623L 46.9202 88.9143C 49.5602 91.3945 52.3202 92.8826 55.2002 93.5026C 57.3602 93.9987 58.9202 93.8746 59.8802 93.3786C 60.9602 92.6346 60.3602 89.4103 57.9602 83.4579C 58.5602 83.7059 59.8802 84.698 61.9202 86.5581C 63.9602 88.4183 65.0402 89.2863 65.1602 89.4103C 64.9202 88.9143 64.3202 87.3022 63.4802 84.45C 62.5202 81.5978 62.0402 80.1097 61.9202 79.9857L 61.6802 79.6136C 61.8002 79.6136 62.6402 80.3577 64.0802 81.8458C 65.7602 83.4579 66.9603 84.45 67.6803 84.946C 68.6403 85.6901 69.7203 86.1861 70.6803 86.4341C 71.5203 86.6821 72.1203 86.6821 72.4803 86.5581C 73.4403 85.9381 73.9203 83.8299 73.6803 80.3577C 73.5603 77.1335 73.2003 74.9013 72.6003 73.7852L 72.7203 73.6612C 72.9603 74.0332 73.8003 75.3973 75.2403 77.5055C 75.9603 78.6216 76.4403 79.4896 76.8003 80.2337C 76.6803 79.4896 76.5603 78.6216 76.4403 77.6295C 76.0803 74.6533 75.7203 72.9172 75.4803 72.4211C 75.8403 73.0412 76.8003 74.4053 78.3603 76.6374C 79.9203 78.8696 80.7603 80.1097 81.0003 80.4817L 81.8403 79.9857C 82.8003 78.6216 83.4003 75.8934 83.6403 71.6771C 83.8803 67.7088 83.6403 65.2286 83.1603 64.3606C 83.4003 64.4846 84.0003 65.2286 84.7203 66.4687C 85.3203 67.4608 85.9203 69.0729 86.6403 71.181C 87.0003 72.2971 87.2403 73.2892 87.6003 74.4053C 88.0803 73.6612 88.4403 71.6771 88.6803 68.3288C 88.9203 64.9806 88.9203 62.8724 88.4403 62.1284C 88.5603 62.2524 88.9203 62.7484 89.2803 63.3685C 89.7603 64.2365 90.3603 65.4766 90.8403 67.3368C 91.4403 69.0729 91.6803 69.9409 91.6803 70.065L 91.6803 70.313C 93.1204 68.5769 94.4404 65.3526 95.8804 60.6403C 97.4404 55.3079 97.9204 51.0916 97.3204 48.1154C 96.7204 45.3872 95.7604 42.535 94.5604 39.5588C 93.3604 36.5826 91.9203 33.6064 90.1203 30.5062C 88.9203 28.398 87.8403 26.5379 86.6403 24.6777C 85.2003 22.4456 83.8803 20.4615 82.5603 18.4773C 81.8403 17.4852 81.1203 16.4932 80.4003 15.6251C 79.3203 14.261 78.0003 12.7729 76.5603 11.1608C 74.7603 9.05264 72.6003 6.82048 70.0803 4.2163L 69.9603 4.09229C 69.3603 3.47224 68.7603 2.8522 68.1603 2.10815C 67.4403 1.3641 66.7202 0.744053 66.0002 1.3217e-14L 59.5202 0.868062C 63.3602 4.34031 66.8402 7.93656 69.8403 11.6568C 73.6803 16.2451 77.6403 22.0736 81.7203 28.894C 82.3203 29.8861 82.8003 30.8782 83.4003 31.9943C 87.2403 38.8147 90.0003 45.7592 91.8003 52.5797C 92.2803 54.4399 92.6403 56.052 93.0004 57.5401C 92.7603 56.92 92.4004 56.3 92.1603 55.804C 90.4803 52.3317 87.3603 46.5033 82.9203 38.5667C 81.4803 35.9625 80.0403 33.6064 78.7203 31.3742C 75.7203 26.2899 72.9603 22.0736 70.5603 18.7253C 65.6402 11.7808 60.7202 6.44846 56.0402 2.72819L 49.2002 5.33238L 49.0802 5.45639C 52.3202 9.54868 57.0002 16.3692 62.7602 25.7938C 65.0402 29.8861 67.3203 34.2264 69.3603 38.5667C 71.8803 43.7751 74.2803 49.1075 76.4403 54.6879C 80.7603 65.4766 82.6803 72.5451 82.3203 76.0174L 82.2003 75.7694C 73.4403 61.5084 66.9603 50.8436 62.5202 43.6511C 62.2802 43.2791 62.1602 43.031 61.9202 42.659C 55.5602 32.2423 48.9602 22.4456 42.4802 13.3929L 42.3602 13.641L 35.4001 15.6251C 36.3601 17.2372 37.6801 19.3454 39.1201 22.0736C 44.8802 32.3663 49.8002 41.4189 53.7602 49.1075C 54.0002 49.4795 54.2402 49.9755 54.4802 50.4716C 57.3602 56.176 63.2402 67.9568 72.1203 85.8141C 63.4802 76.5134 57.2402 68.9489 53.2802 63.3685C 51.6002 61.0123 49.3202 57.5401 46.6802 53.0758C 44.0402 48.7355 40.9202 43.4031 37.4401 37.0786C 31.5601 26.6619 28.3201 20.7095 27.6001 19.3454C 27.6001 19.3454 27.3601 18.8493 27.0001 18.1053L 22.5601 19.3454C 22.9201 20.3374 23.2801 21.5775 23.7601 22.9416C 26.1601 29.5141 28.6801 36.2106 31.3201 42.783C 33.4801 48.1154 35.6401 53.0758 37.9201 57.7881C 44.5202 71.9251 51.0002 83.7059 57.7202 93.0066C 53.2802 89.7824 48.1202 84.45 42.3602 77.0095C 38.2801 71.8011 34.6801 66.4687 31.4401 61.0123C 30.6001 59.6482 29.7601 58.1601 28.9201 56.796C 25.2001 50.0995 21.7201 43.2791 18.6001 36.2106C 16.3201 31.0022 14.7601 26.7859 13.8001 23.5617Z"/>
<path id="path15_fill" d="M 16.4401 35.8385C 14.8801 38.3187 12.6 40.5509 9.60004 42.287C 7.44003 43.6511 5.16002 44.3951 2.76001 44.6432C 1.80001 44.7672 0.960004 44.7672 4.57765e-07 44.6432C 2.16001 48.1154 4.68002 50.0995 7.56003 50.4716C 10.44 50.9676 12.96 50.0995 15.1201 47.9914C 17.2801 45.8832 18.7201 43.8991 19.6801 41.915C 20.1601 41.0469 20.8801 38.9388 21.8401 35.4665C 22.8001 35.7145 24.0001 35.9625 25.4401 36.3346C 26.6401 36.4586 27.9601 36.0866 29.5201 35.2185C 30.8401 34.3504 31.8001 33.3584 32.4001 32.1183C 32.5201 31.7462 32.8801 30.7542 33.2401 29.0181C 36.4801 30.0101 39.2401 30.5062 41.5202 30.3822C 44.5202 30.2581 47.5202 29.3901 50.4002 27.654C 54.1202 25.4218 56.2802 21.9496 56.7602 17.3612C 58.5602 17.3612 60.0002 17.3612 60.9602 17.2372C 64.2002 16.8652 66.8403 16.2451 68.6403 15.1291C 72.9603 12.5249 75.1203 9.30066 74.7603 5.58039C 74.6403 4.09229 74.0403 2.23216 72.7203 -4.40568e-15C 72.7203 0.124009 72.7203 0.124009 72.7203 0.248017C 72.4803 2.8522 70.9203 5.08436 67.9202 6.94449C 65.0402 8.68061 62.6402 9.67268 60.6002 10.0447C 59.2802 10.2927 57.8402 10.1687 56.1602 9.79669C 55.8002 8.4326 55.2002 7.19251 54.6002 6.07643C 54.3602 5.7044 54.0002 5.20837 53.4002 4.83634C 53.4002 6.44846 53.1602 8.18458 52.4402 10.1687C 51.0002 14.261 48.6002 17.4852 45.0002 19.5934C 41.6402 21.5775 38.6401 22.4456 35.8801 21.9496C 34.5601 21.7015 33.4801 21.5775 32.5201 21.4535C 32.4001 21.4535 32.2801 21.4535 32.0401 21.7015C 31.9201 21.8255 31.5601 22.0736 30.8401 22.4456C 28.9201 23.5617 26.1601 24.0577 22.5601 24.0577C 18.1201 23.9337 15.0001 22.6936 13.08 20.2134C 12.96 20.7095 13.08 21.5775 13.44 22.9416C 13.8 24.3057 14.2801 25.5458 14.7601 26.4139C 15.8401 28.274 16.9201 29.6381 18.2401 30.5062C 18.2401 32.1183 17.5201 33.9784 16.4401 35.8385Z"/>
<path id="path16_fill" d="M 17.2112 1.20915C 8.27351 -5.20761 -3.41416 15.1885 0.940072 32.3763C 5.29431 49.5641 26.1488 62.3976 36.6906 59.8767C 47.2325 57.1267 43.1074 50.9391 50.67 26.4179C 56.6284 6.93841 28.4405 9.23011 17.2112 1.20915Z"/>
<path id="path17_fill" d="M 36.2481 3.86685C 19.7478 -8.96668 -2.71085 13.2628 0.268361 25.1797C 3.24757 37.0965 12.6436 62.5344 40.3732 51.5343C 58.2484 44.43 69.9361 35.7215 66.9569 23.8047C 63.9777 12.117 52.7483 16.7004 36.2481 3.86685Z"/>
<path id="path18_fill" d="M 20.3247 3.46512C 20.3247 3.46512 -3.27984 23.4029 0.386881 37.6115L 1.07439 39.9032C 4.74111 54.3409 2.90775 45.1741 20.0955 52.9659C 40.0333 62.1327 68.6796 35.3198 49.2001 24.0904C 31.554 14.2361 52.6377 -8.68091 20.3247 3.46512Z"/>
<path id="path19_fill" d="M 11.2354 0.807946C -3.88984 4.47467 -0.910627 19.3707 3.90195 38.3919C 8.71452 57.413 7.11033 65.6631 31.6315 62.6839C 38.0483 61.9964 43.09 55.3505 46.5276 49.6212C 51.5693 41.6002 56.1528 33.8085 54.7777 25.1C 50.1943 6.07886 26.3606 -2.85878 11.2354 0.807946Z"/>
<path id="path20_fill" d="M 30.1169 1.4628C 12.7 5.81703 -2.42525 26.9007 0.324789 37.9009C 3.07483 48.901 11.325 63.1096 30.8044 55.3178C 37.4504 52.7969 50.9714 56.922 51.4297 36.0675C 51.6589 24.609 62.6591 20.2548 61.0549 13.6088L 59.909 13.838C 57.159 2.83782 47.5338 -2.89144 30.1169 1.4628Z"/>
<path id="path21_fill" d="M 16.5003 0.916679C 13.2919 1.60419 9.39598 1.37502 5.50008 -8.74215e-07C 5.50008 0.229169 5.72926 0.687509 5.72926 0.916679C 7.10428 6.64593 4.81257 12.8335 8.74215e-07 18.3336C 2.06253 18.3336 3.89589 18.5628 5.50008 18.792C 6.64594 13.9794 9.85431 10.5418 16.0419 8.93764C 17.1878 8.70847 18.5628 8.4793 19.9378 8.25013C 18.5628 5.95843 17.4169 3.66672 16.5003 0.916679C 16.5003 0.916679 16.5003 0.687509 16.5003 0.916679Z"/>
<path id="path22_fill" d="M 11.9469 -1.74843e-06C 3.00922 11.0002 -1.11585 30.0213 0.259175 35.5214C 0.259175 35.9797 0.488346 36.4381 0.488346 36.6672C 3.69673 34.8339 6.90511 33.4589 10.1135 32.7713C 14.9261 31.6255 19.0511 30.938 22.2595 30.938C 27.3013 25.6671 29.593 19.4795 27.9888 13.521C 27.9888 13.2919 27.7596 12.8335 27.7596 12.6044C 25.6971 5.72925 19.9678 3.20838 11.9469 -1.74843e-06Z"/>
<path id="path23_fill" d="M 10.5418 0.653242C 4.35424 2.25743 1.14585 5.69499 8.74215e-07 10.5076C 5.04175 11.8826 8.02096 15.5493 9.39598 21.5077C 10.5418 26.0911 10.5418 33.1954 8.93764 40.2997C 9.62515 40.2997 10.3127 40.2997 11.0002 40.2997C 11.9169 40.2997 12.8335 40.0705 13.7502 39.8413C 27.2713 36.4038 35.9797 17.1535 34.1464 3.40329C 27.5004 0.653244 20.3961 -0.49261 14.2086 0.1949C 13.0627 0.1949 11.6877 0.424072 10.5418 0.653242Z"/>
<path id="path24_fill" d="M 27.2713 0.548245C 25.6671 0.0899046 23.8337 -0.139267 21.7712 0.0899028C 18.3336 0.0899028 14.4377 0.777412 9.62515 1.92326C 6.41677 2.61077 3.20838 3.9858 1.74843e-06 5.81916C 4.35424 20.9444 20.6253 30.5695 36.4381 30.3404C 38.0423 23.2361 38.0423 16.1318 36.8964 11.5484C 35.063 5.58999 32.313 1.92327 27.2713 0.548245Z"/>
<path id="path25_fill" d="M 11.0002 0.927454C 6.8751 2.07331 3.20838 4.82335 0 8.49008C 8.02096 11.6985 13.9794 14.2193 16.0419 21.3236C 19.9378 22.6986 23.8337 22.9278 27.0421 22.2403C 26.8129 21.5528 26.5837 20.8653 26.3546 19.9486C 24.7504 13.9902 26.3546 10.5526 29.563 7.57339C 23.8337 1.15662 21.542 -1.59342 11.0002 0.927454Z"/>
<path id="path26_fill" d="M 3.73932 -1.74843e-06C 0.530938 2.97921 -0.844087 6.41677 0.530934 12.3752C 0.760104 13.0627 0.989273 13.9794 1.21844 14.6669C 2.13512 17.4169 3.28098 19.9378 4.656 22.0003C 10.8436 21.3128 17.9479 22.4587 24.5938 25.2087C 23.9063 20.3961 22.0729 16.2711 18.8646 13.7502C 11.3019 8.4793 6.9477 3.66672 3.73932 -1.74843e-06Z"/>
<path id="path27_fill" d="M 36.6672 4.65261C 33.4589 -4.05586 27.0421 2.13174 27.0421 2.13174C 13.521 -2.68084 1.74843e-06 21.6112 1.74843e-06 21.6112C 1.74843e-06 21.6112 29.3338 -5.43088 30.7088 15.4236C 31.3963 24.8196 41.709 28.7155 41.709 28.7155C 26.3546 16.5695 39.8756 13.3611 36.6672 4.65261Z"/>
<path id="path28_fill" d="M -3.49686e-06 -1.74843e-06C 1.37502 0.916679 2.97921 1.60419 4.81258 1.83336C 7.56262 2.2917 4.81257 1.37502 -3.49686e-06 -1.74843e-06Z"/>
<path id="path29_fill" d="M 0.444497 7.33345C -3.4514 7.10428 19.2365 12.8335 30.4658 16.0419C 23.5907 11.4585 20.3823 -1.74843e-06 20.3823 -1.74843e-06C 20.3823 -1.74843e-06 19.6948 8.70847 0.444497 7.33345Z"/>
<path id="path30_fill" d="M 3.49686e-06 2.45566C 3.49686e-06 2.45566 8.47929 3.14317 8.47929 13.2267C 8.47929 15.9767 12.6044 4.97653 11.4585 3.14317C 7.56262 -3.50277 3.49686e-06 2.45566 3.49686e-06 2.45566Z"/>
<path id="path31_fill" d="M 0.384169 0.31705C -1.67836 -2.66216 4.96757 16.359 10.6968 15.4423C 19.8636 14.0673 17.5719 4.90045 17.5719 4.90045C 17.5719 4.90045 10.6968 15.4423 0.384169 0.31705Z"/>
<path id="path32_fill" d="M 2.24094 0.224412C -3.48831 1.59943 3.38679 29.7874 4.99099 23.1414C 7.9702 11.4538 16.4495 10.9954 16.4495 10.9954C 16.4495 10.9954 10.0327 -1.83812 2.24094 0.224412Z"/>
<path id="path33_fill" d="M 4.35423 17.8753L 11.2293 5.50008L 12.3752 1.83336L -8.74215e-07 -8.74215e-07L 4.35423 17.8753Z"/>
<path id="path34_fill" d="M 1.74843e-06 9.62515L 9.39598 4.12507L 2.75005 -8.74215e-07L 1.74843e-06 9.62515Z"/>
<path id="path35_fill" d="M 17.4169 34.8339C 27.036 34.8339 34.8339 27.036 34.8339 17.4169C 34.8339 7.79783 27.036 0 17.4169 0C 7.79783 0 0 7.79783 0 17.4169C 0 27.036 7.79783 34.8339 17.4169 34.8339Z"/>
<path id="path36_fill" d="M 7.79179 15.5836C 12.0951 15.5836 15.5836 12.0951 15.5836 7.79179C 15.5836 3.4885 12.0951 0 7.79179 0C 3.4885 0 0 3.4885 0 7.79179C 0 12.0951 3.4885 15.5836 7.79179 15.5836Z"/>
<path id="path37_fill" d="M 5.77708 0.200636C 1.65202 1.11732 -0.868853 5.47155 0.276998 9.59662C 0.276998 10.055 0.506166 10.5133 0.735336 10.7425C 3.02704 12.805 5.77708 12.5758 7.83961 12.1175C 11.2772 11.2008 13.5689 9.59661 15.4022 5.70072C 14.0272 1.57566 9.90215 -0.716045 5.77708 0.200636Z"/>
<path id="path38_fill" d="M 28.8754 19.7086L 0 37.5839C 0 37.5839 12.8335 41.709 22.0003 34.6047C 41.9381 19.0211 38.2714 1.74843e-06 38.2714 1.74843e-06C 38.2714 1.74843e-06 38.2714 15.1252 28.8754 19.7086Z"/>
<path id="path39_fill" d="M 21.0837 7.13529C 19.2503 5.07276 16.0419 0.260184 13.2919 0.0310137C 2.06253 -0.885667 0 18.823 0 18.823C 0 18.823 4.5834 4.84359 13.7502 7.36446C 16.5003 8.28114 15.3544 14.0104 22.6879 15.3854C 28.8754 16.5313 43.084 14.0104 46.9799 21.8022C 49.5008 27.0731 44.0007 44.9484 44.0007 44.9484C 44.0007 44.9484 52.7091 30.969 52.9383 25.6981C 52.9383 22.4897 52.48 17.2188 50.4174 14.9271C 41.709 5.5311 26.5837 13.3229 21.0837 7.13529Z"/>
<path id="path40_fill" d="M 1.83336 3.66672C 2.8459 3.66672 3.66672 2.8459 3.66672 1.83336C 3.66672 0.820824 2.8459 0 1.83336 0C 0.820826 0 0 0.820824 0 1.83336C 0 2.8459 0.820826 3.66672 1.83336 3.66672Z"/>
<path id="path41_fill" d="M 1.83336 3.66673C 2.8459 3.66673 3.66673 2.8459 3.66673 1.83336C 3.66673 0.82082 2.8459 0 1.83336 0C 0.820823 0 0 0.82082 0 1.83336C 0 2.8459 0.820823 3.66673 1.83336 3.66673Z"/>
<path id="path42_fill" d="M 0.916679 1.83336C 1.42295 1.83336 1.83336 1.42295 1.83336 0.91668C 1.83336 0.410411 1.42295 0 0.916679 0C 0.41041 0 0 0.410411 0 0.91668C 0 1.42295 0.41041 1.83336 0.916679 1.83336Z"/>
<path id="path43_fill" d="M 0.91668 1.83336C 1.42295 1.83336 1.83336 1.42295 1.83336 0.916679C 1.83336 0.41041 1.42295 3.49686e-06 0.91668 3.49686e-06C 0.410411 3.49686e-06 0 0.41041 0 0.916679C 0 1.42295 0.410411 1.83336 0.91668 1.83336Z"/>
<path id="path44_fill" d="M 0.916683 1.83336C 1.42295 1.83336 1.83336 1.42295 1.83336 0.916683C 1.83336 0.410414 1.42295 0 0.916683 0C 0.410414 0 0 0.410414 0 0.916683C 0 1.42295 0.410414 1.83336 0.916683 1.83336Z"/>
<path id="path45_fill" d="M 1.83336 3.66672C 2.8459 3.66672 3.66672 2.8459 3.66672 1.83336C 3.66672 0.820826 2.8459 3.49686e-06 1.83336 3.49686e-06C 0.820826 3.49686e-06 3.49686e-06 0.820826 3.49686e-06 1.83336C 3.49686e-06 2.8459 0.820826 3.66672 1.83336 3.66672Z"/>
<path id="path46_fill" d="M 0.916681 1.83336C 1.42295 1.83336 1.83337 1.42295 1.83337 0.916679C 1.83337 0.41041 1.42295 3.49686e-06 0.916681 3.49686e-06C 0.410412 3.49686e-06 -3.49686e-06 0.41041 -3.49686e-06 0.916679C -3.49686e-06 1.42295 0.410412 1.83336 0.916681 1.83336Z"/>
<path id="path47_fill" d="M 0.916679 1.83336C 1.42295 1.83336 1.83336 1.42295 1.83336 0.916683C 1.83336 0.410414 1.42295 0 0.916679 0C 0.41041 0 3.49686e-06 0.410414 3.49686e-06 0.916683C 3.49686e-06 1.42295 0.41041 1.83336 0.916679 1.83336Z"/>
<path id="path48_fill" d="M 0.916683 1.83336C 1.42295 1.83336 1.83336 1.42295 1.83336 0.91668C 1.83336 0.410411 1.42295 0 0.916683 0C 0.410414 0 0 0.410411 0 0.91668C 0 1.42295 0.410414 1.83336 0.916683 1.83336Z"/>
<path id="path49_fill" d="M 1.83337 3.66672C 2.8459 3.66672 3.66673 2.8459 3.66673 1.83336C 3.66673 0.820824 2.8459 0 1.83337 0C 0.820827 0 -3.49686e-06 0.820824 -3.49686e-06 1.83336C -3.49686e-06 2.8459 0.820827 3.66672 1.83337 3.66672Z"/>
<path id="path50_fill" d="M 1.83336 3.66673C 2.8459 3.66673 3.66673 2.8459 3.66673 1.83336C 3.66673 0.82082 2.8459 0 1.83336 0C 0.820825 0 0 0.82082 0 1.83336C 0 2.8459 0.820825 3.66673 1.83336 3.66673Z"/>
<path id="path51_fill" d="M 1.83336 3.66672C 2.8459 3.66672 3.66672 2.8459 3.66672 1.83336C 3.66672 0.820826 2.8459 3.49686e-06 1.83336 3.49686e-06C 0.820825 3.49686e-06 0 0.820826 0 1.83336C 0 2.8459 0.820825 3.66672 1.83336 3.66672Z"/>
<path id="path52_fill" d="M 1.83336 3.66672C 2.8459 3.66672 3.66672 2.8459 3.66672 1.83336C 3.66672 0.820824 2.8459 0 1.83336 0C 0.820822 0 0 0.820824 0 1.83336C 0 2.8459 0.820822 3.66672 1.83336 3.66672Z"/>
<path id="path53_fill" d="M 1.5191 18.3835C -6.50186 38.5505 19.8527 52.9882 19.8527 52.9882C 3.12329 39.9255 23.7486 41.5297 8.39421 29.6128C 2.20661 24.8002 10.9151 -9.80446 38.8738 5.32078C 38.6447 5.32078 14.1235 -13.0128 1.5191 18.3835Z"/>
<path id="path54_fill" d="M 0.22917 0.22917C 0.22917 0.22917 -8.74215e-07 0.229169 -8.74215e-07 -8.74215e-07C -8.74215e-07 -8.74215e-07 0 0.22917 0.22917 0.22917Z"/>
<path id="path55_fill" d="M 1.74843e-06 8.74215e-07C 0.458342 0.229171 0.916683 0.458341 1.74843e-06 8.74215e-07L 1.74843e-06 8.74215e-07Z"/>
<path id="path56_fill" d="M 0 0C 0.22917 0 0.229172 0.229171 0.458342 0.229171C 0.229172 0.229171 0.22917 0 0 0Z"/>
</defs>
</svg>
