<svg width="632" height="461" viewBox="0 0 632 461" version="1.1" xmlns="http://www.w3.org/2000/svg" xmlns:xlink="http://www.w3.org/1999/xlink">
<title>Group</title>
<desc>Created using Figma</desc>
<g id="Canvas" transform="translate(405 -4949)">
<g id="Group">
<g id="Vector">
<use xlink:href="#path0_fill" transform="translate(-193.823 5103.77)" fill="#213828"/>
</g>
<g id="Vector">
<use xlink:href="#path1_fill" transform="translate(153.26 5249.7)" fill="#213828"/>
</g>
<g id="Vector">
<use xlink:href="#path2_fill" transform="translate(-333.332 5074.66)" fill="#213828"/>
</g>
<g id="Vector">
<use xlink:href="#path3_fill" transform="translate(77.1759 5360.19)" fill="#213828"/>
</g>
<g id="Vector">
<use xlink:href="#path4_fill" transform="translate(-42.5817 5115.26)" fill="#213828"/>
</g>
<g id="Vector">
<use xlink:href="#path5_fill" transform="translate(-258.094 5063.93)" fill="#213828"/>
</g>
<g id="Vector">
<use xlink:href="#path6_fill" transform="translate(-109.148 5026.9)" fill="#213828"/>
</g>
<g id="Group">
<g id="Vector">
<use xlink:href="#path7_fill" transform="translate(-257.839 5042.99)" fill="#513C34"/>
</g>
<g id="Vector">
<use xlink:href="#path8_fill" transform="translate(-168.319 5092.28)" fill="#513C34"/>
</g>
<g id="Vector">
<use xlink:href="#path9_fill" transform="translate(-1.00992 5045.79)" fill="#513C34"/>
</g>
<g id="Vector">
<use xlink:href="#path10_fill" transform="translate(-342.514 5341.29)" fill="#513C34"/>
</g>
<g id="Group">
<g id="Vector">
<use xlink:href="#path11_fill" transform="translate(-107.108 5046.56)" fill="#513C34"/>
</g>
<g id="Vector">
<use xlink:href="#path12_fill" transform="translate(-64.2605 5128.03)" fill="#513C34"/>
</g>
<g id="Vector">
<use xlink:href="#path13_fill" transform="translate(-294.056 5039.92)" fill="#513C34"/>
</g>
<g id="Vector">
<use xlink:href="#path14_fill" transform="translate(212.717 5365)" fill="#513C34"/>
</g>
<g id="Vector">
<use xlink:href="#path15_fill" transform="translate(87.2357 5360.19)" fill="#513C34"/>
</g>
<g id="Vector">
<use xlink:href="#path16_fill" transform="translate(27.8706 5345.63)" fill="#513C34"/>
</g>
</g>
<g id="Vector">
<use xlink:href="#path17_fill" transform="translate(-322.876 5314.47)" fill="#513C34"/>
</g>
</g>
<g id="Vector">
<use xlink:href="#path18_fill" transform="translate(-102.517 4976.33)" fill="#2C4936"/>
</g>
<g id="Vector">
<use xlink:href="#path19_fill" transform="translate(-304.767 4969.43)" fill="#2C4936"/>
</g>
<g id="Vector">
<use xlink:href="#path20_fill" transform="translate(-310.634 5072.36)" fill="#2C4936"/>
</g>
<g id="Vector">
<use xlink:href="#path21_fill" transform="translate(-296.606 5103.77)" fill="#2C4936"/>
</g>
<g id="Vector">
<use xlink:href="#path22_fill" transform="translate(65.0469 5114.24)" fill="#2C4936"/>
</g>
<g id="Vector">
<use xlink:href="#path23_fill" transform="translate(27.5555 5177.32)" fill="#2C4936"/>
</g>
<g id="Vector">
<use xlink:href="#path24_fill" transform="translate(93.6118 5175.79)" fill="#2C4936"/>
</g>
<g id="Vector">
<use xlink:href="#path25_fill" transform="translate(-356.797 5112.45)" fill="#2C4936"/>
</g>
<g id="Vector">
<use xlink:href="#path26_fill" transform="translate(53.0444 5005.92)" fill="#2C4936"/>
</g>
<g id="Vector">
<use xlink:href="#path27_fill" transform="translate(-367.763 5145.32)" fill="#2C4936"/>
</g>
<g id="Vector">
<use xlink:href="#path28_fill" transform="translate(-379.496 5217.2)" fill="#2C4936"/>
</g>
<g id="Vector">
<use xlink:href="#path29_fill" transform="translate(-12.203 4959.22)" fill="#2C4936"/>
</g>
<g id="Vector">
<use xlink:href="#path30_fill" transform="translate(-312.262 5049.12)" fill="#2C4936"/>
</g>
<g id="Vector">
<use xlink:href="#path31_fill" transform="translate(-109.261 4977.09)" fill="#2C4936"/>
</g>
<g id="Vector">
<use xlink:href="#path32_fill" transform="translate(154.064 5137.16)" fill="#2C4936"/>
</g>
<g id="Vector">
<use xlink:href="#path33_fill" transform="translate(81.8652 5091.16)" fill="#2C4936"/>
</g>
<g id="Vector">
<use xlink:href="#path34_fill" transform="translate(-332.822 5081)" fill="#2C4936"/>
</g>
<g id="Vector">
<use xlink:href="#path35_fill" transform="translate(-405 5318.23)" fill="#2C4936"/>
</g>
<g id="Vector">
<use xlink:href="#path36_fill" transform="translate(129.078 5162.72)" fill="#2C4936"/>
</g>
<g id="Vector">
<use xlink:href="#path37_fill" transform="translate(-353.807 5323.68)" fill="#2C4936"/>
</g>
<g id="Vector">
<use xlink:href="#path38_fill" transform="translate(13.0175 5230.45)" fill="#2C4936"/>
</g>
<g id="Vector">
<use xlink:href="#path39_fill" transform="translate(48.1988 5047.55)" fill="#2C4936"/>
</g>
<g id="Vector">
<use xlink:href="#path40_fill" transform="translate(-164.032 4959.98)" fill="#2C4936"/>
</g>
<g id="Vector">
<use xlink:href="#path41_fill" transform="translate(-136.776 4949)" fill="#2C4936"/>
</g>
<g id="Vector">
<use xlink:href="#path42_fill" transform="translate(-167.809 5010.67)" fill="#2C4936"/>
</g>
<g id="Vector">
<use xlink:href="#path43_fill" transform="translate(-286.417 5314.23)" fill="#2C4936"/>
</g>
<g id="Vector">
<use xlink:href="#path44_fill" transform="translate(148.38 5190.93)" fill="#2C4936"/>
</g>
<g id="Vector">
<use xlink:href="#path45_fill" transform="translate(23.4746 5110.41)" fill="#2C4936"/>
</g>
<g id="Vector">
<use xlink:href="#path46_fill" transform="translate(-225.959 5036.6)" fill="#2C4936"/>
</g>
<g id="Vector">
<use xlink:href="#path47_fill" transform="translate(-367.253 5239.67)" fill="#2C4936"/>
</g>
<g id="Vector">
<use xlink:href="#path48_fill" transform="translate(-330.272 5117.05)" fill="#2C4936"/>
</g>
<g id="Vector">
<use xlink:href="#path49_fill" transform="translate(-244.832 5141.51)" fill="#2C4936"/>
</g>
<g id="Vector">
<use xlink:href="#path50_fill" transform="translate(92.024 5209.2)" fill="#2C4936"/>
</g>
<g id="Vector">
<use xlink:href="#path51_fill" transform="translate(-27.279 5162.77)" fill="#2C4936"/>
</g>
<g id="Vector">
<use xlink:href="#path52_fill" transform="translate(92.5252 5342.38)" fill="#2C4936"/>
</g>
</g>
</g>
<defs>
<path id="path0_fill" d="M 96.9169 213.511C 150.443 213.511 193.834 165.715 193.834 106.755C 193.834 47.796 150.443 -3.89703e-06 96.9169 -3.89703e-06C 43.3912 -3.89703e-06 7.78334e-06 47.796 7.78334e-06 106.755C 7.78334e-06 165.715 43.3912 213.511 96.9169 213.511Z"/>
<path id="path1_fill" d="M 7.68307 5.5198C 2.0721 -5.20682 -7.87463 0.922673 10.9987 13.4371C 10.9987 13.1817 10.9987 12.9263 10.9987 12.9263C 9.97848 10.3723 8.95829 8.07376 7.68307 5.5198Z"/>
<path id="path2_fill" d="M 476.678 186.95C 457.805 174.435 488.92 169.838 494.276 180.565C 495.551 183.119 496.571 185.417 497.592 187.971C 497.592 163.709 493.001 137.658 490.96 110.076C 488.155 68.9568 437.911 121.568 396.084 121.568C 393.789 121.568 391.493 121.824 389.453 122.079C 386.902 54.3993 300.697 1.94851e-06 194.854 1.94851e-06C 87.2252 1.94851e-06 9.72917e-07 55.9316 9.72917e-07 125.144C 9.72917e-07 126.932 1.93823e-06 128.719 0.255046 130.507C 0.255046 130.507 2.55044 172.392 2.55044 206.615C 2.55044 241.349 2.04035 277.36 2.04035 277.36C 9.43664 304.687 9.1816 322.82 58.1501 339.165C 58.1501 339.165 36.4713 293.194 64.0161 275.572C 65.8015 274.295 70.1372 271.23 70.3923 273.529C 72.6877 326.651 120.126 320.011 120.126 320.011C 106.098 294.982 134.408 270.719 125.227 284C 108.394 308.518 141.04 333.547 141.04 333.547C 147.416 301.367 187.203 292.173 187.203 292.173C 187.203 292.173 195.109 316.435 210.157 327.417C 229.03 341.464 270.092 336.101 260.145 289.363C 260.145 289.363 244.333 287.831 260.91 311.072C 287.945 348.871 350.176 335.079 372.875 335.335L 369.559 314.647C 372.62 317.968 390.983 339.421 432.81 318.478C 432.81 318.478 411.642 288.597 410.621 285.788C 410.621 285.788 410.366 285.532 410.621 285.532C 410.621 285.532 410.621 285.532 410.621 285.788C 412.917 287.831 453.979 303.665 453.979 303.665L 465.201 251.82C 465.201 251.82 513.659 229.601 497.592 188.227L 476.678 186.95Z"/>
<path id="path3_fill" d="M 0.113369 0C -0.141676 0 0.113369 0 0.113369 0L 0.113369 0Z"/>
<path id="path4_fill" d="M 78.0436 115.95C 121.146 115.95 156.087 89.9934 156.087 57.9748C 156.087 25.9562 121.146 -3.89703e-06 78.0436 -3.89703e-06C 34.9413 -3.89703e-06 1.55667e-05 25.9562 1.55667e-05 57.9748C 1.55667e-05 89.9934 34.9413 115.95 78.0436 115.95Z"/>
<path id="path5_fill" d="M 78.0436 115.95C 121.146 115.95 156.087 89.9934 156.087 57.9748C 156.087 25.9562 121.146 0 78.0436 0C 34.9413 0 -3.89167e-06 25.9562 -3.89167e-06 57.9748C -3.89167e-06 89.9934 34.9413 115.95 78.0436 115.95Z"/>
<path id="path6_fill" d="M 96.9169 153.748C 150.443 153.748 193.834 119.33 193.834 76.8741C 193.834 34.4177 150.443 0 96.9169 0C 43.3912 0 0 34.4177 0 76.8741C 0 119.33 43.3912 153.748 96.9169 153.748Z"/>
<path id="path7_fill" d="M 61.9758 3.06475L 78.5537 43.4173C 70.9023 38.3093 60.9556 33.2014 48.2034 28.0935C 25.2494 18.8993 2.2954 12.7698 2.04035 12.7698L 1.94583e-06 20.9424C 28.82 28.3489 59.9354 38.5647 72.6876 53.6331C 72.6876 53.6331 81.1041 47.759 89.2655 49.2914L 69.117 -1.94851e-06L 61.9758 3.06475Z"/>
<path id="path8_fill" d="M 7.78334e-06 -3.89703e-06L 2.29539 5.8741C 5.10088 9.70504 6.63115 13.536 6.8862 17.1115L 15.5577 38.054C 15.8128 9.96043 7.90638 1.27697 7.78334e-06 -3.89703e-06Z"/>
<path id="path9_fill" d="M -1.55667e-05 15.3237C 6.88618 13.7914 11.222 13.2806 11.222 13.2806L 9.1816 3.89703e-06C 9.1816 3.89703e-06 5.61096 5.8741 -1.55667e-05 15.3237Z"/>
<path id="path10_fill" d="M 0 22.4748L 6.8862 26.3057C 7.14124 25.5396 10.9669 13.0252 19.6384 1.55881e-05C 6.37611 10.2158 0.510089 21.4532 0 22.4748Z"/>
<path id="path11_fill" d="M 7.78334e-06 72.277C 24.9944 64.8705 39.5319 71.7662 43.1025 81.4712L 45.1429 0.255394L 37.2365 1.94851e-06L 7.78334e-06 72.277Z"/>
<path id="path12_fill" d="M 1.55667e-05 11.2374C 0.25506 10.2158 0.510073 9.44964 0.765118 8.42806C 1.27521 5.61871 1.27521 2.80935 0.255037 -3.89703e-06L 1.55667e-05 11.2374Z"/>
<path id="path13_fill" d="M 430.515 340.187C 430.515 340.187 440.462 318.734 440.462 316.435C 440.462 316.946 425.414 334.568 414.702 338.144L 324.927 300.856L 324.416 300.856L 325.182 302.388C 325.182 302.388 260.145 371.856 236.936 359.342C 224.184 352.446 234.641 314.647 236.936 300.09C 239.232 285.788 273.918 259.482 316.765 250.543C 355.787 242.37 400.42 263.313 400.93 263.313C 400.42 263.313 386.137 237.263 345.84 234.709C 301.718 231.899 248.923 261.014 238.722 272.507C 238.722 272.507 235.151 237.263 240.762 230.878C 274.683 191.291 364.458 161.41 364.458 161.41C 403.99 180.054 348.391 150.173 349.666 148.896L 413.172 87.0899L 407.816 81.2158L 362.418 125.144C 378.486 80.4496 378.996 4.08633 379.251 -3.89703e-06L 371.345 -3.89703e-06C 371.345 0.255392 371.09 31.1583 367.264 64.6151C 362.673 104.201 354.767 131.018 344.31 142.766L 234.386 209.424C 226.224 48.0144 281.569 75.5971 305.798 34.7338C 285.65 39.5863 244.333 54.3993 230.815 96.5396C 230.56 97.5612 230.305 98.3273 230.05 99.3489C 213.217 140.723 216.023 193.845 218.573 238.795C 218.573 238.795 200.465 102.669 148.436 105.478C 142.57 105.734 123.441 135.615 131.093 133.317C 184.907 117.993 159.658 283.489 159.658 283.489C 159.658 283.489 159.658 283.489 147.161 255.651C 136.449 232.155 110.689 158.856 110.689 158.856C 110.689 158.856 91.0508 166.263 93.3462 171.115C 109.924 204.061 140.274 269.953 140.274 269.953C 59.9354 170.86 6.63116 203.295 3.06053 201.507L -2.17464e-13 222.194C 1.02018 222.705 67.5868 184.14 147.926 305.453C 156.597 318.734 154.047 320.522 157.872 323.842C 152.772 321.543 139.509 316.691 122.931 314.903C 54.8345 306.986 63.251 291.406 36.2163 231.388L 14.7926 231.388C 24.4843 252.842 19.1283 253.353 35.1961 266.122C 33.6659 266.633 32.9007 267.655 36.7264 267.655C 53.8144 318.989 66.5666 322.565 120.891 332.014C 160.678 338.91 176.491 374.921 156.852 388.201L 100.998 406.079L 286.415 403.525C 252.494 384.115 333.598 323.586 333.598 323.586C 333.598 323.586 365.989 371.856 406.031 314.647C 405.266 314.392 468.262 355.766 430.515 340.187ZM 199.445 345.04C 199.445 345.04 199.445 346.827 195.619 345.806C 175.981 341.209 174.195 150.173 174.195 150.173C 174.195 150.173 200.465 191.291 211.687 291.151C 215.513 327.673 199.445 345.04 199.445 345.04Z"/>
<path id="path14_fill" d="M -7.78334e-06 0.294906C 0.255037 -0.215886 0.255037 0.0395098 -7.78334e-06 0.294906L -7.78334e-06 0.294906Z"/>
<path id="path15_fill" d="M 0 0L 14.5375 7.15109C 14.5375 7.15109 0 0.255396 0 0Z"/>
<path id="path16_fill" d="M 53.7542 14.5608C 53.4991 14.5608 88.6952 -0.252123 88.4402 0.00327277C 88.6952 0.00327277 -84.99 6.89895 53.7542 14.5608Z"/>
<path id="path17_fill" d="M 1.94583e-06 26.5611C 9.69169 18.8993 23.209 11.4928 41.5722 9.19424C 37.2365 6.38488 33.1558 3.32016 29.0751 1.55881e-05C 15.8127 6.12951 6.37611 16.6007 1.94583e-06 26.5611Z"/>
<path id="path18_fill" d="M 106.864 198.187C 165.883 198.187 213.727 153.821 213.727 99.0935C 213.727 44.3657 165.883 0 106.864 0C 47.8445 0 -3.89167e-06 44.3657 -3.89167e-06 99.0935C -3.89167e-06 153.821 47.8445 198.187 106.864 198.187Z"/>
<path id="path19_fill" d="M 110.944 205.849C 172.217 205.849 221.889 159.768 221.889 102.924C 221.889 46.0808 172.217 0 110.944 0C 49.6715 0 -1.94583e-06 46.0808 -1.94583e-06 102.924C -1.94583e-06 159.768 49.6715 205.849 110.944 205.849Z"/>
<path id="path20_fill" d="M 55.8547 86.3237C 86.7024 86.3237 111.709 66.9995 111.709 43.1619C 111.709 19.3242 86.7024 -1.94851e-06 55.8547 -1.94851e-06C 25.007 -1.94851e-06 0 19.3242 0 43.1619C 0 66.9995 25.007 86.3237 55.8547 86.3237Z"/>
<path id="path21_fill" d="M 55.8547 86.3237C 86.7024 86.3237 111.709 66.9995 111.709 43.1619C 111.709 19.3242 86.7024 -3.89703e-06 55.8547 -3.89703e-06C 25.007 -3.89703e-06 0 19.3242 0 43.1619C 0 66.9995 25.007 86.3237 55.8547 86.3237Z"/>
<path id="path22_fill" d="M 55.0896 -7.79406e-06C 11.732 -7.79406e-06 7.78334e-06 79.6835 7.78334e-06 138.169C 7.78334e-06 196.655 11.732 211.978 55.0896 211.978C 98.4471 211.978 133.643 164.475 133.643 105.989C 133.643 47.5036 98.4471 -7.79406e-06 55.0896 -7.79406e-06Z"/>
<path id="path23_fill" d="M 32.1356 66.4029C 49.8836 66.4029 64.2712 51.5381 64.2712 33.2014C 64.2712 14.8648 49.8836 3.89703e-06 32.1356 3.89703e-06C 14.3876 3.89703e-06 1.55667e-05 14.8648 1.55667e-05 33.2014C 1.55667e-05 51.5381 14.3876 66.4029 32.1356 66.4029Z"/>
<path id="path24_fill" d="M 35.1961 7.79406e-06C 2.8055 7.79406e-06 0 42.9065 0 64.8705C 0 86.8345 2.8055 79.1727 35.1961 79.1727C 67.5868 79.1727 93.8563 61.5504 93.8563 39.5863C 93.8563 17.6223 67.8418 7.79406e-06 35.1961 7.79406e-06Z"/>
<path id="path25_fill" d="M 69.6271 145.065C 108.081 145.065 139.254 112.591 139.254 72.5324C 139.254 32.4739 108.081 0 69.6271 0C 31.1731 0 0 32.4739 0 72.5324C 0 112.591 31.1731 145.065 69.6271 145.065Z"/>
<path id="path26_fill" d="M 31.6408 0.0361936C 11.7474 1.05778 -0.494729 11.7844 0.0153593 24.2988C 0.525448 36.8132 12.2575 46.0074 32.1509 44.7304C 52.0444 43.7089 73.2131 19.9571 73.2131 19.9571C 73.2131 19.9571 51.7894 -0.985389 31.6408 0.0361936Z"/>
<path id="path27_fill" d="M 45.908 11.8263C 30.8604 -1.70971 9.72917e-07 0.078062 9.72917e-07 0.078062C 9.72917e-07 0.078062 1.27522 30.9809 16.3228 44.5169C 31.3705 58.0529 47.4383 59.3299 55.0896 49.8802C 62.996 40.4306 60.9556 25.3622 45.908 11.8263Z"/>
<path id="path28_fill" d="M 40.042 0.222589C 20.1485 2.01036 0 15.0355 0 15.0355C 0 15.0355 3.31558 60.496 68.0969 67.3916C 87.9903 69.4348 94.6215 32.4025 93.3462 20.1435C 92.3261 7.62907 59.9354 -1.56518 40.042 0.222589Z"/>
<path id="path29_fill" d="M 5.32707 27.0719C -3.59949 45.4604 -0.79403 61.8057 9.91783 67.4245C 20.6297 73.0432 34.1471 67.4245 43.3287 49.036C 52.2552 30.6475 43.0736 0 43.0736 0C 43.0736 0 14.2536 8.42806 5.32707 27.0719Z"/>
<path id="path30_fill" d="M 0.863651 1.94851e-06C 0.863651 1.94851e-06 -3.72715 30.3921 8.25993 46.7374C 20.5021 63.0827 35.8047 67.6799 45.2414 60.018C 54.678 52.6115 55.6982 37.2878 43.4561 20.9424C 31.2139 4.59713 0.863651 1.94851e-06 0.863651 1.94851e-06Z"/>
<path id="path31_fill" d="M 2.15225 42.6511C -3.45872 62.5719 2.40729 77.8957 13.8843 81.2158C 25.3613 84.536 37.8584 76.1079 43.2144 56.187C 48.5703 36.2662 30.9723 0 30.9723 0C 30.9723 0 7.76323 22.7302 2.15225 42.6511Z"/>
<path id="path32_fill" d="M 25.2427 1.59776C 6.36944 7.98265 -2.81217 21.774 0.758448 33.5222C 4.58411 45.2704 18.1015 51.1445 36.9747 44.7596C 55.848 38.3747 70.3856 10.0258 70.3856 10.0258C 70.3856 10.0258 44.3711 -4.78714 25.2427 1.59776Z"/>
<path id="path33_fill" d="M 22.7136 3.66678C 4.09531 12.6056 -3.55603 27.1632 1.54486 37.8898C 6.64575 48.6164 20.9282 52.7028 39.5465 43.5085C 58.1647 34.5697 69.6417 4.94376 69.6417 4.94376C 69.6417 4.94376 41.0767 -5.27207 22.7136 3.66678Z"/>
<path id="path34_fill" d="M 45.6529 0.551937C 26.0145 -3.279 -1.94583e-06 14.0879 -1.94583e-06 14.0879C -1.94583e-06 14.0879 16.0678 40.1383 35.7062 43.9692C 55.3446 47.8001 69.6271 40.6491 71.9225 28.3901C 74.2179 16.6419 65.2914 4.63827 45.6529 0.551937Z"/>
<path id="path35_fill" d="M 27.7998 5.4316C 9.94673 14.8812 0 45.2733 0 45.2733C 0 45.2733 28.0549 55.4892 45.908 46.0395C 63.7611 36.5899 70.6473 21.7769 65.2914 10.7949C 59.6804 -0.442489 45.3979 -4.01804 27.7998 5.4316Z"/>
<path id="path36_fill" d="M 35.946 1.06762C 10.6966 6.68633 -2.82078 20.9885 0.494802 34.2691C 3.81038 47.5496 20.1332 55.4669 45.3826 49.8482C 70.632 44.2295 92.8209 13.8374 92.8209 13.8374C 92.8209 13.8374 61.1953 -4.55108 35.946 1.06762Z"/>
<path id="path37_fill" d="M 44.7034 3.81286C 35.2668 -3.59362 20.7292 -0.528879 8.74214 15.8164C -3.24494 32.4172 0.58072 64.0863 0.58072 64.0863C 0.58072 64.0863 30.1659 60.7661 42.153 44.1654C 54.3951 27.8201 54.14 11.2193 44.7034 3.81286Z"/>
<path id="path38_fill" d="M 84.1646 168.561C 130.647 168.561 168.329 130.827 168.329 84.2806C 168.329 37.7337 130.647 -7.79406e-06 84.1646 -7.79406e-06C 37.6818 -7.79406e-06 -1.55667e-05 37.7337 -1.55667e-05 84.2806C -1.55667e-05 130.827 37.6818 168.561 84.1646 168.561Z"/>
<path id="path39_fill" d="M 31.6409 0.0357692C 11.7474 1.05735 -0.494753 11.5286 0.0153359 24.043C 0.525425 36.302 12.0024 45.7516 32.1509 44.73C 52.0444 43.7084 73.2131 20.212 73.2131 20.212C 73.2131 20.212 51.5343 -0.985814 31.6409 0.0357692Z"/>
<path id="path40_fill" d="M 12.5461 4.87129e-07C 12.5461 4.87129e-07 -3.7767 25.795 0.814101 45.9712C 5.4049 66.1475 17.9021 76.6187 29.3791 73.8093C 41.1111 71 47.7423 57.464 43.1515 37.2878C 38.8157 17.1115 12.5461 4.87129e-07 12.5461 4.87129e-07Z"/>
<path id="path41_fill" d="M 18.7012 0C 18.7012 0 -1.44732 22.7302 0.0829461 43.4173C 1.61321 64.1043 12.07 76.3633 24.0571 75.5971C 36.0442 74.5755 44.7157 62.5719 43.4405 41.8849C 41.9102 21.1978 18.7012 0 18.7012 0Z"/>
<path id="path42_fill" d="M 38.5117 0.646306C 18.6182 3.96645 0 29.506 0 29.506C 0 29.506 23.4641 48.4053 43.3575 45.3406C 62.996 42.2758 74.2179 30.2722 72.4326 18.0132C 70.6473 5.75422 58.1501 -2.41844 38.5117 0.646306Z"/>
<path id="path43_fill" d="M 16.8452 0.237659C 5.1132 2.28082 -2.53813 15.306 0.777446 35.7376C 4.09302 56.1693 29.3424 75.0686 29.3424 75.0686C 29.3424 75.0686 47.1955 50.2952 43.6249 29.8635C 40.3093 9.43188 28.5773 -1.80551 16.8452 0.237659Z"/>
<path id="path44_fill" d="M 42.9136 9.63161C 26.8458 -2.88278 10.778 -2.62738 3.63678 7.07766C -3.50446 17.0381 -0.443897 31.851 15.6239 44.11C 31.6917 56.6244 78.6199 44.11 78.6199 44.11C 78.6199 44.11 58.9814 22.146 42.9136 9.63161Z"/>
<path id="path45_fill" d="M 70.1372 140.468C 108.873 140.468 140.274 109.023 140.274 70.2338C 140.274 31.4447 108.873 1.94851e-06 70.1372 1.94851e-06C 31.4015 1.94851e-06 0 31.4447 0 70.2338C 0 109.023 31.4015 140.468 70.1372 140.468Z"/>
<path id="path46_fill" d="M 65.2914 134.338C 101.351 134.338 130.583 104.266 130.583 67.1691C 130.583 30.0726 101.351 -1.94851e-06 65.2914 -1.94851e-06C 29.2319 -1.94851e-06 -7.78334e-06 30.0726 -7.78334e-06 67.1691C -7.78334e-06 104.266 29.2319 134.338 65.2914 134.338Z"/>
<path id="path47_fill" d="M 84.1646 1.49905C 38.5117 10.1825 4.86459e-07 34.4451 4.86459e-07 75.053C 4.86459e-07 115.661 37.7466 162.143 84.1646 162.143C 111.964 162.143 136.704 145.287 152.006 123.323L 140.785 101.87L 184.652 114.639C 189.498 103.913 168.584 -14.5909 84.1646 1.49905Z"/>
<path id="path48_fill" d="M 62.7409 125.655C 97.3918 125.655 125.482 97.5259 125.482 62.8273C 125.482 28.1288 97.3918 7.79406e-06 62.7409 7.79406e-06C 28.0901 7.79406e-06 -1.94583e-06 28.1288 -1.94583e-06 62.8273C -1.94583e-06 97.5259 28.0901 125.655 62.7409 125.655Z"/>
<path id="path49_fill" d="M 41.8273 5.92759C 10.7119 20.9959 -1.94583e-06 24.5715 -1.94583e-06 54.1974L 91.816 71.8197C 86.205 56.4959 98.9572 -21.9105 41.8273 5.92759Z"/>
<path id="path50_fill" d="M 73.5101 6.43219C 49.0258 -9.65774 12.8095 7.70917 3.88297 22.7775C -5.04359 37.5905 1.0775 58.5329 25.8168 74.6228C 50.3011 90.7128 118.653 85.0941 118.653 85.0941C 118.653 85.0941 98.2494 22.5221 73.5101 6.43219Z"/>
<path id="path51_fill" d="M 64.7813 -7.79406e-06C 30.0952 -7.79406e-06 59.6804 4.34172 1.55667e-05 43.4173L 101.508 42.9065C 101.508 13.536 99.4673 -7.79406e-06 64.7813 -7.79406e-06Z"/>
<path id="path52_fill" d="M 42.9136 9.63162C 26.8458 -2.88277 10.778 -2.62737 3.6368 7.07766C -3.50444 17.0381 -0.44392 31.851 15.6239 44.11C 31.6917 56.369 78.6198 44.11 78.6198 44.11C 78.6198 44.11 58.9814 22.146 42.9136 9.63162Z"/>
</defs>
</svg>
